<?xml version="1.0" standalone="no"?>
<!DOCTYPE svg PUBLIC "-//W3C//DTD SVG 1.1//EN" "http://www.w3.org/Graphics/SVG/1.1/DTD/svg11.dtd" >
<svg xmlns="http://www.w3.org/2000/svg" xmlns:xlink="http://www.w3.org/1999/xlink" version="1.1">
<metadata>
Created by FontForge 20170731 at Wed Dec 14 17:59:40 2022
 By Aleksey,,,
Copyright 1997, 2007 International Typeface Corporation. All rights reserved.
</metadata>
<defs>
<font id="ConduitITCPro-Bold" horiz-adv-x="1038" >
  <font-face 
    font-family="Conduit ITC Pro"
    font-weight="700"
    font-stretch="normal"
    units-per-em="2048"
    panose-1="2 0 8 6 3 0 0 2 0 4"
    ascent="1440"
    descent="-608"
    x-height="936"
    cap-height="1290"
    bbox="-147 -514 2634 1827"
    underline-thickness="176"
    underline-position="-405"
    unicode-range="U+0020-FB04"
  />
<missing-glyph horiz-adv-x="1024" 
d="M25 0v1362h972v-1362h-972zM512 768l330 498h-662zM123 186l330 496l-330 496v-992zM901 184v994l-332 -496zM180 98h662l-330 496z" />
    <glyph glyph-name="IJ" unicode="IJ" horiz-adv-x="1388" 
d="M352 0h-194q-21 0 -21 20v1250q0 20 21 20h194q21 0 21 -20v-1250q0 -20 -21 -20zM528 242l156 73q34 15 37 15q9 0 16 -13q46 -122 146 -122q61 0 103 42.5t42 104.5v928q0 20 21 20h194q21 0 21 -20v-908q0 -159 -112 -270.5t-269 -111.5q-86 0 -170 44t-146 117
q-53 63 -53 84q0 11 14 17z" />
    <glyph glyph-name="ij" unicode="ij" horiz-adv-x="942" 
d="M373 1174q0 -56 -41 -97t-96 -41q-56 0 -97 41t-41 97q0 55 41 96t97 41t96.5 -40.5t40.5 -96.5zM332 0h-193q-20 0 -20 20v898q0 20 20 20h193q20 0 20 -20v-898q0 -20 -20 -20zM844 1174q0 -56 -41 -97t-96 -41t-96.5 41t-41.5 97q0 55 41 96t97 41q55 0 96 -40.5
t41 -96.5zM414 -461v174q0 21 18 21q76 6 117 46.5t41 98.5v1039q0 20 20 20h193q20 0 20 -20v-1020q0 -114 -62 -205t-171 -137q-91 -37 -156 -37q-20 0 -20 20z" />
    <glyph glyph-name="napostrophe" unicode="&#x22;n" horiz-adv-x="999" 
d="M332 0h-193q-20 0 -20 20v898q0 20 20 20h174q21 0 21 -18q0 -23 16 -23q3 0 15 4q69 37 135 37q172 0 276.5 -99.5t104.5 -260.5v-558q0 -20 -21 -20h-194q-21 0 -21 20v558q0 62 -41.5 103.5t-103.5 41.5t-105 -42t-43 -103v-558q0 -20 -20 -20zM-2 1036l-47 70
q-4 8 -4 14q0 11 6 17l14 18q45 71 45 213v43q0 19 15 19h137q14 0 14 -19v-45q0 -235 -155 -336q-4 -2 -11 -2q-11 0 -14 8z" />
    <glyph glyph-name="f_f.sc" unicode="&#xe012;&#xe012;" horiz-adv-x="1798" 
d="M1268 0h-199q-14 0 -14 16v994q0 16 14 16h649q17 0 17 -16v-168q0 -15 -17 -15h-415q-19 0 -19 -18v-172q0 -16 19 -16h342q18 0 18 -15v-170q0 -16 -18 -16h-342q-19 0 -19 -17v-387q0 -16 -16 -16zM369 0h-199q-14 0 -14 16v994q0 16 14 16h649q17 0 17 -16v-168
q0 -15 -17 -15h-416q-18 0 -18 -18v-172q0 -16 18 -16h342q19 0 19 -15v-170q0 -16 -19 -16h-342q-18 0 -18 -17v-387q0 -16 -16 -16z" />
    <glyph glyph-name="f_f_i.sc" unicode="&#xe012;&#xe012;&#xe015;" horiz-adv-x="2338" 
d="M2167 0h-199q-14 0 -14 16v994q0 16 14 16h199q16 0 16 -16v-994q0 -16 -16 -16zM1268 0h-199q-14 0 -14 16v994q0 16 14 16h649q17 0 17 -16v-168q0 -15 -17 -15h-415q-19 0 -19 -18v-172q0 -16 19 -16h342q18 0 18 -15v-170q0 -16 -18 -16h-342q-19 0 -19 -17v-387
q0 -16 -16 -16zM369 0h-199q-14 0 -14 16v994q0 16 14 16h649q17 0 17 -16v-168q0 -15 -17 -15h-416q-18 0 -18 -18v-172q0 -16 18 -16h342q19 0 19 -15v-170q0 -16 -19 -16h-342q-18 0 -18 -17v-387q0 -16 -16 -16z" />
    <glyph glyph-name="f_f_l.sc" unicode="&#xe012;&#xe012;&#xe01c;" horiz-adv-x="2656" 
d="M2617 0h-649q-14 0 -14 16v994q0 16 14 16h199q16 0 16 -16v-793q0 -16 19 -16h415q17 0 17 -17v-168q0 -16 -17 -16zM1268 0h-199q-14 0 -14 16v994q0 16 14 16h649q17 0 17 -16v-168q0 -15 -17 -15h-415q-19 0 -19 -18v-172q0 -16 19 -16h342q18 0 18 -15v-170
q0 -16 -18 -16h-342q-19 0 -19 -17v-387q0 -16 -16 -16zM369 0h-199q-14 0 -14 16v994q0 16 14 16h649q17 0 17 -16v-168q0 -15 -17 -15h-416q-18 0 -18 -18v-172q0 -16 18 -16h342q19 0 19 -15v-170q0 -16 -19 -16h-342q-18 0 -18 -17v-387q0 -16 -16 -16z" />
    <glyph glyph-name="f_f" unicode="ff" horiz-adv-x="1132" 
d="M362 0h-194q-21 0 -21 20v594q0 21 -20 21h-47q-21 0 -21 20v174q0 21 21 21h47q20 0 20 20v58q0 157 112 270t269 113q163 0 263 -72q21 -14 24 -14q4 0 25 14q99 72 223 72q65 0 131 -15q16 -3 16 -16q0 -11 -8 -31l-55 -151q-4 -17 -17 -17l-22 7q-23 8 -45 8
q-63 0 -104 -42.5t-41 -105.5v-78q0 -20 20 -20h135q21 0 21 -21v-174q0 -20 -21 -20h-135q-20 0 -20 -21v-594q0 -20 -21 -20h-195q-20 0 -20 20v594q0 21 -20 21h-259q-20 0 -20 -21v-594q0 -20 -21 -20zM403 850h259q20 0 20 20v58q0 24 2.5 42.5t5 28.5t2.5 13
q0 17 -18 32q-26 24 -68.5 38t-77.5 14q-62 0 -103.5 -42t-41.5 -106v-78q0 -20 20 -20z" />
    <glyph glyph-name="fi" unicode="fi" horiz-adv-x="1028" 
d="M930 1174q0 -56 -41 -97t-96 -41t-95.5 41t-40.5 97t40.5 96.5t95.5 40.5t96 -40.5t41 -96.5zM891 0h-195q-20 0 -20 20v898q0 20 20 20h195q20 0 20 -20v-898q0 -20 -20 -20zM362 0h-194q-21 0 -21 20v594q0 21 -20 21h-47q-21 0 -21 20v174q0 21 21 21h47q20 0 20 20
v58q0 124 74 222.5t201 137.5q67 21 115 21q20 0 20 -21v-174q0 -20 -18 -20q-76 -6 -116 -46.5t-40 -99.5v-78q0 -20 20 -20h134q20 0 20 -21v-174q0 -20 -20 -20h-134q-20 0 -20 -21v-594q0 -20 -21 -20z" />
    <glyph glyph-name="fl" unicode="fl" horiz-adv-x="1036" 
d="M362 0h-194q-21 0 -21 20v594q0 21 -20 21h-47q-21 0 -21 20v174q0 21 21 21h47q20 0 20 20v39q0 158 111.5 269.5t269.5 111.5h369q21 0 21 -20v-1250q0 -20 -21 -20h-195q-20 0 -20 20v1035q0 20 -20 20h-134q-61 0 -103 -42.5t-42 -104.5v-58q0 -20 20 -20h134
q20 0 20 -21v-174q0 -20 -20 -20h-134q-20 0 -20 -21v-594q0 -20 -21 -20z" />
    <glyph glyph-name="f_f_i" unicode="ffi" horiz-adv-x="1550" 
d="M1464 1174q0 -56 -40 -97t-95 -41t-96 41t-41 97t41 96.5t96 40.5t95 -40.5t40 -96.5zM1425 0h-194q-21 0 -21 20v898q0 20 21 20h194q21 0 21 -20v-898q0 -20 -21 -20zM362 0h-194q-21 0 -21 20v594q0 21 -20 21h-47q-21 0 -21 20v174q0 21 21 21h47q20 0 20 20v58
q0 157 112 270t269 113q163 0 263 -72q21 -14 24 -14q4 0 8.5 2.5t10 6.5t8.5 5q53 36 121.5 54t109.5 18q21 0 21 -21v-176q0 -20 -19 -20q-78 -6 -117.5 -46.5t-39.5 -99.5v-78q0 -20 20 -20h135q21 0 21 -21v-174q0 -20 -21 -20h-135q-20 0 -20 -21v-594q0 -20 -21 -20
h-195q-20 0 -20 20v594q0 21 -20 21h-259q-20 0 -20 -21v-594q0 -20 -21 -20zM403 850h259q20 0 20 20v58q0 24 2.5 42.5t5 28.5t2.5 13q0 17 -18 32q-26 24 -68.5 38t-77.5 14q-62 0 -103.5 -42t-41.5 -106v-78q0 -20 20 -20z" />
    <glyph glyph-name="f_f_l" unicode="ffl" horiz-adv-x="1568" 
d="M362 0h-194q-21 0 -21 20v594q0 21 -20 21h-47q-21 0 -21 20v174q0 21 21 21h47q20 0 20 20v58q0 157 112 270t269 113q88 0 160.5 -23t116.5 -59q2 -1 6 -5.5t8 -7t8 -2.5t9 3t11 8t7 6q85 59 209 59h369q20 0 20 -20v-1250q0 -20 -20 -20h-195q-20 0 -20 20v1035
q0 20 -21 20h-133q-62 0 -103.5 -41.5t-41.5 -105.5v-58q0 -20 20 -20h135q21 0 21 -21v-174q0 -20 -21 -20h-135q-20 0 -20 -21v-594q0 -20 -21 -20h-195q-20 0 -20 20v594q0 21 -20 21h-259q-20 0 -20 -21v-594q0 -20 -21 -20zM403 850h259q20 0 20 20v58q0 27 6 54t6 28
q0 17 -18 32q-27 24 -70.5 39t-77.5 15q-62 0 -103.5 -42t-41.5 -106v-78q0 -20 20 -20z" />
    <glyph glyph-name=".notdef" horiz-adv-x="1024" 
d="M25 0v1362h972v-1362h-972zM512 768l330 498h-662zM123 186l330 496l-330 496v-992zM901 184v994l-332 -496zM180 98h662l-330 496z" />
    <glyph glyph-name=".null" horiz-adv-x="0" 
 />
    <glyph glyph-name="nonmarkingreturn" horiz-adv-x="682" 
 />
    <glyph glyph-name="space" unicode=" " horiz-adv-x="362" 
 />
    <glyph glyph-name="exclam" unicode="!" horiz-adv-x="626" 
d="M367 352h-103q-17 0 -20 19l-47 364v535q0 20 20 20h193q20 0 20 -20v-535l-43 -364q-3 -19 -20 -19zM451 117q0 -55 -41 -96t-97 -41q-55 0 -96 41t-41 96t41 96t96 41q56 0 97 -41t41 -96z" />
    <glyph glyph-name="quotedbl" unicode="&#x22;" horiz-adv-x="647" 
d="M512 881h-100q-18 0 -21 18l-41 307q-8 50 -8 66q0 18 20 18h197q21 0 21 -18q0 -3 -9 -68l-39 -305q-3 -18 -20 -18zM238 881h-101q-17 0 -20 18l-41 307q-8 50 -8 66q0 18 20 18h197q20 0 20 -18q0 -10 -8 -68l-39 -305q-3 -18 -20 -18z" />
    <glyph glyph-name="numbersign" unicode="#" horiz-adv-x="1138" 
d="M266 0h-123q-20 0 -20 18q0 13 8 37l72 250q6 24 6 31q0 16 -21 16h-116q-15 0 -15 13q0 5 4 19t5 17l38 146q6 20 25 20h131q18 0 21 17l26 92q1 4 4.5 15t3.5 16q0 16 -22 16h-131q-15 0 -15 12q0 5 9 37l39 146q6 20 24 20h150q17 0 20 16l90 322q3 14 21 14h123
q22 0 22 -18q0 -7 -8 -31l-70 -248q-8 -28 -8 -37q0 -18 21 -18h157q18 0 21 16l94 322q3 14 20 14h123q23 0 23 -18q0 -7 -8 -31l-70 -248q-8 -28 -8 -37q0 -18 20 -18h117q16 0 16 -12q0 -1 -6 -31l-41 -152q-6 -20 -26 -20h-133q-19 0 -21 -12l-24 -88q-9 -31 -9 -37
q0 -19 21 -19h133q16 0 16 -12q0 -7 -6 -31l-41 -151q-6 -21 -26 -21h-148q-18 0 -20 -12l-95 -326q-3 -14 -20 -14h-121q-20 0 -20 18q0 7 4 22l4 15l67 250q1 3 4 14.5t3 16.5q0 16 -21 16h-160q-18 0 -20 -12l-92 -326q-3 -14 -21 -14zM475 567h158q17 0 20 17l27 92
q8 20 8 31q0 16 -22 16h-158q-19 0 -21 -12l-24 -88q-10 -30 -10 -37q0 -19 22 -19z" />
    <glyph glyph-name="dollar" unicode="$" 
d="M590 -117h-107q-20 0 -20 21v55q0 21 -21 21q-106 4 -174 40t-114 101q-23 32 -38.5 62t-15.5 40q0 11 13 17l155 77q26 13 31 13q9 0 16 -13q26 -67 66 -96q35 -24 61 -24q21 0 21 20v322q0 12 -12 18q-144 67 -202 109q-157 111 -157 282q0 153 94 253.5t256 109.5
q21 0 21 20v55q0 21 20 21h107q20 0 20 -21v-59q0 -17 17 -20q169 -16 262 -148q49 -69 49 -90q0 -10 -12 -16l-146 -72q-32 -18 -43 -18q-10 0 -16 12q-24 53 -51 80q-26 26 -43 26t-17 -22v-289q0 -10 11 -16q58 -28 95.5 -48.5t88 -59t80.5 -77.5t51.5 -98.5t21.5 -128.5
q0 -151 -89.5 -249t-241.5 -111q-17 -3 -17 -21v-57q0 -21 -20 -21zM463 846v225q0 10 -5.5 16.5t-13.5 6.5q-20 0 -59 -27q-59 -43 -59 -119q0 -51 55 -90q50 -35 65 -35q17 0 17 23zM610 449v-222q0 -22 17 -22q16 0 51 31q47 44 47 106q0 58 -51 102q-30 27 -47 27
t-17 -22z" />
    <glyph glyph-name="percent" unicode="%" horiz-adv-x="1120" 
d="M94 899v191q0 88 56 144t149 56q94 0 150.5 -53.5t56.5 -140.5v-197q0 -87 -56.5 -140.5t-150.5 -53.5q-93 0 -149 53.5t-56 140.5zM348 0h-108q-21 0 -21 16q0 9 27 70l510 1192q6 12 18 12h109q20 0 20 -16q0 -5 -26 -70l-510 -1192q-6 -12 -19 -12zM616 195v196
q0 87 56 141t149 54t149 -54t56 -141v-196q0 -87 -56 -141t-149 -54t-149 54t-56 141zM340 899v197q0 15 -13 27t-28 12q-17 0 -28 -11t-11 -28v-197q0 -17 11 -28t28 -11q15 0 28 12t13 27zM860 195v196q0 17 -11 28t-28 11t-28 -11t-11 -28v-196q0 -17 11 -28t28 -11
t28 11t11 28z" />
    <glyph glyph-name="ampersand" unicode="&#x26;" horiz-adv-x="1253" 
d="M549 -20h-60q-175 0 -277.5 101.5t-102.5 276.5v50q0 59 28.5 119.5t73.5 103.5q18 18 18 24q0 7 -18 25q-102 102 -102 244q0 176 102 281.5t278 105.5q175 0 278 -104t103 -279v-39q0 -82 -41.5 -150t-111.5 -102q-12 -6 -12 -16q0 -7 14 -17q21 -16 47 -45q8 -8 16 -8
q13 0 19 14q42 93 130 145t208 52h63q21 0 21 -21v-192q0 -21 -21 -21h-80q-57 0 -90.5 -37t-56.5 -104l-8 -25q-6 -14 6 -26q112 -105 231 -119q19 -3 19 -20v-197q0 -20 -21 -20q-79 0 -164.5 28.5t-150.5 81.5q-19 19 -29 19q-4 0 -6.5 -2t-7 -7.5t-6.5 -7.5
q-100 -112 -289 -112zM637 909v39q0 60 -44 104t-104 44q-62 0 -104.5 -43.5t-42.5 -104.5q0 -53 32 -92.5t93 -81.5q28 -16 33 -16q10 0 35 10q47 19 74.5 57t27.5 84zM489 195h60q75 0 121 59q20 24 20 33q0 8 -20 32q-66 80 -133 134q-12 10 -25.5 19.5t-34 22
t-28.5 17.5q-21 14 -29 14q-13 0 -29 -16q-49 -46 -49 -109v-59q0 -65 43 -106t104 -41z" />
    <glyph glyph-name="quotesingle" unicode="'" horiz-adv-x="372" 
d="M238 881h-101q-17 0 -20 18l-41 307q-8 50 -8 66q0 18 20 18h197q20 0 20 -18q0 -10 -8 -68l-39 -305q-3 -18 -20 -18z" />
    <glyph glyph-name="parenleft" unicode="(" horiz-adv-x="806" 
d="M639 -156v-176q0 -20 -21 -20q-74 0 -157 30q-114 41 -173 132t-59 219v1075q0 124 55 213t160 131q90 37 174 37q21 0 21 -21v-176q0 -20 -18 -20q-76 -6 -117 -46t-41 -98v-1114q0 -58 41 -98.5t117 -46.5q18 0 18 -21z" />
    <glyph glyph-name="parenright" unicode=")" horiz-adv-x="806" 
d="M168 -332v176q0 21 18 21q76 6 117 46.5t41 98.5v1114q0 58 -41 98t-117 46q-18 0 -18 20v176q0 21 20 21q84 0 174 -37q105 -43 160.5 -131.5t55.5 -212.5v-1075q0 -128 -59 -219t-173 -132q-82 -30 -158 -30q-20 0 -20 20z" />
    <glyph glyph-name="asterisk" unicode="*" horiz-adv-x="798" 
d="M481 678h-162q-20 0 -20 18q0 10 6 52l12 94q5 25 5 35q0 20 -15 20q-6 0 -18 -8l-131 -103q-9 -6 -15 -6q-9 0 -16 13l-82 143q-4 8 -4 12q0 11 14 17l158 63q14 6 14 19q0 12 -14 18l-156 68q-14 6 -14 16q0 4 4 12l82 142q6 12 16 12q6 0 15 -6l129 -107q9 -6 16 -6
t12 7t5 16q0 4 -3 21.5t-4 27.5l-12 88q-4 20 -4 35q0 18 20 18h162q21 0 21 -18q0 -15 -4 -35l-13 -90q-6 -48 -6 -49q0 -9 5 -16t12 -7t16 6l137 109q9 6 15 6q10 0 16 -12l80 -140q4 -8 4 -12q0 -10 -14 -16l-162 -70q-15 -6 -15 -18q0 -13 15 -19l164 -63q14 -6 14 -17
q0 -4 -4 -12l-82 -139q-6 -13 -16 -13q-8 0 -15 7l-139 100q-9 6 -18 6q-15 0 -15 -16q0 -17 4 -37l15 -101q1 -6 2.5 -17t2.5 -18.5t1 -11.5q0 -18 -21 -18z" />
    <glyph glyph-name="plus" unicode="+" 
d="M586 59h-135q-21 0 -21 21v309q0 21 -20 21h-310q-20 0 -20 20v135q0 21 20 21h310q20 0 20 20v312q0 20 21 20h135q20 0 20 -20v-312q0 -20 21 -20h311q20 0 20 -21v-135q0 -20 -20 -20h-311q-21 0 -21 -21v-309q0 -21 -20 -21z" />
    <glyph glyph-name="comma" unicode="," horiz-adv-x="471" 
d="M129 -252l-47 92q-12 24 -12 29q0 10 12 16q38 21 59 59t21 68q0 19 -21 19h-22q-21 0 -21 20v199q0 20 21 20h233q21 0 21 -20v-150q0 -215 -144 -317q-63 -47 -84 -47q-10 0 -16 12z" />
    <glyph glyph-name="hyphen" unicode="-" horiz-adv-x="569" 
d="M469 352h-369q-20 0 -20 21v192q0 21 20 21h369q20 0 20 -21v-192q0 -21 -20 -21z" />
    <glyph glyph-name="period" unicode="." horiz-adv-x="471" 
d="M373 117q0 -55 -40.5 -96t-96.5 -41t-97 41t-41 96t41 96t97 41t96.5 -41t40.5 -96z" />
    <glyph glyph-name="slash" unicode="/" horiz-adv-x="675" 
d="M135 0h-129q-20 0 -20 16q0 5 12 37l524 1225q6 12 19 12h129q20 0 20 -16q0 -13 -10 -33l-526 -1229q-6 -12 -19 -12z" />
    <glyph glyph-name="zero" unicode="0" 
d="M549 -20h-60q-173 0 -276.5 100.5t-103.5 261.5v606q0 161 103.5 262t276.5 101h60q172 0 276.5 -101t104.5 -262v-606q0 -161 -104.5 -261.5t-276.5 -100.5zM489 195h60q61 0 103 42.5t42 104.5v606q0 62 -42 105t-103 43h-60q-60 0 -103.5 -44t-43.5 -104v-606
q0 -60 43.5 -103.5t103.5 -43.5z" />
    <glyph glyph-name="one" unicode="1" 
d="M885 0h-662q-20 0 -20 20v175q0 20 20 20h193q20 0 20 21v600q0 22 -16 22q-11 0 -19 -8l-61 -64q-5 -8 -14 -8q-3 0 -15 8l-127 125q-8 5 -8 15q0 2 8 14l336 338q12 12 25 12h106q21 0 21 -20v-1034q0 -21 20 -21h193q20 0 20 -20v-175q0 -20 -20 -20z" />
    <glyph glyph-name="two" unicode="2" 
d="M881 0h-723q-21 0 -21 20v236q0 69 18 130.5t45.5 106t70.5 86.5t81 70t90 60q16 10 50 29.5t50.5 30t43 28.5t40 32t28.5 33.5t21.5 40.5t6.5 45q0 60 -43.5 104t-103.5 44h-74q-95 0 -146 -121q-6 -14 -16 -14q-5 0 -25 10l-163 84q-13 7 -13 14q0 9 39 76
q105 166 324 166h74q173 0 276.5 -101t103.5 -262q0 -44 -6.5 -83t-23 -73.5t-31.5 -61t-44 -55t-48 -46t-57 -43t-56.5 -37.5t-60.5 -37q-40 -24 -56 -34.5t-48 -33t-46.5 -39t-32.5 -41t-25 -51t-7 -57.5v-20q0 -21 20 -21h488q20 0 20 -20v-175q0 -20 -20 -20z" />
    <glyph glyph-name="three" unicode="3" 
d="M518 -20h-57q-219 0 -324 165q-39 67 -39 76t13 15l163 83q22 11 25 11q10 0 16 -15q50 -120 146 -120h57q60 0 104 43.5t44 103.5v70q0 61 -43 103t-105 42h-184q-21 0 -21 21v174q0 20 21 20h184q60 0 104 44t44 104v28q0 60 -44 104t-104 44h-57q-95 0 -146 -121
q-6 -14 -16 -14q-5 0 -25 10l-163 84q-13 7 -13 14q0 9 39 76q105 166 324 166h57q175 0 279 -104t104 -279v-29q0 -55 -31.5 -115.5t-78.5 -105.5q-9 -6 -9 -14q0 -9 9 -15q46 -44 78 -110t32 -121v-60q0 -174 -104 -276t-279 -102z" />
    <glyph glyph-name="four" unicode="4" 
d="M793 0h-195q-20 0 -20 20v242q0 21 -21 21h-483q-21 0 -21 20v174l535 805q8 8 16 8h189q20 0 20 -20v-752q0 -20 21 -20h133q20 0 20 -21v-174q0 -20 -20 -20h-133q-21 0 -21 -21v-242q0 -20 -20 -20zM346 498h211q21 0 21 20v318q0 10 -5.5 17t-13.5 7q-9 0 -18 -12
l-211 -318q-6 -9 -6 -16q0 -16 22 -16z" />
    <glyph glyph-name="five" unicode="5" 
d="M551 -20h-57q-219 0 -324 165q-39 67 -39 76t12 15l164 83q22 11 25 11q10 0 16 -15q50 -120 146 -120h57q61 0 103 42.5t42 104.5v70q0 62 -42 103.5t-103 41.5h-342q-21 0 -21 21v692q0 20 21 20h682q20 0 20 -20v-174q0 -21 -20 -21h-447q-20 0 -20 -20v-262
q0 -21 20 -21h107q174 0 277.5 -101.5t103.5 -275.5v-37q0 -174 -103.5 -276t-277.5 -102z" />
    <glyph glyph-name="six" unicode="6" 
d="M551 -20h-62q-172 0 -276 100.5t-104 261.5v606q0 161 104 262t276 101h64q219 0 324 -166q38 -65 38 -76q0 -8 -12 -14l-164 -84q-20 -10 -24 -10q-11 0 -17 14q-51 121 -145 121h-64q-61 0 -103 -43t-42 -105v-186q0 -23 16 -23q3 0 15 4q73 39 135 39h61
q153 0 258 -102t105 -260v-78q0 -161 -105 -261.5t-278 -100.5zM489 195h62q60 0 103.5 43.5t43.5 103.5v78q0 60 -43.5 103.5t-103.5 43.5h-62q-61 0 -103 -42.5t-42 -104.5v-78q0 -62 42 -104.5t103 -42.5z" />
    <glyph glyph-name="seven" unicode="7" 
d="M410 0h-193q-20 0 -20 20v322q0 64 16.5 120.5t38.5 95t61.5 78.5t69 63t78.5 57q8 6 36 24.5t37.5 25.5t33.5 24.5t33.5 27.5t27 27.5t24.5 32t16.5 33.5t13 39.5t3.5 43.5v21q0 20 -20 20h-488q-20 0 -20 21v174q0 20 20 20h721q21 0 21 -20v-236q0 -43 -6.5 -82.5
t-15.5 -71t-26.5 -63t-31.5 -54t-40 -48.5t-43 -42t-47.5 -39t-47 -34t-48.5 -33q-97 -67 -127 -97q-57 -58 -57 -128v-322q0 -20 -20 -20z" />
    <glyph glyph-name="eight" unicode="8" 
d="M549 -20h-60q-175 0 -277.5 101.5t-102.5 276.5v50q0 55 31.5 120.5t76.5 110.5q8 8 8 14q0 10 -8 15q-45 44 -76.5 105t-31.5 116v39q0 175 103 279t277 104h60q173 0 277 -104t104 -279v-39q0 -54 -32 -115.5t-77 -105.5q-8 -5 -8 -15q0 -6 8 -14q45 -45 77 -110.5
t32 -120.5v-50q0 -174 -103.5 -276t-277.5 -102zM489 762h60q61 0 103 42.5t42 104.5v39q0 62 -42 105t-103 43h-60q-60 0 -103.5 -44t-43.5 -104v-39q0 -60 43.5 -103.5t103.5 -43.5zM489 195h60q61 0 103 42.5t42 104.5v59q0 62 -42 104t-103 42h-60q-62 0 -104.5 -42.5
t-42.5 -103.5v-59q0 -60 43.5 -103.5t103.5 -43.5z" />
    <glyph glyph-name="nine" unicode="9" 
d="M551 -20h-57q-219 0 -324 165q-39 67 -39 76t12 15l164 83q22 11 25 11q10 0 16 -15q50 -120 146 -120h57q60 0 103.5 43.5t43.5 103.5v117q0 22 -16 22q-2 0 -14 -4q-69 -37 -136 -37h-61q-153 0 -257.5 101.5t-104.5 259.5v147q0 161 104 262t276 101h62
q173 0 278 -101t105 -262v-606q0 -161 -105 -261.5t-278 -100.5zM489 655h62q62 0 104.5 42.5t42.5 103.5v147q0 60 -43.5 104t-103.5 44h-62q-61 0 -103 -43t-42 -105v-147q0 -62 42 -104t103 -42z" />
    <glyph glyph-name="colon" unicode=":" horiz-adv-x="471" 
d="M373 645q0 -55 -40.5 -96t-96.5 -41t-97 41t-41 96t41 96t97 41t96.5 -41t40.5 -96zM373 117q0 -55 -40.5 -96t-96.5 -41t-97 41t-41 96t41 96t97 41t96.5 -41t40.5 -96z" />
    <glyph glyph-name="semicolon" unicode=";" horiz-adv-x="471" 
d="M373 645q0 -55 -40.5 -96t-96.5 -41t-97 41t-41 96t41 96t97 41t96.5 -41t40.5 -96zM129 -252l-47 92q-12 24 -12 29q0 10 12 16q38 21 59 59t21 68q0 19 -21 19h-22q-21 0 -21 20v199q0 20 21 20h233q21 0 21 -20v-150q0 -215 -144 -317q-63 -47 -84 -47q-10 0 -16 12z
" />
    <glyph glyph-name="less" unicode="&#x3c;" 
d="M748 51l-617 361q-10 7 -10 18v141q0 12 10 19l627 366q24 15 30 15q10 0 17 -13l61 -100q13 -22 13 -27q0 -9 -13 -16l-508 -295q-14 -11 -14 -18q0 -8 14 -19l506 -290q13 -7 13 -17q0 -4 -2 -7.5t-5.5 -9t-5.5 -9.5l-59 -107q-6 -12 -17 -12q-4 0 -40 20z" />
    <glyph glyph-name="equal" unicode="=" 
d="M938 586h-838q-20 0 -20 20v135q0 21 20 21h838q20 0 20 -21v-135q0 -20 -20 -20zM938 236h-838q-20 0 -20 20v133q0 21 20 21h838q20 0 20 -21v-133q0 -20 -20 -20z" />
    <glyph glyph-name="greater" unicode="&#x3e;" 
d="M233 43l-59 107q-12 24 -12 26q0 11 12 17l506 290q14 11 14 19q0 7 -14 18l-508 295q-12 6 -12 16q0 7 12 27l61 100q7 13 17 13q7 0 31 -15l626 -366q11 -7 11 -19v-141q0 -11 -11 -18l-616 -361q-36 -20 -41 -20q-11 0 -17 12z" />
    <glyph glyph-name="question" unicode="?" horiz-adv-x="972" 
d="M487 352h-194q-18 0 -21 17q-12 78 -12 123q0 64 18.5 112t55.5 81.5t69 53t82 44.5q14 7 21 10q32 16 51 27.5t40 30t30.5 42.5t9.5 55q0 62 -42 105t-103 43h-74q-95 0 -146 -121q-6 -14 -16 -14q-5 0 -25 10l-163 84q-13 7 -13 14q0 9 39 76q105 166 324 166h74
q172 0 276 -101t104 -262q0 -67 -15.5 -120t-38 -86.5t-58 -61t-65 -43.5t-69.5 -34q-4 -1 -6.5 -2.5t-5.5 -2.5q-26 -13 -37.5 -19t-30.5 -19t-27.5 -25t-15.5 -30.5t-7 -41.5q0 -29 6 -60t6 -34q0 -17 -21 -17zM549 117q0 -55 -40.5 -96t-96.5 -41t-97 41t-41 96t41 96
t97 41t96.5 -41t40.5 -96z" />
    <glyph glyph-name="at" unicode="@" horiz-adv-x="1447" 
d="M1085 0h-536q-173 0 -277 100.5t-104 261.5v566q0 161 104 261.5t277 100.5h352q172 0 276.5 -100.5t104.5 -261.5v-420q0 -87 -56.5 -141t-150.5 -54h-24q-83 0 -142 49q-17 11 -20 11q-6 0 -23 -13q-65 -47 -143 -47q-124 0 -197 70t-73 186v162q0 114 73.5 184
t196.5 70q39 0 82 -16q22 -11 31 -11q14 0 14 15q0 12 16 12h107q20 0 20 -20v-447q0 -26 17 -42.5t43 -16.5h22q26 0 43 17.5t17 41.5v410q0 96 -64.5 155.5t-169.5 59.5h-352q-107 0 -171.5 -59.5t-64.5 -155.5v-566q0 -96 64.5 -155.5t171.5 -59.5h536q21 0 21 -20v-107
q0 -20 -21 -20zM850 584v131q0 51 -38 87t-89 36q-53 0 -88 -35t-35 -88v-131q0 -53 35.5 -89t87.5 -36q51 0 89 37t38 88z" />
    <glyph glyph-name="A" unicode="A" horiz-adv-x="921" 
d="M211 0h-205q-22 0 -22 16q0 4 1.5 9t4 13.5t4.5 14.5l373 1223q3 14 20 14h148q17 0 20 -14l373 -1223q10 -30 10 -37q0 -16 -23 -16h-206q-18 0 -21 14l-61 215q-3 13 -21 13h-293q-17 0 -20 -13l-62 -215q-3 -14 -20 -14zM385 457h150q22 0 22 18q0 9 -10 39l-60 240
q-2 7 -11 56t-11 56h-6q-2 -8 -12.5 -56t-12.5 -56l-61 -238q-11 -38 -11 -41q0 -18 23 -18z" />
    <glyph glyph-name="B" unicode="B" horiz-adv-x="1097" 
d="M618 0h-460q-21 0 -21 20v1250q0 20 21 20h460q174 0 277.5 -103.5t103.5 -277.5v-20q0 -55 -31 -115.5t-77 -105.5q-8 -5 -8 -15q0 -9 8 -14q45 -44 76.5 -109.5t31.5 -121.5v-31q0 -173 -103 -275t-278 -102zM393 762h225q60 0 104 43.5t44 103.5v19q0 60 -44 103.5
t-104 43.5h-225q-20 0 -20 -20v-273q0 -20 20 -20zM393 215h225q61 0 104.5 42.5t43.5 104.5v39q0 61 -43 103.5t-105 42.5h-225q-20 0 -20 -21v-290q0 -21 20 -21z" />
    <glyph glyph-name="C" unicode="C" horiz-adv-x="991" 
d="M590 -20h-101q-173 0 -276.5 100.5t-103.5 261.5v606q0 161 103.5 262t276.5 101h101q218 0 323 -166q39 -67 39 -76q0 -8 -12 -14l-164 -84q-20 -10 -24 -10q-11 0 -17 14q-51 121 -145 121h-101q-60 0 -103.5 -44t-43.5 -104v-606q0 -60 43.5 -103.5t103.5 -43.5h101
q95 0 145 120q6 15 17 15q2 0 24 -11l164 -83q12 -6 12 -15t-39 -76q-50 -79 -126.5 -122t-196.5 -43z" />
    <glyph glyph-name="D" unicode="D" horiz-adv-x="1107" 
d="M618 0h-460q-21 0 -21 20v1250q0 20 21 20h460q174 0 277.5 -103.5t103.5 -277.5v-528q0 -175 -103 -278t-278 -103zM393 215h225q61 0 104.5 42.5t43.5 104.5v566q0 60 -44 103.5t-104 43.5h-225q-20 0 -20 -20v-819q0 -21 20 -21z" />
    <glyph glyph-name="E" unicode="E" horiz-adv-x="978" 
d="M881 0h-723q-21 0 -21 20v1250q0 20 21 20h723q20 0 20 -20v-174q0 -21 -20 -21h-488q-20 0 -20 -20v-273q0 -20 20 -20h400q20 0 20 -21v-174q0 -20 -20 -20h-400q-20 0 -20 -21v-290q0 -21 20 -21h488q20 0 20 -20v-175q0 -20 -20 -20z" />
    <glyph glyph-name="F" unicode="F" horiz-adv-x="929" 
d="M352 0h-194q-21 0 -21 20v1250q0 20 21 20h723q20 0 20 -20v-174q0 -21 -20 -21h-488q-20 0 -20 -20v-273q0 -20 20 -20h400q20 0 20 -21v-174q0 -20 -20 -20h-400q-20 0 -20 -21v-506q0 -20 -21 -20z" />
    <glyph glyph-name="G" unicode="G" horiz-adv-x="1079" 
d="M590 -20h-101q-173 0 -276.5 100.5t-103.5 261.5v606q0 161 103.5 262t276.5 101h136q218 0 323 -166q39 -67 39 -76q0 -8 -12 -14l-164 -84q-20 -10 -25 -10q-10 0 -16 14q-51 121 -145 121h-136q-60 0 -103.5 -44t-43.5 -104v-606q0 -60 43.5 -103.5t103.5 -43.5h101
q61 0 103 42.5t42 104.5v96q0 21 -20 21h-193q-20 0 -20 20v174q0 21 20 21h428q21 0 21 -21v-311q0 -161 -104.5 -261.5t-276.5 -100.5z" />
    <glyph glyph-name="H" unicode="H" horiz-adv-x="1167" 
d="M352 0h-194q-21 0 -21 20v1250q0 20 21 20h194q21 0 21 -20v-488q0 -20 20 -20h381q21 0 21 20v488q0 20 20 20h193q20 0 20 -20v-1250q0 -20 -20 -20h-193q-20 0 -20 20v506q0 21 -21 21h-381q-20 0 -20 -21v-506q0 -20 -21 -20z" />
    <glyph glyph-name="I" unicode="I" horiz-adv-x="509" 
d="M352 0h-194q-21 0 -21 20v1250q0 20 21 20h194q21 0 21 -20v-1250q0 -20 -21 -20z" />
    <glyph glyph-name="J" unicode="J" horiz-adv-x="878" 
d="M18 242l156 73q34 15 37 15q9 0 16 -13q46 -122 146 -122q61 0 103 42.5t42 104.5v928q0 20 21 20h194q21 0 21 -20v-908q0 -159 -112 -270.5t-269 -111.5q-86 0 -170 44t-146 117q-53 63 -53 84q0 11 14 17z" />
    <glyph glyph-name="K" unicode="K" horiz-adv-x="1067" 
d="M352 0h-194q-21 0 -21 20v1250q0 20 21 20h194q21 0 21 -20v-455q0 -10 5 -17t13 -7q10 0 19 12l364 479q8 8 17 8h235q23 0 23 -16q0 -6 -7 -17l-385 -477q-14 -18 -14 -26q0 -6 12 -27l420 -680q15 -26 15 -31q0 -16 -23 -16h-240q-9 0 -16 10l-322 514q-11 15 -18 15
q-9 0 -16 -11l-66 -88q-16 -22 -16 -49v-371q0 -20 -21 -20z" />
    <glyph glyph-name="L" unicode="L" horiz-adv-x="929" 
d="M881 0h-723q-21 0 -21 20v1250q0 20 21 20h194q21 0 21 -20v-1034q0 -21 20 -21h488q20 0 20 -20v-175q0 -20 -20 -20z" />
    <glyph glyph-name="M" unicode="M" horiz-adv-x="1304" 
d="M352 0h-194q-21 0 -21 20v1250q0 20 21 20h172q12 0 18 -12l273 -651q7 -17 26 -92h6q15 58 29 92l272 651q6 12 19 12h172q20 0 20 -20v-1250q0 -20 -20 -20h-193q-20 0 -20 20v216q0 226 22 495l-8 2q-2 -4 -10.5 -35.5t-20 -68.5t-22.5 -60l-170 -381q-6 -12 -18 -12
h-105q-12 0 -18 12l-170 381q-11 23 -23 60t-20.5 68.5t-10.5 35.5l-8 -2q23 -282 23 -495v-216q0 -20 -21 -20z" />
    <glyph glyph-name="N" unicode="N" horiz-adv-x="1126" 
d="M352 0h-194q-21 0 -21 20v1250q0 20 21 20h172q11 0 18 -10l367 -672q12 -20 43 -104l8 2q-3 40 -7.5 215.5t-4.5 290.5v258q0 20 20 20h193q20 0 20 -20v-1250q0 -20 -20 -20h-170q-12 0 -19 10l-366 668q-12 20 -43 104l-9 -2q3 -41 8 -217t5 -289v-254q0 -20 -21 -20z
" />
    <glyph glyph-name="O" unicode="O" horiz-adv-x="1079" 
d="M590 -20h-101q-173 0 -276.5 100.5t-103.5 261.5v606q0 161 103.5 262t276.5 101h101q172 0 276.5 -101t104.5 -262v-606q0 -161 -104.5 -261.5t-276.5 -100.5zM489 195h101q61 0 103 42.5t42 104.5v606q0 62 -42 105t-103 43h-101q-60 0 -103.5 -44t-43.5 -104v-606
q0 -60 43.5 -103.5t103.5 -43.5z" />
    <glyph glyph-name="P" unicode="P" horiz-adv-x="989" 
d="M352 0h-194q-21 0 -21 20v1250q0 20 21 20h420q174 0 277 -104t103 -277q0 -156 -104.5 -259t-275.5 -103h-185q-20 0 -20 -21v-506q0 -20 -21 -20zM393 762h185q60 0 103.5 43.5t43.5 103.5v19q0 60 -43.5 103.5t-103.5 43.5h-185q-20 0 -20 -20v-273q0 -20 20 -20z" />
    <glyph glyph-name="Q" unicode="Q" horiz-adv-x="1079" 
d="M627 -176h-174q-21 0 -21 20v121q0 18 -20 21q-141 22 -222 118t-81 238v606q0 161 103.5 262t276.5 101h101q172 0 276.5 -101t104.5 -262v-606q0 -141 -83.5 -237.5t-225.5 -118.5q-15 -3 -15 -21v-121q0 -20 -20 -20zM440 233l27 82q6 15 20 15h105q14 0 20 -15
l27 -86q5 -16 16 -16q12 0 41 29q39 46 39 100v606q0 62 -42 105t-103 43h-101q-60 0 -103.5 -44t-43.5 -104v-606q0 -56 35 -94q27 -31 45 -31q12 0 18 16z" />
    <glyph glyph-name="R" unicode="R" horiz-adv-x="1079" 
d="M352 0h-194q-21 0 -21 20v1250q0 20 21 20h460q174 0 277.5 -103.5t103.5 -277.5v-20q0 -74 -51 -155t-114 -124q-9 -6 -9 -16q0 -4 11 -33l176 -512q2 -5 4.5 -12.5t4 -12.5t1.5 -8q0 -16 -21 -16h-210q-15 0 -19 14l-180 521q-3 12 -17 12h-182q-20 0 -20 -21v-506
q0 -20 -21 -20zM393 762h225q60 0 104 43.5t44 103.5v19q0 60 -44 103.5t-104 43.5h-225q-20 0 -20 -20v-273q0 -20 20 -20z" />
    <glyph glyph-name="S" unicode="S" horiz-adv-x="966" 
d="M514 -20h-82q-120 0 -196.5 43t-126.5 122q-39 67 -39 76t12 15l164 83q22 11 24 11q11 0 17 -15q50 -120 145 -120h82q60 0 104 43.5t44 103.5q0 37 -13 65t-50 54t-56 36t-78 37q-5 3 -7.5 4t-7 3t-8.5 4q-38 18 -55 26.5t-52.5 27.5t-53 31.5t-47 34.5t-44.5 41
t-35 47t-29.5 56t-16.5 64t-7 75q0 161 104 262t277 101h33q219 0 324 -166q39 -67 39 -76q0 -7 -13 -14l-164 -84q-20 -10 -24 -10q-10 0 -16 14q-51 121 -146 121h-33q-60 0 -103.5 -44t-43.5 -104q0 -25 10.5 -46.5t23.5 -36t41 -31t46.5 -25.5t57.5 -25.5t58 -25.5
q55 -26 94 -47.5t85.5 -58.5t75 -77.5t48 -100.5t19.5 -132q0 -161 -104 -261.5t-277 -100.5z" />
    <glyph glyph-name="T" unicode="T" horiz-adv-x="823" 
d="M508 0h-193q-20 0 -20 20v1035q0 20 -21 20h-223q-20 0 -20 21v174q0 20 20 20h721q21 0 21 -20v-174q0 -21 -21 -21h-223q-21 0 -21 -20v-1035q0 -20 -20 -20z" />
    <glyph glyph-name="U" unicode="U" horiz-adv-x="1079" 
d="M590 -20h-101q-173 0 -276.5 100.5t-103.5 261.5v928q0 20 20 20h193q20 0 20 -20v-928q0 -60 43.5 -103.5t103.5 -43.5h101q61 0 103 42.5t42 104.5v928q0 20 21 20h194q21 0 21 -20v-928q0 -161 -104.5 -261.5t-276.5 -100.5z" />
    <glyph glyph-name="V" unicode="V" horiz-adv-x="921" 
d="M535 0h-148q-17 0 -20 14l-373 1221q-10 35 -10 39q0 16 22 16h205q17 0 20 -14l203 -737q2 -8 10.5 -47.5t10.5 -47.5h10q2 7 10 45t10 46l203 741q3 14 21 14h206q23 0 23 -16q0 -4 -1.5 -9.5t-3.5 -12t-3 -9.5l-375 -1229q-3 -14 -20 -14z" />
    <glyph glyph-name="W" unicode="W" horiz-adv-x="1345" 
d="M446 0h-149q-18 0 -21 16l-260 1203q-2 9 -4.5 21.5t-4 21t-1.5 12.5q0 16 21 16h209q17 0 20 -16l119 -633q16 -110 20 -127h11q2 8 13 63.5t13 63.5l168 639q3 14 21 14h102q17 0 20 -14l168 -639q2 -8 13.5 -63.5t13.5 -63.5h10q2 8 10.5 63.5t10.5 63.5l121 633
q3 16 20 16h209q20 0 20 -16q0 -5 -10 -55l-260 -1203q-3 -16 -20 -16h-150q-17 0 -20 14l-179 619q-2 8 -12 56.5t-12 55.5h-6q-2 -8 -12.5 -56t-12.5 -56l-178 -619q-3 -14 -21 -14z" />
    <glyph glyph-name="X" unicode="X" horiz-adv-x="937" 
d="M254 0h-219q-23 0 -23 16q0 4 3 10.5t9.5 19t10.5 22.5l276 546q13 26 13 33q0 3 -11 29l-284 559q-17 34 -17 39q0 16 23 16h217q10 0 18 -12l183 -377q6 -16 18 -16t18 16l177 377q6 12 18 12h221q23 0 23 -16q0 -3 -17 -37l-280 -559q-10 -18 -10 -33q0 -13 10 -31
l276 -553q21 -42 21 -45q0 -16 -23 -16h-223q-12 0 -18 12l-175 371q-6 16 -18 16t-18 -16l-181 -371q-8 -12 -18 -12z" />
    <glyph glyph-name="Y" unicode="Y" horiz-adv-x="921" 
d="M557 0h-195q-20 0 -20 20v541q0 26 -14 55l-334 625q-14 25 -14 33q0 16 22 16h227q11 0 19 -12l194 -401q7 -17 19 -17q11 0 18 17l195 401q8 12 18 12h226q22 0 22 -16q0 -5 -14 -33l-334 -625q-14 -28 -14 -57v-539q0 -20 -21 -20z" />
    <glyph glyph-name="Z" unicode="Z" horiz-adv-x="933" 
d="M811 0h-768q-20 0 -20 16q0 7 14 39l432 965q14 28 14 39q0 16 -20 16h-373q-20 0 -20 21v174q0 20 20 20h727q21 0 21 -16q0 -2 -15 -39l-436 -969q-12 -24 -12 -35q0 -16 20 -16h416q20 0 20 -20v-175q0 -20 -20 -20z" />
    <glyph glyph-name="bracketleft" unicode="[" horiz-adv-x="806" 
d="M618 -352h-368q-21 0 -21 20v1796q0 21 21 21h368q21 0 21 -21v-174q0 -20 -21 -20h-135q-20 0 -20 -21v-1366q0 -20 20 -20h135q21 0 21 -21v-174q0 -20 -21 -20z" />
    <glyph glyph-name="backslash" unicode="\" horiz-adv-x="675" 
d="M670 0h-129q-13 0 -19 12l-526 1229q-10 20 -10 33q0 16 20 16h129q13 0 19 -12l524 -1225q12 -32 12 -37q0 -16 -20 -16z" />
    <glyph glyph-name="bracketright" unicode="]" horiz-adv-x="806" 
d="M557 -352h-369q-20 0 -20 20v174q0 21 20 21h134q20 0 20 20v1366q0 21 -20 21h-134q-20 0 -20 20v174q0 21 20 21h369q21 0 21 -21v-1796q0 -20 -21 -20z" />
    <glyph glyph-name="asciicircum" unicode="^" 
d="M41 555l399 756h152l405 -756h-215l-264 545h-6l-254 -545h-217z" />
    <glyph glyph-name="underscore" unicode="_" horiz-adv-x="471" 
d="M475 -440h-467q-20 0 -20 20v107q0 20 20 20h467q21 0 21 -20v-107q0 -20 -21 -20z" />
    <glyph glyph-name="grave" unicode="`" horiz-adv-x="1024" 
d="M612 1071h-139q-15 0 -33 14l-290 287q-15 15 -15 25q0 16 23 16h250q18 0 28 -16l185 -283q12 -20 12 -27q0 -16 -21 -16z" />
    <glyph glyph-name="a" unicode="a" horiz-adv-x="952" 
d="M463 0h-78q-123 0 -206 76.5t-83 197.5v11q0 123 82.5 198.5t206.5 75.5h197q20 0 20 21v24q0 60 -43 99.5t-106 39.5q-84 0 -150 -116q-7 -13 -16 -13q-3 0 -25 11l-156 82q-12 6 -12 14q0 15 43 82q52 77 127 116t189 39q174 0 278.5 -99.5t104.5 -260.5v-578
q0 -20 -21 -20h-174q-20 0 -20 16q0 27 -15 27q-9 0 -18 -6q-67 -37 -125 -37zM385 215h78q49 0 90 35t49 80v32h-217q-23 0 -39 -17t-16 -40v-31q0 -25 15.5 -42t39.5 -17z" />
    <glyph glyph-name="b" unicode="b" horiz-adv-x="968" 
d="M313 0h-174q-20 0 -20 20v1250q0 20 20 20h193q20 0 20 -20v-350q0 -23 17 -23q4 0 16 4q69 37 133 37q154 0 258.5 -101t104.5 -259v-216q0 -161 -104.5 -261.5t-276.5 -100.5q-66 0 -135 37q-12 4 -17 4q-14 0 -14 -23q0 -18 -21 -18zM645 362v216q0 62 -41.5 103.5
t-103.5 41.5t-105 -42t-43 -103v-216q0 -62 43.5 -104.5t104.5 -42.5q62 0 103.5 42t41.5 105z" />
    <glyph glyph-name="c" unicode="c" horiz-adv-x="878" 
d="M668 313l153 -75q13 -6 13 -17q0 -9 -31 -61q-52 -86 -129.5 -133t-202.5 -47q-173 0 -278 100.5t-105 261.5v254q0 161 105 261.5t278 100.5q125 0 202.5 -47t129.5 -133q31 -52 31 -61q0 -11 -13 -17l-153 -75q-30 -15 -35 -15q-11 0 -17 13q-50 120 -145 120
q-62 0 -104.5 -43t-42.5 -104v-254q0 -61 42.5 -104t104.5 -43q95 0 145 120q6 13 17 13q5 0 35 -15z" />
    <glyph glyph-name="d" unicode="d" horiz-adv-x="968" 
d="M831 0h-174q-20 0 -20 18q0 23 -16 23q-3 0 -15 -4q-69 -37 -135 -37q-173 0 -278 100.5t-105 261.5v216q0 157 105 258.5t258 101.5q66 0 135 -37q12 -4 14 -4q16 0 16 23v350q0 20 21 20h194q21 0 21 -20v-1250q0 -20 -21 -20zM616 362v216q0 62 -42 103.5t-103 41.5
q-63 0 -105 -41.5t-42 -103.5v-216q0 -63 42 -105t105 -42q62 0 103.5 42t41.5 105z" />
    <glyph glyph-name="e" unicode="e" horiz-adv-x="940" 
d="M668 313l153 -75q13 -6 13 -17q0 -9 -31 -61q-52 -86 -129.5 -133t-202.5 -47q-173 0 -278 100.5t-105 261.5v254q0 87 46 169t136 137.5t201 55.5q110 0 199.5 -55.5t135.5 -137.5t46 -169v-166q0 -20 -21 -20h-487q-20 0 -20 -21v-47q0 -61 42.5 -104t104.5 -43
q95 0 145 120q6 13 17 13q5 0 35 -15zM348 606h244q22 0 22 19q0 30 -38.5 74t-104.5 44q-46 0 -81 -24.5t-49.5 -50.5t-14.5 -43q0 -19 22 -19z" />
    <glyph glyph-name="f" unicode="f" horiz-adv-x="598" 
d="M362 0h-194q-21 0 -21 20v594q0 21 -20 21h-47q-21 0 -21 20v174q0 21 21 21h47q20 0 20 20v58q0 157 112 270t269 113q65 0 131 -15q17 -3 17 -16q0 -11 -8 -31l-56 -151q-4 -17 -16 -17l-23 7q-23 8 -45 8q-63 0 -104 -42.5t-41 -105.5v-78q0 -20 20 -20h134
q20 0 20 -21v-174q0 -20 -20 -20h-134q-20 0 -20 -21v-594q0 -20 -21 -20z" />
    <glyph glyph-name="g" unicode="g" horiz-adv-x="940" 
d="M645 -461h-262q-129 0 -212 67.5t-83 186.5v60q0 117 105 198q8 8 8 17q0 6 -9.5 19t-19.5 37.5t-10 57.5q0 29 7 53t15.5 36.5t15.5 22.5t7 13q0 9 -6 15q-113 110 -113 247v29q0 156 108.5 248t274.5 92q47 0 113 -27q33 -14 37 -14q16 0 16 23q0 18 20 18h174
q21 0 21 -20v-338q0 -157 -109 -256t-272 -99h-49q-16 0 -28.5 -16t-12.5 -41q0 -28 12.5 -45t32.5 -17h219q130 0 212.5 -66.5t82.5 -186.5v-60q0 -119 -83 -186.5t-212 -67.5zM616 569v29q0 61 -41.5 101t-103.5 40q-63 0 -105 -40t-42 -101v-29q0 -59 41.5 -96t105.5 -37
q63 0 104 36.5t41 96.5zM383 -266h262q26 0 43 17.5t17 41.5v60q0 26 -17 42.5t-43 16.5h-262q-26 0 -42.5 -16.5t-16.5 -42.5v-60q0 -24 16.5 -41.5t42.5 -17.5z" />
    <glyph glyph-name="h" unicode="h" horiz-adv-x="989" 
d="M332 0h-193q-20 0 -20 20v1250q0 20 20 20h193q20 0 20 -20v-350q0 -23 17 -23q2 0 14 4q69 37 135 37q155 0 259 -101t104 -259v-558q0 -20 -21 -20h-194q-21 0 -21 20v558q0 62 -41.5 103.5t-103.5 41.5t-105 -42t-43 -103v-558q0 -20 -20 -20z" />
    <glyph glyph-name="i" unicode="i" horiz-adv-x="471" 
d="M373 1174q0 -56 -41 -97t-96 -41q-56 0 -97 41t-41 97q0 55 41 96t97 41t96.5 -40.5t40.5 -96.5zM332 0h-193q-20 0 -20 20v898q0 20 20 20h193q20 0 20 -20v-898q0 -20 -20 -20z" />
    <glyph glyph-name="j" unicode="j" horiz-adv-x="471" 
d="M373 1174q0 -56 -41 -97t-96 -41q-56 0 -97 41t-41 97q0 55 41 96t97 41t96.5 -40.5t40.5 -96.5zM-57 -461v174q0 21 18 21q76 6 117 46.5t41 98.5v1039q0 20 20 20h193q20 0 20 -20v-1020q0 -114 -62 -205t-171 -137q-91 -37 -156 -37q-20 0 -20 20z" />
    <glyph glyph-name="k" unicode="k" horiz-adv-x="919" 
d="M332 0h-193q-20 0 -20 20v1250q0 20 20 20h193q20 0 20 -20v-561q0 -10 5.5 -16.5t13.5 -6.5t16 8l209 230q14 14 29 14h237q23 0 23 -16q0 -11 -8 -19l-275 -280q-12 -15 -12 -25q0 -8 12 -29l326 -526q12 -20 12 -27q0 -16 -22 -16h-240q-12 0 -19 10l-235 387
q-6 13 -16 13q-8 0 -17 -9l-29 -28q-10 -10 -10 -23v-330q0 -20 -20 -20z" />
    <glyph glyph-name="l" unicode="l" horiz-adv-x="471" 
d="M332 0h-193q-20 0 -20 20v1250q0 20 20 20h193q20 0 20 -20v-1250q0 -20 -20 -20z" />
    <glyph glyph-name="m" unicode="m" horiz-adv-x="1447" 
d="M332 0h-193q-20 0 -20 20v898q0 20 20 20h174q21 0 21 -20v-3q0 -22 16 -22q3 0 15 4q74 41 135 41q131 0 211 -74q6 -6 14 -6t14 6q38 36 100.5 55t129.5 19q157 0 259.5 -101t102.5 -259v-558q0 -20 -20 -20h-195q-20 0 -20 20v558q0 59 -39.5 102t-87.5 43
q-46 0 -86.5 -43.5t-40.5 -101.5v-558q0 -20 -21 -20h-194q-21 0 -21 20v558q0 59 -39.5 102t-87.5 43q-45 0 -86 -43.5t-41 -101.5v-558q0 -20 -20 -20z" />
    <glyph glyph-name="n" unicode="n" horiz-adv-x="999" 
d="M332 0h-193q-20 0 -20 20v898q0 20 20 20h174q21 0 21 -18q0 -23 16 -23q3 0 15 4q69 37 135 37q172 0 276.5 -99.5t104.5 -260.5v-558q0 -20 -21 -20h-194q-21 0 -21 20v558q0 62 -41.5 103.5t-103.5 41.5t-105 -42t-43 -103v-558q0 -20 -20 -20z" />
    <glyph glyph-name="o" unicode="o" horiz-adv-x="940" 
d="M88 342v254q0 161 105 261.5t278 100.5q172 0 276.5 -100.5t104.5 -261.5v-254q0 -161 -104.5 -261.5t-276.5 -100.5q-173 0 -278 100.5t-105 261.5zM616 342v254q0 62 -42 104.5t-103 42.5q-62 0 -104.5 -43t-42.5 -104v-254q0 -61 42.5 -104t104.5 -43q61 0 103 42.5
t42 104.5z" />
    <glyph glyph-name="p" unicode="p" horiz-adv-x="968" 
d="M332 -461h-193q-20 0 -20 21v1358q0 20 20 20h174q21 0 21 -18q0 -23 16 -23q3 0 15 4q69 37 135 37q172 0 276.5 -99.5t104.5 -260.5v-216q0 -158 -104.5 -260t-258.5 -102q-66 0 -135 37q-12 4 -14 4q-17 0 -17 -23v-458q0 -21 -20 -21zM645 362v216q0 62 -41.5 103.5
t-103.5 41.5t-105 -42t-43 -103v-216q0 -62 43.5 -104.5t104.5 -42.5q62 0 103.5 42t41.5 105z" />
    <glyph glyph-name="q" unicode="q" horiz-adv-x="968" 
d="M831 -461h-194q-21 0 -21 21v458q0 23 -16 23q-2 0 -14 -4q-69 -37 -135 -37q-153 0 -258 102t-105 260v216q0 161 104.5 260.5t278.5 99.5q66 0 135 -37q12 -4 15 -4q16 0 16 23q0 18 20 18h174q21 0 21 -20v-1358q0 -21 -21 -21zM616 362v216q0 62 -42 103.5t-103 41.5
q-63 0 -105 -41.5t-42 -103.5v-216q0 -63 42 -105t105 -42q62 0 103.5 42t41.5 105z" />
    <glyph glyph-name="r" unicode="r" horiz-adv-x="622" 
d="M332 0h-193q-20 0 -20 20v898q0 20 20 20h174q12 0 16.5 -3.5t4.5 -14.5v-29q0 -9 5 -15t11 -6q8 0 15 7q18 20 64 40.5t91 20.5q34 0 58 -6q16 -3 16 -21v-206q0 -10 -6.5 -16.5t-14.5 -6.5q-2 0 -25 9t-48 9q-63 0 -105.5 -41t-42.5 -102v-537q0 -20 -20 -20z" />
    <glyph glyph-name="s" unicode="s" horiz-adv-x="923" 
d="M479 -20h-59q-216 0 -318 161q-36 59 -36 78q0 11 12 17l147 71q24 12 31 12q10 0 16 -14q23 -57 62.5 -87t85.5 -30h59q56 0 87.5 26t31.5 62q0 22 -11.5 37t-36.5 23.5t-48 13t-63.5 10.5t-65.5 11q-51 10 -88.5 21t-79 32t-68 48.5t-44 70.5t-17.5 98q0 145 100 231
t244 86h59q214 0 314 -151q43 -67 43 -86q0 -9 -13 -16l-155 -76q-16 -8 -23 -8q-10 0 -16 12q-22 57 -63 87t-87 30h-59q-113 0 -113 -78q0 -22 11.5 -37.5t36.5 -24.5t47.5 -13.5t63 -11.5t64.5 -12q51 -11 88.5 -22t80 -32t69.5 -48t45 -69.5t18 -96.5q0 -138 -93 -231.5
t-259 -93.5z" />
    <glyph glyph-name="t" unicode="t" horiz-adv-x="657" 
d="M567 176v-176q0 -20 -20 -20q-86 0 -174 36q-105 42 -160 127t-55 199v360q0 21 -21 21h-106q-21 0 -21 18q0 1 4 111l236 250q12 12 24 12h97q20 0 20 -20v-136q0 -20 21 -20h135q20 0 20 -20v-175q0 -20 -20 -20h-135q-21 0 -21 -21v-360q0 -58 41 -98.5t117 -46.5
q18 0 18 -21z" />
    <glyph glyph-name="u" unicode="u" horiz-adv-x="978" 
d="M840 0h-174q-21 0 -21 18q0 23 -16 23q-3 0 -15 -4q-69 -37 -135 -37q-172 0 -276.5 100.5t-104.5 261.5v556q0 20 21 20h194q21 0 21 -20v-556q0 -63 41.5 -105t103.5 -42q61 0 104.5 42.5t43.5 104.5v556q0 20 20 20h193q20 0 20 -20v-898q0 -20 -20 -20z" />
    <glyph glyph-name="v" unicode="v" horiz-adv-x="880" 
d="M514 0h-147q-13 0 -19 12l-352 873q-12 32 -12 37q0 16 20 16h207q12 0 18 -12l185 -473q18 -53 22 -91h8q4 33 23 91l184 473q6 12 19 12h209q20 0 20 -16q0 -10 -10 -33l-357 -877q-6 -12 -18 -12z" />
    <glyph glyph-name="w" unicode="w" horiz-adv-x="1226" 
d="M442 0h-143q-17 0 -20 14l-261 856q-14 44 -14 52q0 16 23 16h200q18 0 21 -14l100 -389q11 -40 21 -127h8q12 60 29 124l104 392q3 14 20 14h172q18 0 21 -14l102 -392q17 -63 29 -126h8q8 70 23 129l98 389q3 14 21 14h198q23 0 23 -16q0 -7 -15 -52l-262 -856
q-3 -14 -20 -14h-142q-17 0 -20 14l-123 432q-15 54 -25 111h-8q-6 -35 -26 -111l-121 -432q-3 -14 -21 -14z" />
    <glyph glyph-name="x" unicode="x" horiz-adv-x="837" 
d="M227 0h-196q-23 0 -23 16q0 5 19 39l223 383q12 21 12 33q0 11 -14 33l-256 391q-12 20 -12 27q0 16 20 16h229q10 0 17 -10l155 -250q6 -12 15 -12q10 0 16 12l158 250q7 10 16 10h232q22 0 22 -16q0 -8 -14 -29l-260 -395q-13 -20 -13 -27q0 -10 13 -29l260 -399
q12 -18 12 -27q0 -16 -20 -16h-230q-11 0 -18 10l-154 248q-11 14 -18 14q-8 0 -19 -14l-153 -248q-7 -10 -19 -10z" />
    <glyph glyph-name="y" unicode="y" horiz-adv-x="978" 
d="M131 -225l164 82q13 8 22 8q11 0 17 -12q48 -119 145 -119q60 0 104 43.5t44 103.5v127q0 23 -15 23q-6 0 -14 -4q-58 -27 -119 -27q-172 0 -276.5 100.5t-104.5 261.5v556q0 20 21 20h194q21 0 21 -20v-556q0 -63 41.5 -105t103.5 -42q61 0 104.5 42.5t43.5 104.5v556
q0 20 20 20h193q20 0 20 -20v-1018q0 -170 -99 -275.5t-282 -105.5q-210 0 -313 149q-47 64 -47 90q0 11 12 17z" />
    <glyph glyph-name="z" unicode="z" horiz-adv-x="880" 
d="M799 0h-762q-23 0 -23 16q0 4 23 45l356 594q25 41 25 50q0 16 -23 16h-315q-21 0 -21 20v174q0 21 21 21h727q22 0 22 -16q0 -11 -24 -50l-359 -594q-22 -36 -22 -45q0 -16 22 -16h353q20 0 20 -20v-175q0 -20 -20 -20z" />
    <glyph glyph-name="braceleft" unicode="{" horiz-adv-x="856" 
d="M705 -156v-176q0 -20 -21 -20q-85 0 -178 39q-103 44 -157 132.5t-54 209.5v284q0 58 -41 98t-117 46q-18 0 -18 20v178q0 21 18 21q76 6 117 46.5t41 98.5v283q0 123 54.5 211.5t158.5 132.5q86 37 176 37q21 0 21 -21v-176q0 -20 -19 -20q-76 -6 -117 -46t-41 -98v-323
q0 -55 -31.5 -116t-76.5 -105q-8 -5 -8 -15q0 -6 8 -14q44 -44 76 -110.5t32 -121.5v-309q0 -58 41 -98.5t117 -46.5q19 0 19 -21z" />
    <glyph glyph-name="bar" unicode="|" horiz-adv-x="512" 
d="M168 -512v2048h176v-2048h-176z" />
    <glyph glyph-name="braceright" unicode="}" horiz-adv-x="856" 
d="M152 -332v176q0 21 18 21q76 6 117 46.5t41 98.5v309q0 55 32 121.5t76 110.5q8 8 8 14q0 10 -8 15q-45 44 -76.5 105t-31.5 116v323q0 58 -41 98t-117 46q-18 0 -18 20v176q0 21 20 21q90 0 176 -37q104 -44 158.5 -132.5t54.5 -211.5v-283q0 -58 41 -98.5t117 -46.5
q18 0 18 -21v-178q0 -20 -18 -20q-76 -6 -117 -46t-41 -98v-284q0 -121 -54 -209.5t-157 -132.5q-93 -39 -178 -39q-20 0 -20 20z" />
    <glyph glyph-name="asciitilde" unicode="~" 
d="M170 342l-115 131q54 83 118 129.5t153 46.5q107 0 206 -61q107 -66 177 -66q90 0 161 131l115 -129q-55 -87 -118.5 -132.5t-149.5 -45.5q-108 0 -211 64q-97 65 -174 65q-88 0 -162 -133z" />
    <glyph glyph-name="uni00A0" unicode="&#xa0;" 
 />
    <glyph glyph-name="exclamdown" unicode="&#xa1;" horiz-adv-x="626" 
d="M451 821q0 -55 -41 -96t-97 -41q-55 0 -96 41t-41 96t41 96t96 41q56 0 97 -41t41 -96zM410 -352h-193q-20 0 -20 20v535l43 364q3 19 20 19h102q18 0 21 -19l47 -364v-535q0 -20 -20 -20z" />
    <glyph glyph-name="cent" unicode="&#xa2;" 
d="M608 -123h-106q-21 0 -21 21v116q0 21 -20 21q-158 13 -250 111t-92 249v254q0 151 92 249.5t250 111.5q20 0 20 20v117q0 20 21 20h106q21 0 21 -20v-115q0 -20 16 -20q192 -10 293 -158q43 -62 43 -80q0 -12 -12 -18l-154 -76q-23 -14 -35 -14q-10 0 -16 12
q-30 64 -70 96q-30 23 -49 23q-16 0 -16 -25v-500q0 -20 14 -20q10 0 30.5 11t33.5 22q34 31 57 86q6 12 16 12t35 -14l154 -76q12 -6 12 -19q0 -12 -39 -73q-48 -75 -118 -118t-179 -50q-16 0 -16 -21v-114q0 -21 -21 -21zM481 274v496q0 25 -18 25q-19 0 -51 -25
q-58 -45 -58 -121v-254q0 -80 62 -123q8 -6 24 -13t23 -7q18 0 18 22z" />
    <glyph glyph-name="sterling" unicode="&#xa3;" 
d="M909 0h-897q-20 0 -20 20v175q0 20 20 20h115q56 9 92.5 50t36.5 97v164q0 21 -20 21h-48q-20 0 -20 20v174q0 21 20 21h48q20 0 20 20v146q0 157 112 270t269 113q199 0 307 -144q55 -72 55 -96q0 -12 -12 -18l-147 -74q-37 -16 -41 -16q-11 0 -17 12q-51 121 -145 121
q-60 0 -104 -44t-44 -104v-166q0 -20 21 -20h135q21 0 21 -21v-174q0 -20 -21 -20h-135q-21 0 -21 -21v-184q0 -31 -11 -69t-11 -40q0 -18 20 -18h422q21 0 21 -20v-175q0 -20 -21 -20z" />
    <glyph glyph-name="currency" unicode="&#xa4;" horiz-adv-x="1259" 
d="M1092 358q-55 -54 -107 -110q-16 16 -44.5 44t-51.5 51t-43 44q-109 -76 -238 -76q-136 0 -237 76q-12 -12 -63 -62t-77 -77q-19 18 -54.5 54.5t-53.5 55.5q24 21 70.5 66.5t70.5 67.5q-74 112 -74 233q0 129 74 233q-23 22 -70 68t-71 68q18 19 53.5 55.5t54.5 54.5
q26 -27 77 -77t63 -62q108 74 237 74q134 0 236 -74q24 24 71 70t70 69q52 -56 107 -110q-24 -23 -71.5 -68.5t-70.5 -67.5q76 -108 76 -233q0 -120 -76 -233q23 -21 71 -67t71 -67zM872 727q0 112 -80 187t-184 75q-112 0 -189 -77.5t-77 -184.5t78.5 -185.5t187.5 -78.5
t186.5 77.5t77.5 186.5z" />
    <glyph glyph-name="yen" unicode="&#xa5;" 
d="M616 0h-194q-21 0 -21 20v136q0 20 -20 20h-291q-20 0 -20 21v155q0 21 20 21h291q20 0 20 20v94q0 21 -20 21h-291q-20 0 -20 20v156q0 21 20 21h215q23 0 23 16q0 5 -13 31l-264 491q-12 21 -12 31q0 16 22 16h226q10 0 18 -12l195 -401q7 -17 18 -17q12 0 19 17
l194 401q8 12 19 12h227q22 0 22 -16q0 -5 -18 -41l-256 -479q-14 -28 -14 -33q0 -16 22 -16h215q21 0 21 -21v-156q0 -20 -21 -20h-291q-20 0 -20 -21v-94q0 -20 20 -20h291q21 0 21 -21v-155q0 -21 -21 -21h-291q-20 0 -20 -20v-136q0 -20 -21 -20z" />
    <glyph glyph-name="brokenbar" unicode="&#xa6;" horiz-adv-x="512" 
d="M168 752v733h176v-733h-176zM168 -352v733h176v-733h-176z" />
    <glyph glyph-name="section" unicode="&#xa7;" 
d="M551 -481h-82q-219 0 -324 166q-39 67 -39 75t13 15l164 84q20 10 24 10q11 0 17 -14q51 -121 145 -121h82q61 0 103 42.5t42 104.5q0 55 -31 97t-80 70t-109 54t-119.5 58t-108.5 72t-80 105.5t-31 149.5v41q0 102 43 181q13 23 13 28q0 6 -13 29q-43 73 -43 182
q0 161 104.5 262t276.5 101h33q218 0 323 -166q39 -67 39 -76q0 -8 -12 -14l-164 -84q-20 -10 -24 -10q-11 0 -17 14q-51 121 -145 121h-33q-61 0 -103 -43t-42 -105q0 -49 31 -86.5t80 -63.5t108.5 -51.5t119.5 -59t109 -76t80 -111.5t31 -158v-41q0 -91 -43 -172
q-15 -30 -15 -31q0 -5 11 -24q47 -86 47 -193q0 -161 -104.5 -261.5t-276.5 -100.5zM696 287v55q0 24 -7 45.5t-15.5 37t-29.5 33t-33 26.5t-43.5 24.5t-44 21t-51.5 21t-50 20.5q-28 11 -31 11q-18 0 -18 -31v-64q0 -28 12 -52t26.5 -39.5t47 -33.5t52.5 -27t65.5 -27.5
t64.5 -26.5q34 -15 39 -15q16 0 16 21z" />
    <glyph glyph-name="dieresis" unicode="&#xa8;" horiz-adv-x="1024" 
d="M811 1219q0 -54 -36.5 -90.5t-90.5 -36.5t-90.5 36.5t-36.5 90.5t36.5 90.5t90.5 36.5t90.5 -36.5t36.5 -90.5zM465 1219q0 -54 -36.5 -90.5t-90.5 -36.5t-90.5 36.5t-36.5 90.5t36.5 90.5t90.5 36.5t90.5 -36.5t36.5 -90.5z" />
    <glyph glyph-name="copyright" unicode="&#xa9;" horiz-adv-x="1447" 
d="M901 -123h-352q-173 0 -277 101t-104 262v565q0 161 104 261.5t277 100.5h352q172 0 276.5 -100.5t104.5 -261.5v-565q0 -161 -104.5 -262t-276.5 -101zM549 25h352q105 0 169.5 59.5t64.5 155.5v565q0 96 -64.5 155.5t-169.5 59.5h-352q-107 0 -171.5 -59.5
t-64.5 -155.5v-565q0 -96 64.5 -155.5t171.5 -59.5zM885 403l86 -43q12 -6 12 -18q0 -24 -45 -76q-76 -92 -215 -92q-125 0 -202 73t-77 191v193q0 118 76.5 189t202.5 71q136 0 217 -94q43 -49 43 -68q0 -12 -12 -18l-82 -41q-30 -15 -33 -15q-9 0 -16 11q-55 79 -117 79
q-50 0 -83.5 -32.5t-33.5 -81.5v-193q0 -49 33.5 -81.5t83.5 -32.5q60 0 117 82q7 10 16 10q3 0 29 -13z" />
    <glyph glyph-name="ordfeminine" unicode="&#xaa;" horiz-adv-x="677" 
d="M324 618h-43q-91 0 -152 57t-61 146v6q0 92 61 147.5t152 55.5h127q14 0 14 14v9q0 37 -27 61.5t-65 24.5q-54 0 -99 -76q-7 -14 -18 -14q-5 0 -33 14l-100 51q-14 6 -14 19q0 15 30 63q73 115 232 115q126 0 202 -73t76 -191v-404q0 -25 -24 -25h-121q-21 0 -21 27
q0 19 -10 19q-9 0 -20 -11q-38 -35 -86 -35zM281 788h61q31 0 53.5 18.5t26.5 47.5v6q0 12 -12 12h-129q-11 0 -20 -9t-9 -21v-21q0 -12 8.5 -22.5t20.5 -10.5z" />
    <glyph glyph-name="guillemotleft" unicode="&#xab;" horiz-adv-x="1175" 
d="M1022 172l-444 313q-9 9 -9 17v145q0 8 9 17l444 315q9 6 16 6q17 0 17 -22v-183q0 -8 -8 -16l-242 -172q-10 -7 -10 -17q0 -6 10 -16l242 -174q8 -8 8 -16v-181q0 -22 -17 -22q-7 0 -16 6zM549 172l-443 313q-8 8 -8 17v145q0 9 8 17l443 315q9 6 16 6q17 0 17 -22v-183
q0 -7 -9 -16l-241 -172q-10 -7 -10 -17q0 -6 10 -16l241 -174q9 -9 9 -16v-181q0 -22 -17 -22q-7 0 -16 6z" />
    <glyph glyph-name="logicalnot" unicode="&#xac;" 
d="M938 236h-154q-20 0 -20 20v309q0 21 -21 21h-643q-20 0 -20 20v135q0 21 20 21h838q20 0 20 -21v-485q0 -20 -20 -20z" />
    <glyph glyph-name="uni00AD" unicode="&#xad;" horiz-adv-x="569" 
d="M469 352h-369q-20 0 -20 21v192q0 21 20 21h369q20 0 20 -21v-192q0 -21 -20 -21z" />
    <glyph glyph-name="registered" unicode="&#xae;" horiz-adv-x="942" 
d="M475 553h-8q-167 0 -268 96.5t-101 251.5v41q0 155 101 251.5t268 96.5h8q167 0 268 -96.5t101 -251.5v-41q0 -155 -101 -251.5t-268 -96.5zM467 614h8q139 0 223 79.5t84 207.5v41q0 128 -84 207.5t-223 79.5h-8q-139 0 -223 -79.5t-84 -207.5v-41q0 -128 84 -207.5
t223 -79.5zM387 737h-22q-21 0 -21 21v344q0 20 21 20h129q58 0 93.5 -35t35.5 -94v-8q0 -24 -16 -50t-38 -42q-8 -5 -8 -14q0 -7 10 -27l35 -70q12 -21 12 -28q0 -17 -22 -17h-33q-11 0 -18 13l-47 108q-6 12 -19 12h-51q-20 0 -20 -20v-92q0 -21 -21 -21zM428 928h66
q28 0 45.5 18.5t17.5 46.5v6q0 28 -18 47t-45 19h-66q-20 0 -20 -21v-96q0 -20 20 -20z" />
    <glyph glyph-name="macron" unicode="&#xaf;" horiz-adv-x="1024" 
d="M745 1104h-466q-21 0 -21 20v174q0 21 21 21h466q21 0 21 -21v-174q0 -20 -21 -20z" />
    <glyph glyph-name="degree" unicode="&#xb0;" horiz-adv-x="600" 
d="M94 899v191q0 88 56 144t149 56q94 0 150.5 -53.5t56.5 -140.5v-197q0 -87 -56.5 -140.5t-150.5 -53.5q-93 0 -149 53.5t-56 140.5zM340 899v197q0 15 -13 27t-28 12q-17 0 -28 -11t-11 -28v-197q0 -17 11 -28t28 -11q15 0 28 12t13 27z" />
    <glyph glyph-name="plusminus" unicode="&#xb1;" 
d="M586 311h-135q-21 0 -21 21v309q0 21 -20 21h-310q-20 0 -20 20v135q0 21 20 21h310q20 0 20 20v311q0 21 21 21h135q20 0 20 -21v-311q0 -20 21 -20h311q20 0 20 -21v-135q0 -20 -20 -20h-311q-21 0 -21 -21v-309q0 -21 -20 -21zM938 0h-838q-20 0 -20 20v136
q0 20 20 20h838q20 0 20 -20v-136q0 -20 -20 -20z" />
    <glyph glyph-name="two.superior" unicode="&#xb2;" horiz-adv-x="686" 
d="M600 713h-508q-14 0 -14 12v106q0 43 8 79t19 61t31.5 45.5t37.5 32.5t43.5 23t44 16t45.5 12q28 6 36.5 8t30 8t29 10.5t18.5 12.5t15 18t4 23q0 35 -22 55t-62 20h-49q-51 0 -98 -75q-11 -11 -14 -11q-5 0 -31 13l-113 51q-6 6 -6 12t2 10q43 80 102.5 121t153.5 41h53
q122 0 194.5 -69t72.5 -179q0 -30 -8.5 -56t-19 -43.5t-33.5 -34t-36.5 -25t-45.5 -19t-43.5 -13.5t-45.5 -11l-4.5 -1.5t-3.5 -1l-4 -1t-4 -0.5q-35 -9 -53 -15t-34 -19t-16 -30v-12q0 -13 17 -13h311q12 0 12 -12v-137q0 -12 -12 -12z" />
    <glyph glyph-name="three.superior" unicode="&#xb3;" horiz-adv-x="686" 
d="M342 702h-31q-80 0 -128.5 26t-88.5 73q-11 12 -25 35.5t-14 31.5q0 12 25 23q10 4 39.5 15t52.5 19.5t27 8.5q2 0 4 -0.5t3.5 -1.5t3.5 -3.5t3 -4.5t3.5 -6t4.5 -7q26 -47 90 -47h31q90 0 90 45v35q0 26 -21 34.5t-69 8.5h-117q-14 0 -19 5t-5 22v114q0 13 5 17t19 4
h117q47 0 68.5 10.5t21.5 36.5v14q0 25 -22.5 35t-67.5 10h-31q-63 0 -98 -61q-6 -6 -12 -6q-3 0 -21 6l-112 51q-13 4 -13 17q0 20 37 63q84 92 219 92h31q123 0 196.5 -58.5t73.5 -158.5v-14q0 -59 -61 -117q61 -64 61 -121v-30q0 -99 -73.5 -157.5t-196.5 -58.5z" />
    <glyph glyph-name="acute" unicode="&#xb4;" horiz-adv-x="1024" 
d="M551 1071h-139q-21 0 -21 16q0 7 12 27l185 283q10 16 28 16h250q23 0 23 -16q0 -10 -15 -25l-290 -287q-18 -14 -33 -14z" />
    <glyph glyph-name="mu" unicode="&#xb5;" horiz-adv-x="978" 
d="M313 -328h-194q-21 0 -21 21v1225q0 20 21 20h194q21 0 21 -20v-556q0 -63 41.5 -105t103.5 -42q61 0 104.5 42.5t43.5 104.5v556q0 20 20 20h193q20 0 20 -20v-898q0 -20 -20 -20h-174q-21 0 -21 18q0 23 -16 23q-3 0 -15 -4q-69 -37 -135 -37q-63 0 -125 16
q-20 6 -20 -16v-307q0 -21 -21 -21z" />
    <glyph glyph-name="paragraph" unicode="&#xb6;" horiz-adv-x="1304" 
d="M733 -461h-194q-21 0 -21 21v596q0 20 -20 20h-9q-171 0 -275.5 102.5t-104.5 258.5v372q0 173 103 277t277 104h658q20 0 20 -20v-1710q0 -21 -20 -21h-195q-20 0 -20 21v1495q0 20 -21 20h-137q-20 0 -20 -20v-1495q0 -21 -21 -21z" />
    <glyph glyph-name="periodcentered" unicode="&#xb7;" 
d="M657 498q0 -56 -41 -97t-96 -41q-56 0 -97.5 41.5t-41.5 96.5q0 56 40.5 96.5t96.5 40.5t97.5 -41t41.5 -96z" />
    <glyph glyph-name="cedilla" unicode="&#xb8;" horiz-adv-x="1024" 
d="M469 -440h-121q-20 0 -20 20v135q0 21 20 21h121q14 0 25.5 11t11.5 24v16q0 13 -12 25t-25 12h-82q-20 0 -20 16q0 9 16 41l104 219q7 13 19 13q3 0 8.5 -1.5t15 -3.5t17.5 -4l90 -20q18 -3 18 -16q0 -7 -10 -27l-33 -66q-10 -25 -10 -26q0 -10 8 -15q86 -47 86 -147
v-16q0 -94 -65 -152.5t-162 -58.5z" />
    <glyph glyph-name="one.superior" unicode="&#xb9;" horiz-adv-x="686" 
d="M606 713h-479q-12 0 -12 12v137q0 12 12 12h131q16 0 16 15v213q0 8 -8 8q-4 0 -8 -2l-33 -27q-12 -12 -18 -12q-8 0 -12 4l-89 80q-14 14 -14 18q0 7 4 11l246 229q12 6 18 6h86q13 0 13 -14v-514q0 -15 18 -15h129q12 0 12 -12v-137q0 -12 -12 -12z" />
    <glyph glyph-name="ordmasculine" unicode="&#xba;" horiz-adv-x="657" 
d="M51 868v179q0 117 76.5 190.5t202.5 73.5q125 0 200.5 -73.5t75.5 -190.5v-179q0 -118 -75.5 -191t-200.5 -73q-127 0 -203 73t-76 191zM422 868v179q0 38 -27 65t-65 27q-39 0 -65.5 -27.5t-26.5 -64.5v-179q0 -38 26.5 -66t65.5 -28q38 0 65 28t27 66z" />
    <glyph glyph-name="guillemotright" unicode="&#xbb;" horiz-adv-x="1175" 
d="M594 188v181q0 8 8 16l242 174q10 10 10 16q0 10 -10 17l-242 172q-8 8 -8 16v183q0 22 16 22q8 0 17 -6l442 -315q8 -8 8 -17v-145q0 -9 -8 -17l-442 -313q-9 -6 -17 -6q-16 0 -16 22zM121 188v181q0 8 8 16l240 174q10 10 10 16q0 7 -10 17l-240 172q-8 8 -8 16v183
q0 22 16 22q8 0 17 -6l442 -315q8 -8 8 -17v-145q0 -9 -8 -17l-442 -313q-9 -6 -17 -6q-16 0 -16 22z" />
    <glyph glyph-name="onequarter" unicode="&#xbc;" horiz-adv-x="1767" 
d="M606 514h-479q-12 0 -12 12v138q0 12 12 12h131q16 0 16 14v213q0 8 -8 8q-4 0 -8 -2l-33 -26q-13 -13 -18 -13q-8 0 -12 4l-89 80q-14 14 -14 19q0 6 4 10l246 229q14 7 18 7h86q13 0 13 -15v-514q0 -14 18 -14h129q12 0 12 -12v-138q0 -12 -12 -12zM1589 0h-133
q-22 0 -22 39v80q0 20 -19 20h-274q-23 0 -23 29v113l324 399q14 14 18 14h129q25 0 25 -20v-359q0 -12 12 -12h82q23 0 23 -39v-86q0 -39 -23 -39h-82q-8 0 -10 -2.5t-2 -11.5v-86q0 -23 -5.5 -31t-19.5 -8zM1346 303h75q9 0 11 3t2 13v99q0 10 -4 10t-15 -14l-69 -90
q-11 -15 -11 -17q0 -4 11 -4zM705 0h-111q-21 0 -21 16q0 2 13 37l524 1225q6 12 18 12h111q21 0 21 -16q0 -11 -11 -33l-526 -1229q-6 -12 -18 -12z" />
    <glyph glyph-name="onehalf" unicode="&#xbd;" horiz-adv-x="1767" 
d="M606 514h-479q-12 0 -12 12v138q0 12 12 12h131q16 0 16 14v213q0 8 -8 8q-4 0 -8 -2l-33 -26q-13 -13 -18 -13q-8 0 -12 4l-89 80q-14 14 -14 19q0 6 4 10l246 229q14 7 18 7h86q13 0 13 -15v-514q0 -14 18 -14h129q12 0 12 -12v-138q0 -12 -12 -12zM1681 0h-507
q-15 0 -15 12v107q0 43 8 79t19.5 61t31.5 45.5t37 32.5t44.5 22.5t44 15.5t45.5 12q28 6 36.5 8t30 8t29 10.5t18.5 12.5t15 18t4 23q0 35 -22 55.5t-62 20.5h-49q-51 0 -99 -76q-10 -10 -14 -10q-7 0 -31 12l-112 51q-7 7 -7 12q0 7 2 11q43 80 102.5 121t153.5 41h54
q122 0 194 -69t72 -179q0 -42 -15 -75t-38 -53t-55.5 -35.5t-62 -24t-63.5 -16.5q-9 -2 -14 -3q-26 -7 -40 -11t-30.5 -12t-24 -18t-7.5 -23v-12q0 -12 16 -12h311q13 0 13 -12v-138q0 -12 -13 -12zM684 0h-111q-20 0 -20 16q0 5 12 37l525 1225q6 12 18 12h111q20 0 20 -16
q0 -13 -10 -33l-527 -1229q-6 -12 -18 -12z" />
    <glyph glyph-name="threequarters" unicode="&#xbe;" horiz-adv-x="1767" 
d="M342 504h-31q-80 0 -128.5 25.5t-88.5 72.5q-10 12 -24.5 36t-14.5 32q0 11 25 22q10 4 39.5 15t52.5 19.5t27 8.5q2 0 3.5 -0.5t3.5 -1.5l3 -1.5t2.5 -3t2.5 -4t3.5 -5.5t3.5 -6q26 -47 90 -47h31q90 0 90 45v34q0 26 -21 34.5t-69 8.5h-117q-14 0 -19 5t-5 22v115
q0 13 5 16.5t19 3.5h117q47 0 68.5 10.5t21.5 36.5v15q0 25 -22.5 35t-67.5 10h-31q-62 0 -98 -62q-6 -6 -12 -6q-3 0 -21 6l-112 52q-13 4 -13 16q0 20 37 63q39 43 89.5 68t129.5 25h31q123 0 196.5 -59t73.5 -159v-14q0 -59 -61 -117q61 -64 61 -120v-31q0 -99 -73 -157
t-197 -58zM1589 0h-133q-22 0 -22 39v80q0 20 -19 20h-274q-23 0 -23 29v113l324 399q14 14 18 14h129q25 0 25 -20v-359q0 -12 12 -12h82q23 0 23 -39v-86q0 -39 -23 -39h-82q-8 0 -10 -2.5t-2 -11.5v-86q0 -23 -5.5 -31t-19.5 -8zM1346 303h75q9 0 11 3t2 13v99
q0 10 -4 10t-15 -14l-69 -90q-11 -15 -11 -17q0 -4 11 -4zM684 0h-111q-20 0 -20 16q0 5 12 37l525 1225q6 12 18 12h111q20 0 20 -16q0 -13 -10 -33l-527 -1229q-6 -12 -18 -12z" />
    <glyph glyph-name="questiondown" unicode="&#xbf;" horiz-adv-x="972" 
d="M698 821q0 -55 -41 -96t-96 -41t-96 41t-41 96t41 96t96 41t96 -41t41 -96zM555 -373h-74q-172 0 -276.5 101t-104.5 262q0 67 15.5 120t38 86.5t58 61t65 43.5t69.5 34q8 3 12 5q32 16 46.5 24t35 25t29 37.5t8.5 48.5q0 29 -6 60t-6 34q0 17 20 17h195q17 0 20 -17
q13 -84 13 -123q0 -64 -18.5 -112t-55.5 -81.5t-69 -53t-82 -44.5q-14 -7 -21 -10q-32 -16 -51 -27.5t-40 -30t-30.5 -42.5t-9.5 -55q0 -62 42 -105t103 -43h74q94 0 145 121q6 14 17 14q4 0 24 -10l164 -84q13 -7 13 -14q0 -9 -39 -76q-105 -166 -324 -166z" />
    <glyph glyph-name="Agrave" unicode="&#xc0;" horiz-adv-x="921" 
d="M211 0h-205q-22 0 -22 16q0 4 1.5 9t4 13.5t4.5 14.5l373 1223q3 14 20 14h148q17 0 20 -14l373 -1223q10 -30 10 -37q0 -16 -23 -16h-206q-18 0 -21 14l-61 215q-3 13 -21 13h-293q-17 0 -20 -13l-62 -215q-3 -14 -20 -14zM385 457h150q22 0 22 18q0 9 -10 39l-60 240
q-2 7 -11 56t-11 56h-6q-2 -8 -12.5 -56t-12.5 -56l-61 -238q-11 -38 -11 -41q0 -18 23 -18zM547 1423h-121q-26 0 -43 15l-272 223q-9 9 -9 14q0 19 19 19h231q20 0 37 -21l170 -221q6 -9 6 -14q0 -15 -18 -15z" />
    <glyph glyph-name="Aacute" unicode="&#xc1;" horiz-adv-x="921" 
d="M211 0h-205q-22 0 -22 16q0 4 1.5 9t4 13.5t4.5 14.5l373 1223q3 14 20 14h148q17 0 20 -14l373 -1223q10 -30 10 -37q0 -16 -23 -16h-206q-18 0 -21 14l-61 215q-3 13 -21 13h-293q-17 0 -20 -13l-62 -215q-3 -14 -20 -14zM385 457h150q22 0 22 18q0 9 -10 39l-60 240
q-2 7 -11 56t-11 56h-6q-2 -8 -12.5 -56t-12.5 -56l-61 -238q-11 -38 -11 -41q0 -18 23 -18zM496 1423h-121q-19 0 -19 15q0 5 6 14l170 221q18 21 37 21h232q16 0 16 -19q0 -8 -6 -14l-272 -223q-17 -15 -43 -15z" />
    <glyph glyph-name="Acircumflex" unicode="&#xc2;" horiz-adv-x="921" 
d="M211 0h-205q-22 0 -22 16q0 4 1.5 9t4 13.5t4.5 14.5l373 1223q3 14 20 14h148q17 0 20 -14l373 -1223q10 -30 10 -37q0 -16 -23 -16h-206q-18 0 -21 14l-61 215q-3 13 -21 13h-293q-17 0 -20 -13l-62 -215q-3 -14 -20 -14zM385 457h150q22 0 22 18q0 9 -10 39l-60 240
q-2 7 -11 56t-11 56h-6q-2 -8 -12.5 -56t-12.5 -56l-61 -238q-11 -38 -11 -41q0 -18 23 -18zM358 1417h-135q-7 0 -12.5 4t-5.5 9q0 8 6 14l188 260q9 12 25 12h72q15 0 24 -12l189 -260q4 -4 4 -14q0 -5 -5 -9t-12 -4h-135q-16 0 -29 19l-61 102q-8 8 -12 8q-6 0 -10 -8
l-62 -102q-13 -19 -29 -19z" />
    <glyph glyph-name="Atilde" unicode="&#xc3;" horiz-adv-x="921" 
d="M211 0h-205q-22 0 -22 16q0 4 1.5 9t4 13.5t4.5 14.5l373 1223q3 14 20 14h148q17 0 20 -14l373 -1223q10 -30 10 -37q0 -16 -23 -16h-206q-18 0 -21 14l-61 215q-3 13 -21 13h-293q-17 0 -20 -13l-62 -215q-3 -14 -20 -14zM385 457h150q22 0 22 18q0 9 -10 39l-60 240
q-2 7 -11 56t-11 56h-6q-2 -8 -12.5 -56t-12.5 -56l-61 -238q-11 -38 -11 -41q0 -18 23 -18zM238 1444l-64 45q-10 7 -10 16q0 3 4 11q43 78 90 106.5t107 28.5q44 0 102.5 -31t83.5 -31q27 0 49 12.5t49 45.5q9 12 17 12t12 -4l67 -49q9 -6 9 -19q0 -6 -2 -10
q-76 -135 -203 -135q-38 0 -99 31.5t-88 31.5q-59 0 -94 -55q-6 -12 -16 -12q-8 0 -14 6z" />
    <glyph glyph-name="Adieresis" unicode="&#xc4;" horiz-adv-x="921" 
d="M211 0h-205q-22 0 -22 16q0 4 1.5 9t4 13.5t4.5 14.5l373 1223q3 14 20 14h148q17 0 20 -14l373 -1223q10 -30 10 -37q0 -16 -23 -16h-206q-18 0 -21 14l-61 215q-3 13 -21 13h-293q-17 0 -20 -13l-62 -215q-3 -14 -20 -14zM385 457h150q22 0 22 18q0 9 -10 39l-60 240
q-2 7 -11 56t-11 56h-6q-2 -8 -12.5 -56t-12.5 -56l-61 -238q-11 -38 -11 -41q0 -18 23 -18zM737 1548q0 -47 -32.5 -79.5t-79.5 -32.5q-48 0 -81.5 32.5t-33.5 79.5t34 80t81 33t79.5 -33t32.5 -80zM412 1548q0 -47 -33 -79.5t-80 -32.5q-48 0 -81.5 32.5t-33.5 79.5t34 80
t81 33t80 -33t33 -80z" />
    <glyph glyph-name="Aring" unicode="&#xc5;" horiz-adv-x="921" 
d="M211 0h-205q-22 0 -22 16q0 4 1.5 9t4 13.5t4.5 14.5l330 1080q6 21 6 32q0 15 -15 27q-59 53 -59 143v60q0 87 56 140.5t149 53.5t149 -53.5t56 -140.5v-60q0 -89 -62 -145q-14 -11 -14 -23q0 -10 8 -34l330 -1080q10 -30 10 -37q0 -16 -23 -16h-206q-18 0 -21 14
l-61 215q-3 13 -21 13h-293q-17 0 -20 -13l-62 -215q-3 -14 -20 -14zM520 1335v60q0 23 -18 41t-41 18t-41.5 -18t-18.5 -41v-60q0 -23 18 -40t42 -17q23 0 41 17t18 40zM385 457h150q22 0 22 18q0 9 -10 39l-60 240q-2 7 -11 56t-11 56h-6q-2 -8 -12.5 -56t-12.5 -56
l-61 -238q-11 -38 -11 -41q0 -18 23 -18z" />
    <glyph glyph-name="AE" unicode="&#xc6;" horiz-adv-x="1404" 
d="M84 0h-209q-22 0 -22 16q0 8 22 45l719 1219q7 10 18 10h695q20 0 20 -20v-174q0 -21 -20 -21h-488q-20 0 -20 -20v-273q0 -20 20 -20h400q20 0 20 -21v-174q0 -20 -20 -20h-400q-20 0 -20 -21v-290q0 -21 20 -21h488q20 0 20 -20v-175q0 -20 -20 -20h-723q-21 0 -21 20
v242q0 21 -20 21h-273q-14 0 -20 -9l-148 -264q-7 -10 -18 -10zM418 498h125q20 0 20 20v82q0 105 12 252l-8 2q-24 -63 -47 -104l-112 -207q-13 -26 -13 -29q0 -16 23 -16z" />
    <glyph glyph-name="Ccedilla" unicode="&#xc7;" horiz-adv-x="991" 
d="M455 -440h-121q-21 0 -21 20v135q0 21 21 21h121q14 0 25.5 11t11.5 24v16q0 13 -12 25t-25 12h-82q-21 0 -21 16q0 7 17 41l30 66q9 18 9 24q0 14 -21 19q-130 28 -204 122t-74 230v606q0 161 103.5 262t276.5 101h101q218 0 323 -166q39 -67 39 -76q0 -8 -12 -14
l-164 -84q-20 -10 -24 -10q-11 0 -17 14q-51 121 -145 121h-101q-60 0 -103.5 -44t-43.5 -104v-606q0 -60 43.5 -103.5t103.5 -43.5h101q95 0 145 120q6 15 17 15q2 0 24 -11l164 -83q12 -6 12 -15t-39 -76q-98 -155 -292 -165q-20 -1 -26.5 -8t-6.5 -23q0 -10 8 -15
q86 -47 86 -147v-16q0 -94 -65 -152.5t-162 -58.5z" />
    <glyph glyph-name="Egrave" unicode="&#xc8;" horiz-adv-x="978" 
d="M881 0h-723q-21 0 -21 20v1250q0 20 21 20h723q20 0 20 -20v-174q0 -21 -20 -21h-488q-20 0 -20 -20v-273q0 -20 20 -20h400q20 0 20 -21v-174q0 -20 -20 -20h-400q-20 0 -20 -21v-290q0 -21 20 -21h488q20 0 20 -20v-175q0 -20 -20 -20zM649 1423h-121q-26 0 -43 15
l-272 223q-8 8 -8 14q0 19 18 19h232q19 0 37 -21l170 -221q6 -9 6 -14q0 -15 -19 -15z" />
    <glyph glyph-name="Eacute" unicode="&#xc9;" horiz-adv-x="978" 
d="M881 0h-723q-21 0 -21 20v1250q0 20 21 20h723q20 0 20 -20v-174q0 -21 -20 -21h-488q-20 0 -20 -20v-273q0 -20 20 -20h400q20 0 20 -21v-174q0 -20 -20 -20h-400q-20 0 -20 -21v-290q0 -21 20 -21h488q20 0 20 -20v-175q0 -20 -20 -20zM516 1423h-121q-18 0 -18 15
q0 5 6 14l170 221q17 21 37 21h231q7 0 12 -5.5t5 -13.5q0 -7 -7 -14l-272 -223q-17 -15 -43 -15z" />
    <glyph glyph-name="Ecircumflex" unicode="&#xca;" horiz-adv-x="978" 
d="M881 0h-723q-21 0 -21 20v1250q0 20 21 20h723q20 0 20 -20v-174q0 -21 -20 -21h-488q-20 0 -20 -20v-273q0 -20 20 -20h400q20 0 20 -21v-174q0 -20 -20 -20h-400q-20 0 -20 -21v-290q0 -21 20 -21h488q20 0 20 -20v-175q0 -20 -20 -20zM420 1417h-135q-7 0 -13 4t-6 9
q0 8 6 14l189 260q9 12 24 12h72q16 0 25 -12l188 -260q4 -4 4 -14q0 -13 -16 -13h-135q-16 0 -29 19l-62 102q-8 8 -12 8q-6 0 -10 -8l-61 -102q-13 -19 -29 -19z" />
    <glyph glyph-name="Edieresis" unicode="&#xcb;" horiz-adv-x="978" 
d="M881 0h-723q-21 0 -21 20v1250q0 20 21 20h723q20 0 20 -20v-174q0 -21 -20 -21h-488q-20 0 -20 -20v-273q0 -20 20 -20h400q20 0 20 -21v-174q0 -20 -20 -20h-400q-20 0 -20 -21v-290q0 -21 20 -21h488q20 0 20 -20v-175q0 -20 -20 -20zM799 1548q0 -47 -33 -79.5
t-80 -32.5q-48 0 -81.5 32.5t-33.5 79.5t34 80t81 33t80 -33t33 -80zM473 1548q0 -47 -33 -79.5t-80 -32.5t-80.5 32.5t-33.5 79.5t33.5 80t80.5 33t80 -33t33 -80z" />
    <glyph glyph-name="Igrave" unicode="&#xcc;" horiz-adv-x="509" 
d="M352 0h-194q-21 0 -21 20v1250q0 20 21 20h194q21 0 21 -20v-1250q0 -20 -21 -20zM340 1423h-121q-25 0 -43 15l-272 223q-8 8 -8 14q0 19 18 19h231q19 0 37 -21l170 -221q6 -9 6 -14q0 -15 -18 -15z" />
    <glyph glyph-name="Iacute" unicode="&#xcd;" horiz-adv-x="509" 
d="M352 0h-194q-21 0 -21 20v1250q0 20 21 20h194q21 0 21 -20v-1250q0 -20 -21 -20zM289 1423h-121q-18 0 -18 15q0 5 6 14l170 221q18 21 36 21h232q16 0 16 -19q0 -8 -6 -14l-272 -223q-18 -15 -43 -15z" />
    <glyph glyph-name="Icircumflex" unicode="&#xce;" horiz-adv-x="509" 
d="M352 0h-194q-21 0 -21 20v1250q0 20 21 20h194q21 0 21 -20v-1250q0 -20 -21 -20zM152 1417h-136q-7 0 -12.5 4t-5.5 9q0 8 6 14l189 260q9 12 24 12h72q15 0 24 -12l189 -260q4 -4 4 -14q0 -5 -5 -9t-12 -4h-135q-15 0 -28 19l-62 102q-8 8 -12 8q-6 0 -10 -8l-62 -102
q-13 -19 -28 -19z" />
    <glyph glyph-name="Idieresis" unicode="&#xcf;" horiz-adv-x="509" 
d="M352 0h-194q-21 0 -21 20v1250q0 20 21 20h194q21 0 21 -20v-1250q0 -20 -21 -20zM530 1548q0 -47 -32.5 -79.5t-79.5 -32.5q-48 0 -81.5 32.5t-33.5 79.5t34 80t81 33t79.5 -33t32.5 -80zM205 1548q0 -47 -33 -79.5t-80 -32.5q-48 0 -81.5 32.5t-33.5 79.5t34 80t81 33
t80 -33t33 -80z" />
    <glyph glyph-name="Eth" unicode="&#xd0;" horiz-adv-x="1107" 
d="M618 0h-460q-21 0 -21 20v488q0 20 -22 20h-64q-20 0 -20 21v192q0 21 20 21h64q22 0 22 22v486q0 20 21 20h460q174 0 277.5 -103.5t103.5 -277.5v-528q0 -175 -103 -278t-278 -103zM393 215h225q61 0 104.5 42.5t43.5 104.5v566q0 60 -44 103.5t-104 43.5h-225
q-20 0 -20 -20v-273q0 -20 22 -20h156q20 0 20 -21v-192q0 -21 -20 -21h-156q-22 0 -22 -22v-270q0 -21 20 -21z" />
    <glyph glyph-name="Ntilde" unicode="&#xd1;" horiz-adv-x="1126" 
d="M352 0h-194q-21 0 -21 20v1250q0 20 21 20h172q11 0 18 -10l367 -672q12 -20 43 -104l8 2q-3 40 -7.5 215.5t-4.5 290.5v258q0 20 20 20h193q20 0 20 -20v-1250q0 -20 -20 -20h-170q-12 0 -19 10l-366 668q-12 20 -43 104l-9 -2q3 -41 8 -217t5 -289v-254q0 -20 -21 -20z
M340 1444l-64 45q-10 7 -10 16q0 3 4 11q43 78 90 106.5t107 28.5q44 0 102.5 -31t83.5 -31q27 0 49.5 12.5t49.5 45.5q9 12 16 12q8 0 12 -4l68 -49q8 -5 8 -19q0 -6 -2 -10q-76 -135 -203 -135q-38 0 -98.5 31.5t-87.5 31.5q-59 0 -94 -55q-6 -12 -17 -12q-8 0 -14 6z" />
    <glyph glyph-name="Ograve" unicode="&#xd2;" horiz-adv-x="1079" 
d="M590 -20h-101q-173 0 -276.5 100.5t-103.5 261.5v606q0 161 103.5 262t276.5 101h101q172 0 276.5 -101t104.5 -262v-606q0 -161 -104.5 -261.5t-276.5 -100.5zM489 195h101q61 0 103 42.5t42 104.5v606q0 62 -42 105t-103 43h-101q-60 0 -103.5 -44t-43.5 -104v-606
q0 -60 43.5 -103.5t103.5 -43.5zM666 1423h-121q-25 0 -43 15l-273 223q-8 8 -8 14q0 19 19 19h231q20 0 37 -21l170 -221q6 -9 6 -14q0 -15 -18 -15z" />
    <glyph glyph-name="Oacute" unicode="&#xd3;" horiz-adv-x="1079" 
d="M590 -20h-101q-173 0 -276.5 100.5t-103.5 261.5v606q0 161 103.5 262t276.5 101h101q172 0 276.5 -101t104.5 -262v-606q0 -161 -104.5 -261.5t-276.5 -100.5zM489 195h101q61 0 103 42.5t42 104.5v606q0 62 -42 105t-103 43h-101q-60 0 -103.5 -44t-43.5 -104v-606
q0 -60 43.5 -103.5t103.5 -43.5zM512 1423h-121q-18 0 -18 15q0 5 6 14l170 221q17 21 37 21h231q7 0 12 -5.5t5 -13.5q0 -7 -7 -14l-272 -223q-17 -15 -43 -15z" />
    <glyph glyph-name="Ocircumflex" unicode="&#xd4;" horiz-adv-x="1079" 
d="M590 -20h-101q-173 0 -276.5 100.5t-103.5 261.5v606q0 161 103.5 262t276.5 101h101q172 0 276.5 -101t104.5 -262v-606q0 -161 -104.5 -261.5t-276.5 -100.5zM489 195h101q61 0 103 42.5t42 104.5v606q0 62 -42 105t-103 43h-101q-60 0 -103.5 -44t-43.5 -104v-606
q0 -60 43.5 -103.5t103.5 -43.5zM436 1417h-135q-7 0 -12.5 4t-5.5 9q0 8 6 14l188 260q9 12 25 12h71q16 0 25 -12l188 -260q5 -5 5 -14q0 -5 -5 -9t-12 -4h-135q-16 0 -29 19l-61 102q-8 8 -12 8q-7 0 -11 -8l-61 -102q-13 -19 -29 -19z" />
    <glyph glyph-name="Otilde" unicode="&#xd5;" horiz-adv-x="1079" 
d="M590 -20h-101q-173 0 -276.5 100.5t-103.5 261.5v606q0 161 103.5 262t276.5 101h101q172 0 276.5 -101t104.5 -262v-606q0 -161 -104.5 -261.5t-276.5 -100.5zM489 195h101q61 0 103 42.5t42 104.5v606q0 62 -42 105t-103 43h-101q-60 0 -103.5 -44t-43.5 -104v-606
q0 -60 43.5 -103.5t103.5 -43.5zM315 1444l-63 45q-10 7 -10 16q0 3 4 11q43 78 89.5 106.5t106.5 28.5q44 0 103 -31t84 -31q27 0 49 12.5t49 45.5q9 12 16 12q9 0 13 -4l67 -49q8 -5 8 -19q0 -6 -2 -10q-76 -135 -202 -135q-38 0 -99 31.5t-88 31.5q-59 0 -94 -55
q-6 -12 -16 -12q-9 0 -15 6z" />
    <glyph glyph-name="Odieresis" unicode="&#xd6;" horiz-adv-x="1079" 
d="M590 -20h-101q-173 0 -276.5 100.5t-103.5 261.5v606q0 161 103.5 262t276.5 101h101q172 0 276.5 -101t104.5 -262v-606q0 -161 -104.5 -261.5t-276.5 -100.5zM489 195h101q61 0 103 42.5t42 104.5v606q0 62 -42 105t-103 43h-101q-60 0 -103.5 -44t-43.5 -104v-606
q0 -60 43.5 -103.5t103.5 -43.5zM815 1548q0 -47 -33 -79.5t-80 -32.5t-80.5 32.5t-33.5 79.5t33.5 80t80.5 33t80 -33t33 -80zM489 1548q0 -47 -32.5 -79.5t-79.5 -32.5q-48 0 -81.5 32.5t-33.5 79.5t34 80t81 33t79.5 -33t32.5 -80z" />
    <glyph glyph-name="multiply" unicode="&#xd7;" 
d="M227 111l-94 96q-8 5 -8 14q0 7 8 15l248 247q8 8 8 15q0 4 -8 16l-248 248q-8 5 -8 14q0 7 8 15l94 96q8 8 15 8q4 0 16 -8l248 -250q5 -8 14 -8q7 0 15 8l247 248q8 8 15 8q2 0 14 -8l96 -94q8 -12 8 -17q0 -6 -8 -14l-248 -246q-8 -8 -8 -16q0 -10 8 -15l248 -245
q8 -12 8 -17q0 -6 -8 -14l-96 -94q-9 -9 -14 -9q-9 0 -15 9l-247 247q-13 9 -15 9q-5 0 -14 -9l-248 -249q-9 -9 -16 -9q-9 0 -15 9z" />
    <glyph glyph-name="Oslash" unicode="&#xd8;" horiz-adv-x="1079" 
d="M590 -20h-101q-173 0 -276.5 100.5t-103.5 261.5v606q0 161 103.5 262t276.5 101h101q172 0 276.5 -101t104.5 -262v-606q0 -161 -104.5 -261.5t-276.5 -100.5zM371 506l272 547q4 12 4 14q0 17 -14 20q-31 9 -43 9h-101q-60 0 -103.5 -44t-43.5 -104v-434q0 -18 14 -18
q10 0 15 10zM489 195h101q61 0 103 42.5t42 104.5v535q0 16 -12 16q-9 0 -14 -10l-306 -613q-8 -20 -8 -26q0 -13 13 -23q41 -26 81 -26z" />
    <glyph glyph-name="Ugrave" unicode="&#xd9;" horiz-adv-x="1079" 
d="M590 -20h-101q-173 0 -276.5 100.5t-103.5 261.5v928q0 20 20 20h193q20 0 20 -20v-928q0 -60 43.5 -103.5t103.5 -43.5h101q61 0 103 42.5t42 104.5v928q0 20 21 20h194q21 0 21 -20v-928q0 -161 -104.5 -261.5t-276.5 -100.5zM625 1423h-121q-26 0 -43 15l-273 223
q-8 8 -8 14q0 19 19 19h231q20 0 37 -21l170 -221q6 -9 6 -14q0 -15 -18 -15z" />
    <glyph glyph-name="Uacute" unicode="&#xda;" horiz-adv-x="1079" 
d="M590 -20h-101q-173 0 -276.5 100.5t-103.5 261.5v928q0 20 20 20h193q20 0 20 -20v-928q0 -60 43.5 -103.5t103.5 -43.5h101q61 0 103 42.5t42 104.5v928q0 20 21 20h194q21 0 21 -20v-928q0 -161 -104.5 -261.5t-276.5 -100.5zM573 1423h-120q-19 0 -19 15q0 5 6 14
l170 221q18 21 37 21h232q16 0 16 -19q0 -8 -6 -14l-273 -223q-18 -15 -43 -15z" />
    <glyph glyph-name="Ucircumflex" unicode="&#xdb;" horiz-adv-x="1079" 
d="M590 -20h-101q-173 0 -276.5 100.5t-103.5 261.5v928q0 20 20 20h193q20 0 20 -20v-928q0 -60 43.5 -103.5t103.5 -43.5h101q61 0 103 42.5t42 104.5v928q0 20 21 20h194q21 0 21 -20v-928q0 -161 -104.5 -261.5t-276.5 -100.5zM436 1417h-135q-7 0 -12.5 4t-5.5 9
q0 8 6 14l188 260q9 12 25 12h71q16 0 25 -12l188 -260q5 -5 5 -14q0 -5 -5 -9t-12 -4h-135q-16 0 -29 19l-61 102q-8 8 -12 8q-7 0 -11 -8l-61 -102q-13 -19 -29 -19z" />
    <glyph glyph-name="Udieresis" unicode="&#xdc;" horiz-adv-x="1079" 
d="M590 -20h-101q-173 0 -276.5 100.5t-103.5 261.5v928q0 20 20 20h193q20 0 20 -20v-928q0 -60 43.5 -103.5t103.5 -43.5h101q61 0 103 42.5t42 104.5v928q0 20 21 20h194q21 0 21 -20v-928q0 -161 -104.5 -261.5t-276.5 -100.5zM815 1548q0 -47 -33 -79.5t-80 -32.5
t-80.5 32.5t-33.5 79.5t33.5 80t80.5 33t80 -33t33 -80zM489 1548q0 -47 -32.5 -79.5t-79.5 -32.5q-48 0 -81.5 32.5t-33.5 79.5t34 80t81 33t79.5 -33t32.5 -80z" />
    <glyph glyph-name="Yacute" unicode="&#xdd;" horiz-adv-x="921" 
d="M557 0h-195q-20 0 -20 20v541q0 26 -14 55l-334 625q-14 25 -14 33q0 16 22 16h227q11 0 19 -12l194 -401q7 -17 19 -17q11 0 18 17l195 401q8 12 18 12h226q22 0 22 -16q0 -5 -14 -33l-334 -625q-14 -28 -14 -57v-539q0 -20 -21 -20zM496 1423h-121q-19 0 -19 15
q0 5 6 14l170 221q18 21 37 21h232q16 0 16 -19q0 -8 -6 -14l-272 -223q-17 -15 -43 -15z" />
    <glyph glyph-name="Thorn" unicode="&#xde;" horiz-adv-x="989" 
d="M352 0h-194q-21 0 -21 20v1250q0 20 21 20h194q21 0 21 -20v-203q0 -23 22 -23h183q174 0 277 -104t103 -276q0 -156 -104.5 -259.5t-275.5 -103.5h-185q-20 0 -20 -20v-261q0 -20 -21 -20zM393 516h185q60 0 103.5 44t43.5 104v18q0 60 -43.5 103.5t-103.5 43.5h-185
q-20 0 -20 -20v-272q0 -21 20 -21z" />
    <glyph glyph-name="germandbls" unicode="&#xdf;" horiz-adv-x="1005" 
d="M360 0h-192q-21 0 -21 20v594q0 21 -20 21h-47q-21 0 -21 20v174q0 21 21 21h47q20 0 20 20v58q0 157 112 270t269 113q173 0 277 -104t104 -279v-39q0 -55 -31.5 -116t-76.5 -105q-8 -5 -8 -15q0 -6 8 -14q45 -45 76.5 -110.5t31.5 -120.5v-50q0 -131 -62 -222
t-181 -130q-79 -26 -148 -26q-20 0 -20 20v176q0 21 18 21q78 6 118 46t40 99v59q0 59 -40 98.5t-118 45.5q-18 0 -18 20v178q0 21 18 21q78 6 118 46t40 99v39q0 62 -42.5 105t-103.5 43q-65 0 -106 -43t-41 -105v-928q0 -20 -21 -20z" />
    <glyph glyph-name="agrave" unicode="&#xe0;" horiz-adv-x="952" 
d="M463 0h-78q-123 0 -206 76.5t-83 197.5v11q0 123 82.5 198.5t206.5 75.5h197q20 0 20 21v24q0 60 -43 99.5t-106 39.5q-84 0 -150 -116q-7 -13 -16 -13q-3 0 -25 11l-156 82q-12 6 -12 14q0 15 43 82q52 77 127 116t189 39q174 0 278.5 -99.5t104.5 -260.5v-578
q0 -20 -21 -20h-174q-20 0 -20 16q0 27 -15 27q-9 0 -18 -6q-67 -37 -125 -37zM385 215h78q49 0 90 35t49 80v32h-217q-23 0 -39 -17t-16 -40v-31q0 -25 15.5 -42t39.5 -17zM616 1071h-139q-15 0 -33 14l-290 287q-15 15 -15 25q0 16 23 16h250q18 0 28 -16l185 -283
q12 -20 12 -27q0 -16 -21 -16z" />
    <glyph glyph-name="aacute" unicode="&#xe1;" horiz-adv-x="952" 
d="M463 0h-78q-123 0 -206 76.5t-83 197.5v11q0 123 82.5 198.5t206.5 75.5h197q20 0 20 21v24q0 60 -43 99.5t-106 39.5q-84 0 -150 -116q-7 -13 -16 -13q-3 0 -25 11l-156 82q-12 6 -12 14q0 15 43 82q52 77 127 116t189 39q174 0 278.5 -99.5t104.5 -260.5v-578
q0 -20 -21 -20h-174q-20 0 -20 16q0 27 -15 27q-9 0 -18 -6q-67 -37 -125 -37zM385 215h78q49 0 90 35t49 80v32h-217q-23 0 -39 -17t-16 -40v-31q0 -25 15.5 -42t39.5 -17zM473 1071h-139q-21 0 -21 16q0 5 13 27l184 283q10 16 29 16h249q23 0 23 -16q0 -11 -14 -25
l-291 -287q-18 -14 -33 -14z" />
    <glyph glyph-name="acircumflex" unicode="&#xe2;" horiz-adv-x="952" 
d="M463 0h-78q-123 0 -206 76.5t-83 197.5v11q0 123 82.5 198.5t206.5 75.5h197q20 0 20 21v24q0 60 -43 99.5t-106 39.5q-84 0 -150 -116q-7 -13 -16 -13q-3 0 -25 11l-156 82q-12 6 -12 14q0 15 43 82q52 77 127 116t189 39q174 0 278.5 -99.5t104.5 -260.5v-578
q0 -20 -21 -20h-174q-20 0 -20 16q0 27 -15 27q-9 0 -18 -6q-67 -37 -125 -37zM385 215h78q49 0 90 35t49 80v32h-217q-23 0 -39 -17t-16 -40v-31q0 -25 15.5 -42t39.5 -17zM377 1071h-166q-23 0 -23 16q0 7 7 17l213 301q8 8 16 8h100q9 0 17 -8l215 -301q6 -9 6 -17
q0 -16 -23 -16h-166q-9 0 -16 10l-68 105q-6 12 -16 12q-8 0 -14 -12l-66 -105q-7 -10 -16 -10z" />
    <glyph glyph-name="atilde" unicode="&#xe3;" horiz-adv-x="952" 
d="M463 0h-78q-123 0 -206 76.5t-83 197.5v11q0 123 82.5 198.5t206.5 75.5h197q20 0 20 21v24q0 60 -43 99.5t-106 39.5q-84 0 -150 -116q-7 -13 -16 -13q-3 0 -25 11l-156 82q-12 6 -12 14q0 15 43 82q52 77 127 116t189 39q174 0 278.5 -99.5t104.5 -260.5v-578
q0 -20 -21 -20h-174q-20 0 -20 16q0 27 -15 27q-9 0 -18 -6q-67 -37 -125 -37zM385 215h78q49 0 90 35t49 80v32h-217q-23 0 -39 -17t-16 -40v-31q0 -25 15.5 -42t39.5 -17zM229 1128l-69 52q-8 5 -8 16q0 12 28 57q76 119 178 119q66 0 140 -53l34 -25q29 -22 58 -22
q46 0 88 69q6 13 16 13q6 0 23 -13l74 -59q8 -5 8 -16q0 -14 -37 -70q-77 -113 -172 -113q-21 0 -46.5 9.5t-42.5 19t-52 31.5l-37 22q-34 21 -54 21q-41 0 -84 -64q-6 -12 -16 -12q-7 0 -29 18z" />
    <glyph glyph-name="adieresis" unicode="&#xe4;" horiz-adv-x="952" 
d="M463 0h-78q-123 0 -206 76.5t-83 197.5v11q0 123 82.5 198.5t206.5 75.5h197q20 0 20 21v24q0 60 -43 99.5t-106 39.5q-84 0 -150 -116q-7 -13 -16 -13q-3 0 -25 11l-156 82q-12 6 -12 14q0 15 43 82q52 77 127 116t189 39q174 0 278.5 -99.5t104.5 -260.5v-578
q0 -20 -21 -20h-174q-20 0 -20 16q0 27 -15 27q-9 0 -18 -6q-67 -37 -125 -37zM385 215h78q49 0 90 35t49 80v32h-217q-23 0 -39 -17t-16 -40v-31q0 -25 15.5 -42t39.5 -17zM774 1219q0 -54 -36.5 -90.5t-90.5 -36.5t-90.5 36.5t-36.5 90.5t36.5 90.5t90.5 36.5t90.5 -36.5
t36.5 -90.5zM428 1219q0 -54 -36.5 -90.5t-90.5 -36.5t-90.5 36.5t-36.5 90.5t36.5 90.5t90.5 36.5t90.5 -36.5t36.5 -90.5z" />
    <glyph glyph-name="aring" unicode="&#xe5;" horiz-adv-x="952" 
d="M463 0h-78q-123 0 -206 76.5t-83 197.5v11q0 123 82.5 198.5t206.5 75.5h197q20 0 20 21v24q0 60 -43 99.5t-106 39.5q-84 0 -150 -116q-7 -13 -16 -13q-3 0 -25 11l-156 82q-12 6 -12 14q0 15 43 82q52 77 127 116t189 39q174 0 278.5 -99.5t104.5 -260.5v-578
q0 -20 -21 -20h-174q-20 0 -20 16q0 27 -15 27q-9 0 -18 -6q-67 -37 -125 -37zM385 215h78q49 0 90 35t49 80v32h-217q-23 0 -39 -17t-16 -40v-31q0 -25 15.5 -42t39.5 -17zM270 1239v59q0 87 56 141t149 54t149 -54t56 -141v-59q0 -87 -56 -141t-149 -54t-149 54t-56 141z
M535 1239v59q0 23 -18.5 41.5t-41.5 18.5t-41 -18.5t-18 -41.5v-59q0 -23 18 -40t41 -17q24 0 42 17t18 40z" />
    <glyph glyph-name="ae" unicode="&#xe6;" horiz-adv-x="1472" 
d="M485 -20h-96q-126 0 -210.5 76.5t-84.5 197.5v39q0 121 84.5 197.5t210.5 76.5h213q21 0 21 21v4q0 62 -42.5 104.5t-103.5 42.5q-97 0 -145 -118q-6 -13 -17 -13q-9 0 -26 10l-160 80q-12 6 -12 17q0 14 33 67q107 172 327 172q146 0 244 -73q2 -1 7 -5.5t9 -7t8 -2.5
q10 0 25 15q99 77 234 77q83 0 156 -32.5t121 -84.5t75.5 -116.5t27.5 -128.5v-166q0 -20 -20 -20h-487q-21 0 -21 -21v-47q0 -61 43 -104t105 -43q95 0 145 120q7 13 16 13q5 0 35 -15l154 -75q12 -6 12 -17q0 -9 -31 -61q-52 -86 -129 -133t-202 -47q-175 0 -275 100
q-8 8 -14 8q-10 0 -15 -8q-42 -45 -105.5 -72.5t-109.5 -27.5zM881 606h243q10 0 16.5 5.5t6.5 13.5q0 30 -38.5 74t-104.5 44t-106 -44t-40 -74q0 -8 6.5 -13.5t16.5 -5.5zM389 195h96q43 0 81 34.5t57 79.5v47q0 17 -21 17h-213q-25 0 -42 -18t-17 -42v-59
q0 -24 16.5 -41.5t42.5 -17.5z" />
    <glyph glyph-name="ccedilla" unicode="&#xe7;" horiz-adv-x="878" 
d="M377 -440h-121q-20 0 -20 20v135q0 21 20 21h121q14 0 25.5 11t11.5 24v16q0 13 -12 25t-25 12h-82q-21 0 -21 16q0 7 17 41l55 115q-121 32 -189.5 124.5t-68.5 221.5v254q0 161 105 261.5t278 100.5q125 0 202.5 -47t129.5 -133q31 -52 31 -61q0 -11 -13 -17l-153 -75
q-30 -15 -35 -15q-11 0 -17 13q-50 120 -145 120q-62 0 -104.5 -43t-42.5 -104v-254q0 -61 42.5 -104t104.5 -43q95 0 145 120q6 13 17 13q5 0 35 -15l153 -75q13 -6 13 -17q0 -9 -31 -61q-47 -77 -113 -122.5t-168 -55.5q2 0 -2 -7q-10 -25 -10 -26q0 -10 8 -15
q86 -47 86 -147v-16q0 -94 -65 -152.5t-162 -58.5z" />
    <glyph glyph-name="egrave" unicode="&#xe8;" horiz-adv-x="940" 
d="M668 313l153 -75q13 -6 13 -17q0 -9 -31 -61q-52 -86 -129.5 -133t-202.5 -47q-173 0 -278 100.5t-105 261.5v254q0 87 46 169t136 137.5t201 55.5q110 0 199.5 -55.5t135.5 -137.5t46 -169v-166q0 -20 -21 -20h-487q-20 0 -20 -21v-47q0 -61 42.5 -104t104.5 -43
q95 0 145 120q6 13 17 13q5 0 35 -15zM348 606h244q22 0 22 19q0 30 -38.5 74t-104.5 44q-46 0 -81 -24.5t-49.5 -50.5t-14.5 -43q0 -19 22 -19zM610 1071h-139q-15 0 -33 14l-291 287q-14 14 -14 25q0 16 23 16h250q18 0 28 -16l184 -283q13 -22 13 -27q0 -16 -21 -16z" />
    <glyph glyph-name="eacute" unicode="&#xe9;" horiz-adv-x="940" 
d="M668 313l153 -75q13 -6 13 -17q0 -9 -31 -61q-52 -86 -129.5 -133t-202.5 -47q-173 0 -278 100.5t-105 261.5v254q0 87 46 169t136 137.5t201 55.5q110 0 199.5 -55.5t135.5 -137.5t46 -169v-166q0 -20 -21 -20h-487q-20 0 -20 -21v-47q0 -61 42.5 -104t104.5 -43
q95 0 145 120q6 13 17 13q5 0 35 -15zM348 606h244q22 0 22 19q0 30 -38.5 74t-104.5 44q-46 0 -81 -24.5t-49.5 -50.5t-14.5 -43q0 -19 22 -19zM467 1071h-139q-21 0 -21 16q0 7 12 27l185 283q10 16 28 16h250q23 0 23 -16q0 -11 -14 -25l-291 -287q-18 -14 -33 -14z" />
    <glyph glyph-name="ecircumflex" unicode="&#xea;" horiz-adv-x="940" 
d="M668 313l153 -75q13 -6 13 -17q0 -9 -31 -61q-52 -86 -129.5 -133t-202.5 -47q-173 0 -278 100.5t-105 261.5v254q0 87 46 169t136 137.5t201 55.5q110 0 199.5 -55.5t135.5 -137.5t46 -169v-166q0 -20 -21 -20h-487q-20 0 -20 -21v-47q0 -61 42.5 -104t104.5 -43
q95 0 145 120q6 13 17 13q5 0 35 -15zM348 606h244q22 0 22 19q0 30 -38.5 74t-104.5 44q-46 0 -81 -24.5t-49.5 -50.5t-14.5 -43q0 -19 22 -19zM371 1071h-166q-23 0 -23 16q0 8 6 17l213 301q8 8 17 8h100q9 0 17 -8l215 -301q6 -9 6 -17q0 -16 -23 -16h-166q-9 0 -16 10
l-68 105q-6 12 -16 12q-8 0 -14 -12l-66 -105q-7 -10 -16 -10z" />
    <glyph glyph-name="edieresis" unicode="&#xeb;" horiz-adv-x="940" 
d="M668 313l153 -75q13 -6 13 -17q0 -9 -31 -61q-52 -86 -129.5 -133t-202.5 -47q-173 0 -278 100.5t-105 261.5v254q0 87 46 169t136 137.5t201 55.5q110 0 199.5 -55.5t135.5 -137.5t46 -169v-166q0 -20 -21 -20h-487q-20 0 -20 -21v-47q0 -61 42.5 -104t104.5 -43
q95 0 145 120q6 13 17 13q5 0 35 -15zM348 606h244q22 0 22 19q0 30 -38.5 74t-104.5 44q-46 0 -81 -24.5t-49.5 -50.5t-14.5 -43q0 -19 22 -19zM768 1219q0 -54 -36.5 -90.5t-90.5 -36.5t-90.5 36.5t-36.5 90.5t36.5 90.5t90.5 36.5t90.5 -36.5t36.5 -90.5zM422 1219
q0 -54 -36.5 -90.5t-90.5 -36.5t-90.5 36.5t-36.5 90.5t36.5 90.5t90.5 36.5t90.5 -36.5t36.5 -90.5z" />
    <glyph glyph-name="igrave" unicode="&#xec;" horiz-adv-x="471" 
d="M332 0h-193q-20 0 -20 20v898q0 20 20 20h193q20 0 20 -20v-898q0 -20 -20 -20zM336 1071h-139q-15 0 -33 14l-291 287q-14 14 -14 25q0 16 22 16h250q19 0 29 -16l184 -283q12 -20 12 -27q0 -16 -20 -16z" />
    <glyph glyph-name="iacute" unicode="&#xed;" horiz-adv-x="471" 
d="M332 0h-193q-20 0 -20 20v898q0 20 20 20h193q20 0 20 -20v-898q0 -20 -20 -20zM274 1071h-139q-20 0 -20 16q0 7 12 27l184 283q10 16 29 16h250q22 0 22 -16q0 -11 -14 -25l-291 -287q-17 -14 -33 -14z" />
    <glyph glyph-name="icircumflex" unicode="&#xee;" horiz-adv-x="471" 
d="M332 0h-193q-20 0 -20 20v898q0 20 20 20h193q20 0 20 -20v-898q0 -20 -20 -20zM137 1071h-166q-22 0 -22 16q0 8 6 17l213 301q8 8 16 8h101q8 0 16 -8l215 -301q6 -9 6 -17q0 -16 -22 -16h-166q-10 0 -17 10l-67 105q-6 12 -17 12q-8 0 -14 -12l-65 -105
q-7 -10 -17 -10z" />
    <glyph glyph-name="idieresis" unicode="&#xef;" horiz-adv-x="471" 
d="M332 0h-193q-20 0 -20 20v898q0 20 20 20h193q20 0 20 -20v-898q0 -20 -20 -20zM535 1219q0 -54 -36.5 -90.5t-90.5 -36.5t-90.5 36.5t-36.5 90.5t36.5 90.5t90.5 36.5t90.5 -36.5t36.5 -90.5zM188 1219q0 -54 -36.5 -90.5t-90.5 -36.5t-90.5 36.5t-36.5 90.5t36.5 90.5
t90.5 36.5t90.5 -36.5t36.5 -90.5z" />
    <glyph glyph-name="eth" unicode="&#xf0;" horiz-adv-x="940" 
d="M88 342v254q0 141 82 237t223 119l-78 78l-198 -78q-4 -2 -13 -2q-16 0 -16 13v69q0 28 12 33l129 51l-131 133q-18 13 -18 25q0 6 7 11t17 5h207q4 0 7 -1t4.5 -2.5t4.5 -5t5 -5.5l86 -86l198 78q20 10 29 10q8 0 14.5 -4t6.5 -10v-76q0 -21 -17 -27l-147 -57l280 -277
q70 -92 70 -231v-254q0 -161 -104.5 -261.5t-276.5 -100.5q-173 0 -278 100.5t-105 261.5zM616 342v254q0 62 -42 104.5t-103 42.5q-62 0 -104.5 -43t-42.5 -104v-254q0 -61 42.5 -104t104.5 -43q61 0 103 42.5t42 104.5z" />
    <glyph glyph-name="ntilde" unicode="&#xf1;" horiz-adv-x="999" 
d="M332 0h-193q-20 0 -20 20v898q0 20 20 20h174q21 0 21 -18q0 -23 16 -23q3 0 15 4q69 37 135 37q172 0 276.5 -99.5t104.5 -260.5v-558q0 -20 -21 -20h-194q-21 0 -21 20v558q0 62 -41.5 103.5t-103.5 41.5t-105 -42t-43 -103v-558q0 -20 -20 -20zM254 1128l-70 52
q-8 5 -8 16q0 10 29 57q76 119 178 119q65 0 139 -53l35 -25q29 -22 57 -22q46 0 88 69q6 13 17 13q5 0 22 -13l74 -59q8 -5 8 -16q0 -14 -37 -70q-77 -113 -172 -113q-21 0 -46.5 9.5t-42.5 19t-52 31.5l-37 22q-34 21 -53 21q-41 0 -84 -64q-6 -12 -16 -12q-7 0 -29 18z
" />
    <glyph glyph-name="ograve" unicode="&#xf2;" horiz-adv-x="940" 
d="M88 342v254q0 161 105 261.5t278 100.5q172 0 276.5 -100.5t104.5 -261.5v-254q0 -161 -104.5 -261.5t-276.5 -100.5q-173 0 -278 100.5t-105 261.5zM616 342v254q0 62 -42 104.5t-103 42.5q-62 0 -104.5 -43t-42.5 -104v-254q0 -61 42.5 -104t104.5 -43q61 0 103 42.5
t42 104.5zM610 1071h-139q-15 0 -33 14l-291 287q-14 14 -14 25q0 16 23 16h250q18 0 28 -16l184 -283q13 -22 13 -27q0 -16 -21 -16z" />
    <glyph glyph-name="oacute" unicode="&#xf3;" horiz-adv-x="940" 
d="M88 342v254q0 161 105 261.5t278 100.5q172 0 276.5 -100.5t104.5 -261.5v-254q0 -161 -104.5 -261.5t-276.5 -100.5q-173 0 -278 100.5t-105 261.5zM616 342v254q0 62 -42 104.5t-103 42.5q-62 0 -104.5 -43t-42.5 -104v-254q0 -61 42.5 -104t104.5 -43q61 0 103 42.5
t42 104.5zM467 1071h-139q-21 0 -21 16q0 7 12 27l185 283q10 16 28 16h250q23 0 23 -16q0 -11 -14 -25l-291 -287q-18 -14 -33 -14z" />
    <glyph glyph-name="ocircumflex" unicode="&#xf4;" horiz-adv-x="940" 
d="M88 342v254q0 161 105 261.5t278 100.5q172 0 276.5 -100.5t104.5 -261.5v-254q0 -161 -104.5 -261.5t-276.5 -100.5q-173 0 -278 100.5t-105 261.5zM616 342v254q0 62 -42 104.5t-103 42.5q-62 0 -104.5 -43t-42.5 -104v-254q0 -61 42.5 -104t104.5 -43q61 0 103 42.5
t42 104.5zM371 1071h-166q-23 0 -23 16q0 8 6 17l213 301q8 8 17 8h100q9 0 17 -8l215 -301q6 -9 6 -17q0 -16 -23 -16h-166q-9 0 -16 10l-68 105q-6 12 -16 12q-8 0 -14 -12l-66 -105q-7 -10 -16 -10z" />
    <glyph glyph-name="otilde" unicode="&#xf5;" horiz-adv-x="940" 
d="M88 342v254q0 161 105 261.5t278 100.5q172 0 276.5 -100.5t104.5 -261.5v-254q0 -161 -104.5 -261.5t-276.5 -100.5q-173 0 -278 100.5t-105 261.5zM616 342v254q0 62 -42 104.5t-103 42.5q-62 0 -104.5 -43t-42.5 -104v-254q0 -61 42.5 -104t104.5 -43q61 0 103 42.5
t42 104.5zM223 1128l-69 52q-9 6 -9 16t29 57q76 119 178 119q66 0 140 -53l34 -25q29 -22 58 -22q46 0 88 69q6 13 16 13q6 0 23 -13l73 -59q9 -6 9 -16q0 -14 -37 -70q-77 -113 -172 -113q-21 0 -46.5 9t-43.5 19.5t-52 31.5l-36 22q-34 21 -54 21q-41 0 -84 -64
q-6 -12 -16 -12q-7 0 -29 18z" />
    <glyph glyph-name="odieresis" unicode="&#xf6;" horiz-adv-x="940" 
d="M88 342v254q0 161 105 261.5t278 100.5q172 0 276.5 -100.5t104.5 -261.5v-254q0 -161 -104.5 -261.5t-276.5 -100.5q-173 0 -278 100.5t-105 261.5zM616 342v254q0 62 -42 104.5t-103 42.5q-62 0 -104.5 -43t-42.5 -104v-254q0 -61 42.5 -104t104.5 -43q61 0 103 42.5
t42 104.5zM768 1219q0 -54 -36.5 -90.5t-90.5 -36.5t-90.5 36.5t-36.5 90.5t36.5 90.5t90.5 36.5t90.5 -36.5t36.5 -90.5zM422 1219q0 -54 -36.5 -90.5t-90.5 -36.5t-90.5 36.5t-36.5 90.5t36.5 90.5t90.5 36.5t90.5 -36.5t36.5 -90.5z" />
    <glyph glyph-name="divide" unicode="&#xf7;" 
d="M657 823q0 -55 -40.5 -96t-96.5 -41t-97.5 41t-41.5 96q0 56 41 97t96 41q56 0 97.5 -41.5t41.5 -96.5zM938 410h-838q-20 0 -20 20v135q0 21 20 21h838q20 0 20 -21v-135q0 -20 -20 -20zM655 170h2q0 -56 -40.5 -96.5t-96.5 -40.5t-97.5 41t-41.5 96q0 56 40.5 96.5
t96.5 40.5t96.5 -40.5t40.5 -96.5z" />
    <glyph glyph-name="oslash" unicode="&#xf8;" horiz-adv-x="940" 
d="M88 342v254q0 161 105 261.5t278 100.5q172 0 276.5 -100.5t104.5 -261.5v-254q0 -161 -104.5 -261.5t-276.5 -100.5q-173 0 -278 100.5t-105 261.5zM344 393l141 316q4 12 4 16q0 18 -18 18q-62 0 -104.5 -43t-42.5 -104v-199q0 -16 8 -16q6 0 12 12zM616 342v246
q0 18 -12 18q-8 0 -14 -14l-160 -356q-4 -6 -4 -19q0 -17 18 -20q8 -2 27 -2q61 0 103 42.5t42 104.5z" />
    <glyph glyph-name="ugrave" unicode="&#xf9;" horiz-adv-x="978" 
d="M840 0h-174q-21 0 -21 18q0 23 -16 23q-3 0 -15 -4q-69 -37 -135 -37q-172 0 -276.5 100.5t-104.5 261.5v556q0 20 21 20h194q21 0 21 -20v-556q0 -63 41.5 -105t103.5 -42q61 0 104.5 42.5t43.5 104.5v556q0 20 20 20h193q20 0 20 -20v-898q0 -20 -20 -20zM631 1071
h-139q-15 0 -33 14l-291 287q-14 14 -14 25q0 16 22 16h250q19 0 29 -16l184 -283q12 -20 12 -27q0 -16 -20 -16z" />
    <glyph glyph-name="uacute" unicode="&#xfa;" horiz-adv-x="978" 
d="M840 0h-174q-21 0 -21 18q0 23 -16 23q-3 0 -15 -4q-69 -37 -135 -37q-172 0 -276.5 100.5t-104.5 261.5v556q0 20 21 20h194q21 0 21 -20v-556q0 -63 41.5 -105t103.5 -42q61 0 104.5 42.5t43.5 104.5v556q0 20 20 20h193q20 0 20 -20v-898q0 -20 -20 -20zM487 1071
h-139q-20 0 -20 16q0 7 12 27l184 283q10 16 29 16h250q22 0 22 -16q0 -11 -14 -25l-291 -287q-18 -14 -33 -14z" />
    <glyph glyph-name="ucircumflex" unicode="&#xfb;" horiz-adv-x="978" 
d="M840 0h-174q-21 0 -21 18q0 23 -16 23q-3 0 -15 -4q-69 -37 -135 -37q-172 0 -276.5 100.5t-104.5 261.5v556q0 20 21 20h194q21 0 21 -20v-556q0 -63 41.5 -105t103.5 -42q61 0 104.5 42.5t43.5 104.5v556q0 20 20 20h193q20 0 20 -20v-898q0 -20 -20 -20zM391 1071
h-166q-22 0 -22 16q0 8 6 17l213 301q8 8 16 8h101q8 0 16 -8l215 -301q6 -9 6 -17q0 -16 -22 -16h-166q-10 0 -17 10l-67 105q-6 12 -17 12q-8 0 -14 -12l-65 -105q-7 -10 -17 -10z" />
    <glyph glyph-name="udieresis" unicode="&#xfc;" horiz-adv-x="978" 
d="M840 0h-174q-21 0 -21 18q0 23 -16 23q-3 0 -15 -4q-69 -37 -135 -37q-172 0 -276.5 100.5t-104.5 261.5v556q0 20 21 20h194q21 0 21 -20v-556q0 -63 41.5 -105t103.5 -42q61 0 104.5 42.5t43.5 104.5v556q0 20 20 20h193q20 0 20 -20v-898q0 -20 -20 -20zM788 1219
q0 -54 -36 -90.5t-90 -36.5t-90.5 36.5t-36.5 90.5t36.5 90.5t90.5 36.5t90 -36.5t36 -90.5zM442 1219q0 -54 -36.5 -90.5t-90.5 -36.5t-90.5 36.5t-36.5 90.5t36.5 90.5t90.5 36.5t90.5 -36.5t36.5 -90.5z" />
    <glyph glyph-name="yacute" unicode="&#xfd;" horiz-adv-x="978" 
d="M131 -225l164 82q13 8 22 8q11 0 17 -12q48 -119 145 -119q60 0 104 43.5t44 103.5v127q0 23 -15 23q-6 0 -14 -4q-58 -27 -119 -27q-172 0 -276.5 100.5t-104.5 261.5v556q0 20 21 20h194q21 0 21 -20v-556q0 -63 41.5 -105t103.5 -42q61 0 104.5 42.5t43.5 104.5v556
q0 20 20 20h193q20 0 20 -20v-1018q0 -170 -99 -275.5t-282 -105.5q-210 0 -313 149q-47 64 -47 90q0 11 12 17zM487 1071h-139q-20 0 -20 16q0 7 12 27l184 283q10 16 29 16h250q22 0 22 -16q0 -11 -14 -25l-291 -287q-18 -14 -33 -14z" />
    <glyph glyph-name="thorn" unicode="&#xfe;" horiz-adv-x="968" 
d="M332 -461h-193q-20 0 -20 21v1710q0 20 20 20h174q21 0 21 -18v-352q0 -23 16 -23q3 0 15 4q69 37 135 37q172 0 276.5 -99.5t104.5 -260.5v-216q0 -158 -104.5 -260t-258.5 -102q-66 0 -135 37q-12 4 -14 4q-17 0 -17 -23v-458q0 -21 -20 -21zM645 362v216
q0 62 -41.5 103.5t-103.5 41.5t-105 -42t-43 -103v-216q0 -62 43.5 -104.5t104.5 -42.5q62 0 103.5 42t41.5 105z" />
    <glyph glyph-name="ydieresis" unicode="&#xff;" horiz-adv-x="978" 
d="M131 -225l164 82q13 8 22 8q11 0 17 -12q48 -119 145 -119q60 0 104 43.5t44 103.5v127q0 23 -15 23q-6 0 -14 -4q-58 -27 -119 -27q-172 0 -276.5 100.5t-104.5 261.5v556q0 20 21 20h194q21 0 21 -20v-556q0 -63 41.5 -105t103.5 -42q61 0 104.5 42.5t43.5 104.5v556
q0 20 20 20h193q20 0 20 -20v-1018q0 -170 -99 -275.5t-282 -105.5q-210 0 -313 149q-47 64 -47 90q0 11 12 17zM788 1219q0 -54 -36 -90.5t-90 -36.5t-90.5 36.5t-36.5 90.5t36.5 90.5t90.5 36.5t90 -36.5t36 -90.5zM442 1219q0 -54 -36.5 -90.5t-90.5 -36.5t-90.5 36.5
t-36.5 90.5t36.5 90.5t90.5 36.5t90.5 -36.5t36.5 -90.5z" />
    <glyph glyph-name="Amacron" unicode="&#x100;" horiz-adv-x="921" 
d="M211 0h-205q-22 0 -22 16q0 4 1.5 9t4 13.5t4.5 14.5l373 1223q3 14 20 14h148q17 0 20 -14l373 -1223q10 -30 10 -37q0 -16 -23 -16h-206q-18 0 -21 14l-61 215q-3 13 -21 13h-293q-17 0 -20 -13l-62 -215q-3 -14 -20 -14zM385 457h150q22 0 22 18q0 9 -10 39l-60 240
q-2 7 -11 56t-11 56h-6q-2 -8 -12.5 -56t-12.5 -56l-61 -238q-11 -38 -11 -41q0 -18 23 -18zM694 1444h-467q-20 0 -20 18v156q0 18 20 18h467q21 0 21 -18v-156q0 -18 -21 -18z" />
    <glyph glyph-name="amacron" unicode="&#x101;" horiz-adv-x="952" 
d="M463 0h-78q-123 0 -206 76.5t-83 197.5v11q0 123 82.5 198.5t206.5 75.5h197q20 0 20 21v24q0 60 -43 99.5t-106 39.5q-84 0 -150 -116q-7 -13 -16 -13q-3 0 -25 11l-156 82q-12 6 -12 14q0 15 43 82q52 77 127 116t189 39q174 0 278.5 -99.5t104.5 -260.5v-578
q0 -20 -21 -20h-174q-20 0 -20 16q0 27 -15 27q-9 0 -18 -6q-67 -37 -125 -37zM385 215h78q49 0 90 35t49 80v32h-217q-23 0 -39 -17t-16 -40v-31q0 -25 15.5 -42t39.5 -17zM709 1104h-467q-21 0 -21 20v174q0 21 21 21h467q20 0 20 -21v-174q0 -20 -20 -20z" />
    <glyph glyph-name="Abreve" unicode="&#x102;" horiz-adv-x="921" 
d="M211 0h-205q-22 0 -22 16q0 4 1.5 9t4 13.5t4.5 14.5l373 1223q3 14 20 14h148q17 0 20 -14l373 -1223q10 -30 10 -37q0 -16 -23 -16h-206q-18 0 -21 14l-61 215q-3 13 -21 13h-293q-17 0 -20 -13l-62 -215q-3 -14 -20 -14zM385 457h150q22 0 22 18q0 9 -10 39l-60 240
q-2 7 -11 56t-11 56h-6q-2 -8 -12.5 -56t-12.5 -56l-61 -238q-11 -38 -11 -41q0 -18 23 -18zM473 1417h-27q-93 0 -148.5 47t-55.5 123v111q0 18 20 18h105q20 0 20 -18v-62q0 -17 18 -30t41 -13h27q24 0 40.5 12.5t16.5 30.5v62q0 18 21 18h106q21 0 21 -18v-111
q0 -76 -56 -123t-149 -47z" />
    <glyph glyph-name="abreve" unicode="&#x103;" horiz-adv-x="952" 
d="M463 0h-78q-123 0 -206 76.5t-83 197.5v11q0 123 82.5 198.5t206.5 75.5h197q20 0 20 21v24q0 60 -43 99.5t-106 39.5q-84 0 -150 -116q-7 -13 -16 -13q-3 0 -25 11l-156 82q-12 6 -12 14q0 15 43 82q52 77 127 116t189 39q174 0 278.5 -99.5t104.5 -260.5v-578
q0 -20 -21 -20h-174q-20 0 -20 16q0 27 -15 27q-9 0 -18 -6q-67 -37 -125 -37zM385 215h78q49 0 90 35t49 80v32h-217q-23 0 -39 -17t-16 -40v-31q0 -25 15.5 -42t39.5 -17zM518 1071h-88q-93 0 -149 54t-56 141v127q0 20 21 20h104q21 0 21 -20v-88q0 -23 18 -40.5
t41 -17.5h88q25 0 41 16.5t16 41.5v88q0 20 21 20h106q21 0 21 -20v-127q0 -87 -56 -141t-149 -54z" />
    <glyph glyph-name="Aogonek" unicode="&#x104;" horiz-adv-x="921" 
d="M1010 -283v-135q0 -20 -19 -20q-23 0 -64.5 10.5t-70.5 24.5q-78 38 -123 106.5t-45 149.5v161l-61 215q-3 13 -21 13h-293q-17 0 -20 -13l-62 -215q-3 -14 -20 -14h-205q-22 0 -22 16q0 4 1.5 9t4 13.5t4.5 14.5l373 1223q3 14 20 14h148q17 0 20 -14l373 -1223
q10 -30 10 -37q0 -16 -23 -16h-36v-160q0 -39 27.5 -67t84.5 -35q19 -3 19 -21zM385 457h150q22 0 22 18q0 9 -10 39l-60 240q-2 7 -11 56t-11 56h-6l-25 -112l-61 -238q-11 -38 -11 -41q0 -18 23 -18z" />
    <glyph glyph-name="aogonek" unicode="&#x105;" horiz-adv-x="952" 
d="M942 -283v-135q0 -20 -18 -20q-23 0 -65 10.5t-71 24.5q-78 38 -122.5 106t-44.5 150v163q0 27 -15 27q-9 0 -18 -6q-67 -37 -125 -37h-78q-123 0 -206 76.5t-83 197.5v11q0 123 82.5 198.5t206.5 75.5h197q20 0 20 21v24q0 60 -43 99.5t-106 39.5q-84 0 -150 -116
q-7 -13 -16 -13q-3 0 -25 11l-156 82q-12 6 -12 14q0 15 43 82q52 77 127 116t189 39q174 0 278.5 -99.5t104.5 -260.5v-578q0 -20 -21 -20h-4v-160q0 -39 28 -67t85 -35q18 -3 18 -21zM385 215h78q49 0 90 35t49 80v32h-217q-23 0 -39 -17t-16 -40v-31q0 -25 15.5 -42
t39.5 -17z" />
    <glyph glyph-name="Cacute" unicode="&#x106;" horiz-adv-x="991" 
d="M590 -20h-101q-173 0 -276.5 100.5t-103.5 261.5v606q0 161 103.5 262t276.5 101h101q218 0 323 -166q39 -67 39 -76q0 -8 -12 -14l-164 -84q-20 -10 -24 -10q-11 0 -17 14q-51 121 -145 121h-101q-60 0 -103.5 -44t-43.5 -104v-606q0 -60 43.5 -103.5t103.5 -43.5h101
q95 0 145 120q6 15 17 15q2 0 24 -11l164 -83q12 -6 12 -15t-39 -76q-50 -79 -126.5 -122t-196.5 -43zM506 1423h-121q-18 0 -18 15q0 5 6 14l170 221q17 21 37 21h231q16 0 16 -19q0 -8 -6 -14l-272 -223q-17 -15 -43 -15z" />
    <glyph glyph-name="cacute" unicode="&#x107;" horiz-adv-x="878" 
d="M668 313l153 -75q13 -6 13 -17q0 -9 -31 -61q-52 -86 -129.5 -133t-202.5 -47q-173 0 -278 100.5t-105 261.5v254q0 161 105 261.5t278 100.5q125 0 202.5 -47t129.5 -133q31 -52 31 -61q0 -11 -13 -17l-153 -75q-30 -15 -35 -15q-11 0 -17 13q-50 120 -145 120
q-62 0 -104.5 -43t-42.5 -104v-254q0 -61 42.5 -104t104.5 -43q95 0 145 120q6 13 17 13q5 0 35 -15zM469 1071h-139q-21 0 -21 16q0 5 13 27l184 283q10 16 29 16h249q23 0 23 -16q0 -11 -14 -25l-291 -287q-18 -14 -33 -14z" />
    <glyph glyph-name="Ccircumflex" unicode="&#x108;" horiz-adv-x="991" 
d="M590 -20h-101q-173 0 -276.5 100.5t-103.5 261.5v606q0 161 103.5 262t276.5 101h101q218 0 323 -166q39 -67 39 -76q0 -8 -12 -14l-164 -84q-20 -10 -24 -10q-11 0 -17 14q-51 121 -145 121h-101q-60 0 -103.5 -44t-43.5 -104v-606q0 -60 43.5 -103.5t103.5 -43.5h101
q95 0 145 120q6 15 17 15q2 0 24 -11l164 -83q12 -6 12 -15t-39 -76q-50 -79 -126.5 -122t-196.5 -43zM430 1417h-135q-7 0 -13 4t-6 9q0 7 7 14l188 260q9 12 25 12h71q16 0 25 -12l188 -260q4 -4 4 -14q0 -13 -16 -13h-135q-16 0 -29 19l-61 102q-8 8 -13 8q-6 0 -10 -8
l-61 -102q-13 -19 -29 -19z" />
    <glyph glyph-name="ccircumflex" unicode="&#x109;" horiz-adv-x="878" 
d="M668 313l153 -75q13 -6 13 -17q0 -9 -31 -61q-52 -86 -129.5 -133t-202.5 -47q-173 0 -278 100.5t-105 261.5v254q0 161 105 261.5t278 100.5q125 0 202.5 -47t129.5 -133q31 -52 31 -61q0 -11 -13 -17l-153 -75q-30 -15 -35 -15q-11 0 -17 13q-50 120 -145 120
q-62 0 -104.5 -43t-42.5 -104v-254q0 -61 42.5 -104t104.5 -43q95 0 145 120q6 13 17 13q5 0 35 -15zM373 1071h-166q-23 0 -23 16q0 8 6 17l213 301q8 8 17 8h100q9 0 17 -8l215 -301q6 -9 6 -17q0 -16 -23 -16h-166q-9 0 -16 10l-68 105q-6 12 -16 12q-8 0 -14 -12
l-66 -105q-7 -10 -16 -10z" />
    <glyph glyph-name="Cdotaccent" unicode="&#x10a;" horiz-adv-x="991" 
d="M590 -20h-101q-173 0 -276.5 100.5t-103.5 261.5v606q0 161 103.5 262t276.5 101h101q218 0 323 -166q39 -67 39 -76q0 -8 -12 -14l-164 -84q-20 -10 -24 -10q-11 0 -17 14q-51 121 -145 121h-101q-60 0 -103.5 -44t-43.5 -104v-606q0 -60 43.5 -103.5t103.5 -43.5h101
q95 0 145 120q6 15 17 15q2 0 24 -11l164 -83q12 -6 12 -15t-39 -76q-50 -79 -126.5 -122t-196.5 -43zM645 1548q0 -47 -33 -79.5t-80 -32.5t-80.5 32.5t-33.5 79.5t33.5 80t80.5 33t80 -33t33 -80z" />
    <glyph glyph-name="cdotaccent" unicode="&#x10b;" horiz-adv-x="878" 
d="M668 313l153 -75q13 -6 13 -17q0 -9 -31 -61q-52 -86 -129.5 -133t-202.5 -47q-173 0 -278 100.5t-105 261.5v254q0 161 105 261.5t278 100.5q125 0 202.5 -47t129.5 -133q31 -52 31 -61q0 -11 -13 -17l-153 -75q-30 -15 -35 -15q-11 0 -17 13q-50 120 -145 120
q-62 0 -104.5 -43t-42.5 -104v-254q0 -61 42.5 -104t104.5 -43q95 0 145 120q6 13 17 13q5 0 35 -15zM598 1219q0 -54 -36.5 -90.5t-90.5 -36.5t-90.5 36.5t-36.5 90.5t36.5 90.5t90.5 36.5t90.5 -36.5t36.5 -90.5z" />
    <glyph glyph-name="Ccaron" unicode="&#x10c;" horiz-adv-x="991" 
d="M590 -20h-101q-173 0 -276.5 100.5t-103.5 261.5v606q0 161 103.5 262t276.5 101h101q218 0 323 -166q39 -67 39 -76q0 -8 -12 -14l-164 -84q-20 -10 -24 -10q-11 0 -17 14q-51 121 -145 121h-101q-60 0 -103.5 -44t-43.5 -104v-606q0 -60 43.5 -103.5t103.5 -43.5h101
q95 0 145 120q6 15 17 15q2 0 24 -11l164 -83q12 -6 12 -15t-39 -76q-50 -79 -126.5 -122t-196.5 -43zM567 1417h-71q-15 0 -25 13l-188 260q-7 7 -7 12q0 14 19 14h135q17 0 29 -18l61 -103q3 -8 10 -8q8 0 13 8l61 103q12 18 29 18h135q16 0 16 -14q0 -8 -4 -12l-188 -260
q-10 -13 -25 -13z" />
    <glyph glyph-name="ccaron" unicode="&#x10d;" horiz-adv-x="878" 
d="M668 313l153 -75q13 -6 13 -17q0 -9 -31 -61q-52 -86 -129.5 -133t-202.5 -47q-173 0 -278 100.5t-105 261.5v254q0 161 105 261.5t278 100.5q125 0 202.5 -47t129.5 -133q31 -52 31 -61q0 -11 -13 -17l-153 -75q-30 -15 -35 -15q-11 0 -17 13q-50 120 -145 120
q-62 0 -104.5 -43t-42.5 -104v-254q0 -61 42.5 -104t104.5 -43q95 0 145 120q6 13 17 13q5 0 35 -15zM520 1071h-100q-9 0 -17 8l-198 281q-21 31 -21 37q0 16 23 16h166q9 0 16 -10l66 -105q6 -12 14 -12q10 0 16 12l68 105q7 10 16 10h166q23 0 23 -16q0 -8 -21 -37
l-200 -281q-8 -8 -17 -8z" />
    <glyph glyph-name="Dcaron" unicode="&#x10e;" horiz-adv-x="1107" 
d="M618 0h-460q-21 0 -21 20v1250q0 20 21 20h460q174 0 277.5 -103.5t103.5 -277.5v-528q0 -175 -103 -278t-278 -103zM393 215h225q61 0 104.5 42.5t43.5 104.5v566q0 60 -44 103.5t-104 43.5h-225q-20 0 -20 -20v-819q0 -21 20 -21zM547 1417h-72q-14 0 -24 13l-189 260
q-6 6 -6 12q0 14 18 14h136q16 0 28 -18l62 -103q3 -8 10 -8t12 8l62 103q12 18 28 18h136q16 0 16 -14q0 -8 -4 -12l-189 -260q-10 -13 -24 -13z" />
    <glyph glyph-name="dcaron" unicode="&#x10f;" horiz-adv-x="1030" 
d="M831 0h-174q-20 0 -20 18q0 23 -16 23q-3 0 -15 -4q-69 -37 -135 -37q-173 0 -278 100.5t-105 261.5v216q0 157 105 258.5t258 101.5q66 0 135 -37q12 -4 14 -4q16 0 16 23v350q0 20 21 20h194q21 0 21 -20v-1250q0 -20 -21 -20zM616 362v216q0 62 -42 103.5t-103 41.5
q-63 0 -105 -41.5t-42 -103.5v-216q0 -63 42 -105t105 -42q62 0 103.5 42t41.5 105zM963 1036l-48 70q-4 8 -4 14q0 10 7 17l14 18q45 71 45 213v43q0 19 14 19h137q15 0 15 -19v-45q0 -235 -156 -336q-4 -2 -10 -2q-11 0 -14 8z" />
    <glyph glyph-name="Dcroat" unicode="&#x110;" horiz-adv-x="1107" 
d="M618 0h-460q-21 0 -21 20v488q0 20 -22 20h-64q-20 0 -20 21v192q0 21 20 21h64q22 0 22 22v486q0 20 21 20h460q174 0 277.5 -103.5t103.5 -277.5v-528q0 -175 -103 -278t-278 -103zM393 215h225q61 0 104.5 42.5t43.5 104.5v566q0 60 -44 103.5t-104 43.5h-225
q-20 0 -20 -20v-273q0 -20 22 -20h156q20 0 20 -21v-192q0 -21 -20 -21h-156q-22 0 -22 -22v-270q0 -21 20 -21z" />
    <glyph glyph-name="dcroat" unicode="&#x111;" horiz-adv-x="968" 
d="M831 0h-174q-20 0 -20 18q0 23 -16 23q-3 0 -15 -4q-69 -37 -135 -37q-173 0 -278 100.5t-105 261.5v216q0 157 105 258.5t258 101.5q66 0 135 -37q12 -4 14 -4q16 0 16 23v92q0 18 -22 18h-174q-19 0 -19 21v100q0 18 19 18h174q19 0 22 15v86q0 20 21 20h194
q21 0 21 -20v-82q4 -19 20 -19h62q20 0 20 -18v-100q0 -21 -20 -21h-62q-20 0 -20 -14v-996q0 -20 -21 -20zM616 362v216q0 62 -42 103.5t-103 41.5q-63 0 -105 -41.5t-42 -103.5v-216q0 -63 42 -105t105 -42q62 0 103.5 42t41.5 105z" />
    <glyph glyph-name="Emacron" unicode="&#x112;" horiz-adv-x="978" 
d="M881 0h-723q-21 0 -21 20v1250q0 20 21 20h723q20 0 20 -20v-174q0 -21 -20 -21h-488q-20 0 -20 -20v-273q0 -20 20 -20h400q20 0 20 -21v-174q0 -20 -20 -20h-400q-20 0 -20 -21v-290q0 -21 20 -21h488q20 0 20 -20v-175q0 -20 -20 -20zM756 1444h-467q-21 0 -21 18v156
q0 18 21 18h467q20 0 20 -18v-156q0 -18 -20 -18z" />
    <glyph glyph-name="emacron" unicode="&#x113;" horiz-adv-x="940" 
d="M668 313l153 -75q13 -6 13 -17q0 -9 -31 -61q-52 -86 -129.5 -133t-202.5 -47q-173 0 -278 100.5t-105 261.5v254q0 87 46 169t136 137.5t201 55.5q110 0 199.5 -55.5t135.5 -137.5t46 -169v-166q0 -20 -21 -20h-487q-20 0 -20 -21v-47q0 -61 42.5 -104t104.5 -43
q95 0 145 120q6 13 17 13q5 0 35 -15zM348 606h244q22 0 22 19q0 30 -38.5 74t-104.5 44q-46 0 -81 -24.5t-49.5 -50.5t-14.5 -43q0 -19 22 -19zM702 1104h-466q-21 0 -21 20v174q0 21 21 21h466q21 0 21 -21v-174q0 -20 -21 -20z" />
    <glyph glyph-name="Ebreve" unicode="&#x114;" horiz-adv-x="978" 
d="M881 0h-723q-21 0 -21 20v1250q0 20 21 20h723q20 0 20 -20v-174q0 -21 -20 -21h-488q-20 0 -20 -20v-273q0 -20 20 -20h400q20 0 20 -21v-174q0 -20 -20 -20h-400q-20 0 -20 -21v-290q0 -21 20 -21h488q20 0 20 -20v-175q0 -20 -20 -20zM535 1417h-27q-93 0 -149 47
t-56 123v111q0 18 21 18h104q21 0 21 -18v-62q0 -17 18 -30t41 -13h27q24 0 40.5 12.5t16.5 30.5v62q0 18 20 18h107q20 0 20 -18v-111q0 -76 -55.5 -123t-148.5 -47z" />
    <glyph glyph-name="ebreve" unicode="&#x115;" horiz-adv-x="940" 
d="M668 313l153 -75q13 -6 13 -17q0 -9 -31 -61q-52 -86 -129.5 -133t-202.5 -47q-173 0 -278 100.5t-105 261.5v254q0 87 46 169t136 137.5t201 55.5q110 0 199.5 -55.5t135.5 -137.5t46 -169v-166q0 -20 -21 -20h-487q-20 0 -20 -21v-47q0 -61 42.5 -104t104.5 -43
q95 0 145 120q6 13 17 13q5 0 35 -15zM348 606h244q22 0 22 19q0 30 -38.5 74t-104.5 44q-46 0 -81 -24.5t-49.5 -50.5t-14.5 -43q0 -19 22 -19zM512 1071h-88q-93 0 -149 54t-56 141v127q0 20 21 20h104q21 0 21 -20v-88q0 -23 18 -40.5t41 -17.5h88q25 0 41 16.5t16 41.5
v88q0 20 21 20h106q21 0 21 -20v-127q0 -87 -56 -141t-149 -54z" />
    <glyph glyph-name="Edotaccent" unicode="&#x116;" horiz-adv-x="978" 
d="M881 0h-723q-21 0 -21 20v1250q0 20 21 20h723q20 0 20 -20v-174q0 -21 -20 -21h-488q-20 0 -20 -20v-273q0 -20 20 -20h400q20 0 20 -21v-174q0 -20 -20 -20h-400q-20 0 -20 -21v-290q0 -21 20 -21h488q20 0 20 -20v-175q0 -20 -20 -20zM635 1548q0 -47 -33 -79.5
t-80 -32.5t-80.5 32.5t-33.5 79.5t33.5 80t80.5 33t80 -33t33 -80z" />
    <glyph glyph-name="edotaccent" unicode="&#x117;" horiz-adv-x="940" 
d="M668 313l153 -75q13 -6 13 -17q0 -9 -31 -61q-52 -86 -129.5 -133t-202.5 -47q-173 0 -278 100.5t-105 261.5v254q0 87 46 169t136 137.5t201 55.5q110 0 199.5 -55.5t135.5 -137.5t46 -169v-166q0 -20 -21 -20h-487q-20 0 -20 -21v-47q0 -61 42.5 -104t104.5 -43
q95 0 145 120q6 13 17 13q5 0 35 -15zM348 606h244q22 0 22 19q0 30 -38.5 74t-104.5 44q-46 0 -81 -24.5t-49.5 -50.5t-14.5 -43q0 -19 22 -19zM596 1219q0 -54 -36.5 -90.5t-90.5 -36.5t-90.5 36.5t-36.5 90.5t36.5 90.5t90.5 36.5t90.5 -36.5t36.5 -90.5z" />
    <glyph glyph-name="Eogonek" unicode="&#x118;" horiz-adv-x="978" 
d="M881 -283v-135q0 -20 -19 -20q-23 0 -64.5 10.5t-70.5 24.5q-78 38 -123 106.5t-45 149.5v147h-401q-21 0 -21 20v1250q0 20 21 20h723q20 0 20 -20v-174q0 -21 -20 -21h-488q-20 0 -20 -20v-273q0 -20 20 -20h400q20 0 20 -21v-174q0 -20 -20 -20h-400q-20 0 -20 -21
v-290q0 -21 20 -21h488q20 0 20 -20v-175q0 -20 -20 -20h-131v-160q0 -39 27.5 -67t84.5 -35q19 -3 19 -21z" />
    <glyph glyph-name="eogonek" unicode="&#x119;" horiz-adv-x="940" 
d="M737 -283v-135q0 -20 -18 -20q-23 0 -64.5 10.5t-70.5 24.5q-78 38 -123 106.5t-45 149.5v129q-151 15 -239.5 113t-88.5 247v254q0 87 46 169t136 137.5t201 55.5q110 0 199.5 -55.5t135.5 -137.5t46 -169v-166q0 -20 -21 -20h-487q-20 0 -20 -21v-47q0 -61 42.5 -104
t104.5 -43q95 0 145 120q6 13 17 13q5 0 35 -15l153 -75q13 -6 13 -17q0 -9 -31 -61q-75 -124 -197 -162v-158q0 -39 28 -67t85 -35q18 -3 18 -21zM348 606h244q22 0 22 19q0 30 -38.5 74t-104.5 44q-46 0 -81 -24.5t-49.5 -50.5t-14.5 -43q0 -19 22 -19z" />
    <glyph glyph-name="Ecaron" unicode="&#x11a;" horiz-adv-x="978" 
d="M881 0h-723q-21 0 -21 20v1250q0 20 21 20h723q20 0 20 -20v-174q0 -21 -20 -21h-488q-20 0 -20 -20v-273q0 -20 20 -20h400q20 0 20 -21v-174q0 -20 -20 -20h-400q-20 0 -20 -21v-290q0 -21 20 -21h488q20 0 20 -20v-175q0 -20 -20 -20zM557 1417h-72q-14 0 -24 13
l-189 260q-6 6 -6 12q0 14 19 14h135q17 0 29 -18l61 -103q3 -8 10 -8t12 8l62 103q12 18 29 18h135q16 0 16 -14q0 -8 -4 -12l-188 -260q-10 -13 -25 -13z" />
    <glyph glyph-name="ecaron" unicode="&#x11b;" horiz-adv-x="940" 
d="M668 313l153 -75q13 -6 13 -17q0 -9 -31 -61q-52 -86 -129.5 -133t-202.5 -47q-173 0 -278 100.5t-105 261.5v254q0 87 46 169t136 137.5t201 55.5q110 0 199.5 -55.5t135.5 -137.5t46 -169v-166q0 -20 -21 -20h-487q-20 0 -20 -21v-47q0 -61 42.5 -104t104.5 -43
q95 0 145 120q6 13 17 13q5 0 35 -15zM348 606h244q22 0 22 19q0 30 -38.5 74t-104.5 44q-46 0 -81 -24.5t-49.5 -50.5t-14.5 -43q0 -19 22 -19zM518 1071h-100q-9 0 -17 8l-198 281q-21 31 -21 37q0 16 23 16h166q9 0 16 -10l66 -105q6 -12 14 -12q10 0 16 12l68 105
q7 10 16 10h166q23 0 23 -16q0 -8 -21 -37l-200 -281q-8 -8 -17 -8z" />
    <glyph glyph-name="Gcircumflex" unicode="&#x11c;" horiz-adv-x="1079" 
d="M590 -20h-101q-173 0 -276.5 100.5t-103.5 261.5v606q0 161 103.5 262t276.5 101h136q218 0 323 -166q39 -67 39 -76q0 -8 -12 -14l-164 -84q-20 -10 -25 -10q-10 0 -16 14q-51 121 -145 121h-136q-60 0 -103.5 -44t-43.5 -104v-606q0 -60 43.5 -103.5t103.5 -43.5h101
q61 0 103 42.5t42 104.5v96q0 21 -20 21h-193q-20 0 -20 20v174q0 21 20 21h428q21 0 21 -21v-311q0 -161 -104.5 -261.5t-276.5 -100.5zM453 1417h-136q-7 0 -12.5 4t-5.5 9q0 8 6 14l189 260q9 12 24 12h72q15 0 24 -12l189 -260q4 -4 4 -14q0 -13 -16 -13h-136
q-15 0 -28 19l-62 102q-8 8 -12 8q-6 0 -10 -8l-62 -102q-13 -19 -28 -19z" />
    <glyph glyph-name="gcircumflex" unicode="&#x11d;" horiz-adv-x="940" 
d="M645 -461h-262q-129 0 -212 67.5t-83 186.5v60q0 117 105 198q8 8 8 17q0 6 -9.5 19t-19.5 37.5t-10 57.5q0 29 7 53t15.5 36.5t15.5 22.5t7 13q0 9 -6 15q-113 110 -113 247v29q0 156 108.5 248t274.5 92q47 0 113 -27q33 -14 37 -14q16 0 16 23q0 18 20 18h174
q21 0 21 -20v-338q0 -157 -109 -256t-272 -99h-49q-16 0 -28.5 -16t-12.5 -41q0 -28 12.5 -45t32.5 -17h219q130 0 212.5 -66.5t82.5 -186.5v-60q0 -119 -83 -186.5t-212 -67.5zM616 569v29q0 61 -41.5 101t-103.5 40q-63 0 -105 -40t-42 -101v-29q0 -59 41.5 -96t105.5 -37
q63 0 104 36.5t41 96.5zM383 -266h262q26 0 43 17.5t17 41.5v60q0 26 -17 42.5t-43 16.5h-262q-26 0 -42.5 -16.5t-16.5 -42.5v-60q0 -24 16.5 -41.5t42.5 -17.5zM371 1071h-166q-23 0 -23 16q0 8 6 17l213 301q8 8 17 8h100q9 0 17 -8l215 -301q6 -9 6 -17q0 -16 -23 -16
h-166q-9 0 -16 10l-68 105q-6 12 -16 12q-8 0 -14 -12l-66 -105q-7 -10 -16 -10z" />
    <glyph glyph-name="Gbreve" unicode="&#x11e;" horiz-adv-x="1079" 
d="M590 -20h-101q-173 0 -276.5 100.5t-103.5 261.5v606q0 161 103.5 262t276.5 101h136q218 0 323 -166q39 -67 39 -76q0 -8 -12 -14l-164 -84q-20 -10 -25 -10q-10 0 -16 14q-51 121 -145 121h-136q-60 0 -103.5 -44t-43.5 -104v-606q0 -60 43.5 -103.5t103.5 -43.5h101
q61 0 103 42.5t42 104.5v96q0 21 -20 21h-193q-20 0 -20 20v174q0 21 20 21h428q21 0 21 -21v-311q0 -161 -104.5 -261.5t-276.5 -100.5zM567 1417h-26q-93 0 -149 47t-56 123v111q0 18 20 18h105q20 0 20 -18v-62q0 -17 18.5 -30t41.5 -13h26q24 0 41 12.5t17 30.5v62
q0 18 20 18h107q20 0 20 -18v-111q0 -76 -56 -123t-149 -47z" />
    <glyph glyph-name="gbreve" unicode="&#x11f;" horiz-adv-x="940" 
d="M645 -461h-262q-129 0 -212 67.5t-83 186.5v60q0 117 105 198q8 8 8 17q0 6 -9.5 19t-19.5 37.5t-10 57.5q0 29 7 53t15.5 36.5t15.5 22.5t7 13q0 9 -6 15q-113 110 -113 247v29q0 156 108.5 248t274.5 92q47 0 113 -27q33 -14 37 -14q16 0 16 23q0 18 20 18h174
q21 0 21 -20v-338q0 -157 -109 -256t-272 -99h-49q-16 0 -28.5 -16t-12.5 -41q0 -28 12.5 -45t32.5 -17h219q130 0 212.5 -66.5t82.5 -186.5v-60q0 -119 -83 -186.5t-212 -67.5zM616 569v29q0 61 -41.5 101t-103.5 40q-63 0 -105 -40t-42 -101v-29q0 -59 41.5 -96t105.5 -37
q63 0 104 36.5t41 96.5zM383 -266h262q26 0 43 17.5t17 41.5v60q0 26 -17 42.5t-43 16.5h-262q-26 0 -42.5 -16.5t-16.5 -42.5v-60q0 -24 16.5 -41.5t42.5 -17.5zM512 1071h-88q-93 0 -149 54t-56 141v127q0 20 21 20h104q21 0 21 -20v-88q0 -23 18 -40.5t41 -17.5h88
q25 0 41 16.5t16 41.5v88q0 20 21 20h106q21 0 21 -20v-127q0 -87 -56 -141t-149 -54z" />
    <glyph glyph-name="Gdotaccent" unicode="&#x120;" horiz-adv-x="1079" 
d="M590 -20h-101q-173 0 -276.5 100.5t-103.5 261.5v606q0 161 103.5 262t276.5 101h136q218 0 323 -166q39 -67 39 -76q0 -8 -12 -14l-164 -84q-20 -10 -25 -10q-10 0 -16 14q-51 121 -145 121h-136q-60 0 -103.5 -44t-43.5 -104v-606q0 -60 43.5 -103.5t103.5 -43.5h101
q61 0 103 42.5t42 104.5v96q0 21 -20 21h-193q-20 0 -20 20v174q0 21 20 21h428q21 0 21 -21v-311q0 -161 -104.5 -261.5t-276.5 -100.5zM668 1548q0 -47 -33 -79.5t-80 -32.5q-48 0 -81.5 32.5t-33.5 79.5t34 80t81 33t80 -33t33 -80z" />
    <glyph glyph-name="gdotaccent" unicode="&#x121;" horiz-adv-x="940" 
d="M645 -461h-262q-129 0 -212 67.5t-83 186.5v60q0 117 105 198q8 8 8 17q0 6 -9.5 19t-19.5 37.5t-10 57.5q0 29 7 53t15.5 36.5t15.5 22.5t7 13q0 9 -6 15q-113 110 -113 247v29q0 156 108.5 248t274.5 92q47 0 113 -27q33 -14 37 -14q16 0 16 23q0 18 20 18h174
q21 0 21 -20v-338q0 -157 -109 -256t-272 -99h-49q-16 0 -28.5 -16t-12.5 -41q0 -28 12.5 -45t32.5 -17h219q130 0 212.5 -66.5t82.5 -186.5v-60q0 -119 -83 -186.5t-212 -67.5zM616 569v29q0 61 -41.5 101t-103.5 40q-63 0 -105 -40t-42 -101v-29q0 -59 41.5 -96t105.5 -37
q63 0 104 36.5t41 96.5zM383 -266h262q26 0 43 17.5t17 41.5v60q0 26 -17 42.5t-43 16.5h-262q-26 0 -42.5 -16.5t-16.5 -42.5v-60q0 -24 16.5 -41.5t42.5 -17.5zM596 1219q0 -54 -36.5 -90.5t-90.5 -36.5t-90.5 36.5t-36.5 90.5t36.5 90.5t90.5 36.5t90.5 -36.5t36.5 -90.5
z" />
    <glyph glyph-name="Gcommaaccent" unicode="&#x122;" horiz-adv-x="1079" 
d="M590 -20h-101q-173 0 -276.5 100.5t-103.5 261.5v606q0 161 103.5 262t276.5 101h136q218 0 323 -166q39 -67 39 -76q0 -8 -12 -14l-164 -84q-20 -10 -25 -10q-10 0 -16 14q-51 121 -145 121h-136q-60 0 -103.5 -44t-43.5 -104v-606q0 -60 43.5 -103.5t103.5 -43.5h101
q61 0 103 42.5t42 104.5v96q0 21 -20 21h-193q-20 0 -20 20v174q0 21 20 21h428q21 0 21 -21v-311q0 -161 -104.5 -261.5t-276.5 -100.5zM451 -506l-58 94q-4 4 -4 15q0 10 6 16l17 19q57 72 57 200v43q0 19 18 19h170q19 0 19 -19v-45q0 -115 -47.5 -205.5t-147.5 -142.5
q-4 -2 -12 -2q-13 0 -18 8z" />
    <glyph glyph-name="gcommaaccent" unicode="&#x123;" horiz-adv-x="940" 
d="M645 -461h-262q-129 0 -212 67.5t-83 186.5v60q0 117 105 198q8 8 8 17q0 6 -9.5 19t-19.5 37.5t-10 57.5q0 29 7 53t15.5 36.5t15.5 22.5t7 13q0 9 -6 15q-113 110 -113 247v29q0 156 108.5 248t274.5 92q47 0 113 -27q33 -14 37 -14q16 0 16 23q0 18 20 18h174
q21 0 21 -20v-338q0 -157 -109 -256t-272 -99h-49q-16 0 -28.5 -16t-12.5 -41q0 -28 12.5 -45t32.5 -17h219q130 0 212.5 -66.5t82.5 -186.5v-60q0 -119 -83 -186.5t-212 -67.5zM616 569v29q0 61 -41.5 101t-103.5 40q-63 0 -105 -40t-42 -101v-29q0 -59 41.5 -96t105.5 -37
q63 0 104 36.5t41 96.5zM383 -266h262q26 0 43 17.5t17 41.5v60q0 26 -17 42.5t-43 16.5h-262q-26 0 -42.5 -16.5t-16.5 -42.5v-60q0 -24 16.5 -41.5t42.5 -17.5zM514 1059h-172q-18 0 -18 18v47q0 113 48 204.5t146 141.5q10 5 14 5q8 0 17 -9l59 -96q4 -8 4 -12
q0 -12 -8 -17q-38 -58 -55 -104t-17 -115v-45q0 -18 -18 -18z" />
    <glyph glyph-name="Hcircumflex" unicode="&#x124;" horiz-adv-x="1167" 
d="M352 0h-194q-21 0 -21 20v1250q0 20 21 20h194q21 0 21 -20v-488q0 -20 20 -20h381q21 0 21 20v488q0 20 20 20h193q20 0 20 -20v-1250q0 -20 -20 -20h-193q-20 0 -20 20v506q0 21 -21 21h-381q-20 0 -20 -21v-506q0 -20 -21 -20zM481 1417h-135q-7 0 -12.5 4t-5.5 9
q0 8 6 14l188 260q9 12 25 12h71q16 0 25 -12l188 -260q5 -5 5 -14q0 -5 -5 -9t-12 -4h-135q-16 0 -29 19l-61 102q-8 8 -12 8q-7 0 -11 -8l-61 -102q-13 -19 -29 -19z" />
    <glyph glyph-name="hcircumflex" unicode="&#x125;" horiz-adv-x="989" 
d="M332 0h-193q-20 0 -20 20v1250q0 20 20 20h193q20 0 20 -20v-350q0 -23 17 -23q2 0 14 4q69 37 135 37q155 0 259 -101t104 -259v-558q0 -20 -21 -20h-194q-21 0 -21 20v558q0 62 -41.5 103.5t-103.5 41.5t-105 -42t-43 -103v-558q0 -20 -20 -20zM150 1417h-136
q-7 0 -12.5 4t-5.5 9q0 8 6 14l188 260q9 12 25 12h72q15 0 24 -12l189 -260q4 -4 4 -14q0 -5 -5 -9t-12 -4h-135q-15 0 -28 19l-62 102q-8 8 -12 8q-6 0 -10 -8l-62 -102q-13 -19 -28 -19z" />
    <glyph glyph-name="Hbar" unicode="&#x126;" horiz-adv-x="1167" 
d="M352 0h-194q-21 0 -21 20v889q-4 15 -22 15h-23q-18 0 -18 20v131q0 21 18 21h23q22 0 22 22v152q0 20 21 20h194q21 0 21 -20v-156q3 -18 22 -18h377q20 0 23 14v160q0 20 20 20h193q20 0 20 -20v-160q3 -14 23 -14h22q19 0 19 -21v-131q0 -20 -19 -20h-22
q-23 0 -23 -17v-887q0 -20 -20 -20h-193q-20 0 -20 20v506q0 21 -21 21h-381q-20 0 -20 -21v-506q0 -20 -21 -20zM393 762h381q21 0 21 20v127q-4 15 -23 15h-377q-18 0 -22 -13v-129q0 -20 20 -20z" />
    <glyph glyph-name="hbar" unicode="&#x127;" horiz-adv-x="989" 
d="M332 0h-193q-20 0 -20 20v996q-3 14 -21 14h-61q-21 0 -21 21v100q0 18 21 18h61q9 0 15 7t6 18v76q0 20 20 20h193q20 0 20 -20v-86q3 -15 23 -15h176q18 0 18 -18v-100q0 -21 -18 -21h-176q-19 0 -23 -14v-96q0 -23 17 -23q2 0 14 4q69 37 135 37q155 0 259 -101
t104 -259v-558q0 -20 -21 -20h-194q-21 0 -21 20v558q0 62 -41.5 103.5t-103.5 41.5t-105 -42t-43 -103v-558q0 -20 -20 -20z" />
    <glyph glyph-name="Itilde" unicode="&#x128;" horiz-adv-x="509" 
d="M352 0h-194q-21 0 -21 20v1250q0 20 21 20h194q21 0 21 -20v-1250q0 -20 -21 -20zM31 1444l-64 45q-10 7 -10 16q0 3 4 11q43 78 90 106.5t107 28.5q44 0 102.5 -31t83.5 -31q27 0 49 12.5t49 45.5q9 12 17 12t12 -4l68 -49q8 -5 8 -19q0 -6 -2 -10q-76 -135 -203 -135
q-38 0 -98.5 31.5t-87.5 31.5q-60 0 -95 -55q-6 -12 -16 -12q-8 0 -14 6z" />
    <glyph glyph-name="itilde" unicode="&#x129;" horiz-adv-x="471" 
d="M332 0h-193q-20 0 -20 20v898q0 20 20 20h193q20 0 20 -20v-898q0 -20 -20 -20zM-10 1128l-70 52q-8 5 -8 16q0 10 29 57q76 119 178 119q65 0 139 -53l35 -25q29 -22 57 -22q46 0 88 69q6 13 17 13q5 0 22 -13l74 -59q8 -5 8 -16q0 -14 -37 -70q-77 -113 -172 -113
q-21 0 -46.5 9.5t-42.5 19t-52 31.5l-37 22q-34 21 -53 21q-41 0 -84 -64q-6 -12 -17 -12q-6 0 -28 18z" />
    <glyph glyph-name="Imacron" unicode="&#x12a;" horiz-adv-x="509" 
d="M352 0h-194q-21 0 -21 20v1250q0 20 21 20h194q21 0 21 -20v-1250q0 -20 -21 -20zM487 1444h-467q-20 0 -20 18v156q0 18 20 18h467q21 0 21 -18v-156q0 -18 -21 -18z" />
    <glyph glyph-name="imacron" unicode="&#x12b;" horiz-adv-x="471" 
d="M332 0h-193q-20 0 -20 20v898q0 20 20 20h193q20 0 20 -20v-898q0 -20 -20 -20zM469 1104h-467q-20 0 -20 20v174q0 21 20 21h467q20 0 20 -21v-174q0 -20 -20 -20z" />
    <glyph glyph-name="Ibreve" unicode="&#x12c;" horiz-adv-x="509" 
d="M352 0h-194q-21 0 -21 20v1250q0 20 21 20h194q21 0 21 -20v-1250q0 -20 -21 -20zM266 1417h-26q-93 0 -149 47t-56 123v111q0 18 20 18h105q20 0 20 -18v-62q0 -17 18.5 -30t41.5 -13h26q24 0 41 12.5t17 30.5v62q0 18 20 18h107q20 0 20 -18v-111q0 -76 -56 -123
t-149 -47z" />
    <glyph glyph-name="ibreve" unicode="&#x12d;" horiz-adv-x="471" 
d="M332 0h-193q-20 0 -20 20v898q0 20 20 20h193q20 0 20 -20v-898q0 -20 -20 -20zM279 1071h-89q-93 0 -148.5 54t-55.5 141v127q0 20 20 20h105q20 0 20 -20v-88q0 -23 18 -40.5t41 -17.5h89q25 0 41 16.5t16 41.5v88q0 20 20 20h107q20 0 20 -20v-127q0 -87 -55.5 -141
t-148.5 -54z" />
    <glyph glyph-name="Iogonek" unicode="&#x12e;" horiz-adv-x="509" 
d="M459 -283v-135q0 -20 -19 -20q-124 0 -213.5 89t-89.5 202v1417q0 20 21 20h194q21 0 21 -20v-1250q0 -20 -21 -20h-24v-160q0 -39 27.5 -67t84.5 -35q19 -3 19 -21z" />
    <glyph glyph-name="iogonek" unicode="&#x12f;" horiz-adv-x="471" 
d="M440 -283v-135q0 -20 -18 -20q-23 0 -64.5 10.5t-70.5 24.5q-78 38 -123 106.5t-45 149.5v243v4v818q0 20 20 20h193q20 0 20 -20v-898q0 -20 -20 -20h-23v-160q0 -39 28 -67t85 -35q18 -3 18 -21zM373 1174q0 -56 -41 -97t-96 -41q-56 0 -97 41t-41 97q0 55 41 96t97 41
t96.5 -40.5t40.5 -96.5z" />
    <glyph glyph-name="Idotaccent" unicode="&#x130;" horiz-adv-x="509" 
d="M352 0h-194q-21 0 -21 20v1250q0 20 21 20h194q21 0 21 -20v-1250q0 -20 -21 -20zM367 1548q0 -47 -33 -79.5t-80 -32.5q-48 0 -81.5 32.5t-33.5 79.5t34 80t81 33t80 -33t33 -80z" />
    <glyph glyph-name="dotlessi" unicode="&#x131;" horiz-adv-x="471" 
d="M332 0h-193q-20 0 -20 20v898q0 20 20 20h193q20 0 20 -20v-898q0 -20 -20 -20z" />
    <glyph glyph-name="Jcircumflex" unicode="&#x134;" horiz-adv-x="878" 
d="M18 242l156 73q34 15 37 15q9 0 16 -13q46 -122 146 -122q61 0 103 42.5t42 104.5v928q0 20 21 20h194q21 0 21 -20v-908q0 -159 -112 -270.5t-269 -111.5q-86 0 -170 44t-146 117q-53 63 -53 84q0 11 14 17zM526 1417h-135q-7 0 -12.5 4t-5.5 9q0 8 6 14l188 260
q9 12 25 12h72q15 0 24 -12l189 -260q4 -4 4 -14q0 -5 -5 -9t-12 -4h-135q-16 0 -29 19l-61 102q-8 8 -12 8q-7 0 -11 -8l-61 -102q-13 -19 -29 -19z" />
    <glyph glyph-name="jcircumflex" unicode="&#x135;" horiz-adv-x="471" 
d="M-57 -461v174q0 21 18 21q76 6 117 46.5t41 98.5v1039q0 20 20 20h193q20 0 20 -20v-1020q0 -114 -62 -205t-171 -137q-91 -37 -156 -37q-20 0 -20 20zM137 1071h-166q-22 0 -22 16q0 8 6 17l213 301q8 8 16 8h101q8 0 16 -8l215 -301q6 -9 6 -17q0 -16 -22 -16h-166
q-10 0 -17 10l-67 105q-6 12 -17 12q-8 0 -14 -12l-65 -105q-7 -10 -17 -10z" />
    <glyph glyph-name="Kcommaaccent" unicode="&#x136;" horiz-adv-x="1067" 
d="M352 0h-194q-21 0 -21 20v1250q0 20 21 20h194q21 0 21 -20v-455q0 -10 5 -17t13 -7q10 0 19 12l364 479q8 8 17 8h235q23 0 23 -16q0 -6 -7 -17l-385 -477q-14 -18 -14 -26q0 -6 12 -27l420 -680q15 -26 15 -31q0 -16 -23 -16h-240q-9 0 -16 10l-322 514q-11 15 -18 15
q-9 0 -16 -11l-66 -88q-16 -22 -16 -49v-371q0 -20 -21 -20zM449 -506l-58 94q-4 4 -4 15q0 10 6 16l17 19q57 72 57 200v43q0 19 18 19h170q19 0 19 -19v-45q0 -115 -47.5 -205.5t-147.5 -142.5q-4 -2 -12 -2q-13 0 -18 8z" />
    <glyph glyph-name="kcommaaccent" unicode="&#x137;" horiz-adv-x="919" 
d="M332 0h-193q-20 0 -20 20v1250q0 20 20 20h193q20 0 20 -20v-561q0 -10 5.5 -16.5t13.5 -6.5t16 8l209 230q14 14 29 14h237q23 0 23 -16q0 -11 -8 -19l-275 -280q-12 -15 -12 -25q0 -8 12 -29l326 -526q12 -20 12 -27q0 -16 -22 -16h-240q-12 0 -19 10l-235 387
q-6 13 -16 13q-8 0 -17 -9l-29 -28q-10 -10 -10 -23v-330q0 -20 -20 -20zM375 -506l-58 94q-4 4 -4 15q0 10 6 16l17 19q57 72 57 200v43q0 19 19 19h170q18 0 18 -19v-45q0 -115 -47 -205.5t-147 -142.5q-4 -2 -13 -2q-13 0 -18 8z" />
    <glyph glyph-name="kgreenlandic" unicode="&#x138;" horiz-adv-x="919" 
d="M332 0h-193q-20 0 -20 20v898q0 20 20 20h193q20 0 20 -20v-209q0 -10 5.5 -16.5t13.5 -6.5t16 8l209 230q14 14 29 14h237q23 0 23 -16q0 -11 -8 -19l-275 -280q-12 -15 -12 -25q0 -8 12 -29l326 -526q12 -20 12 -27q0 -16 -22 -16h-240q-12 0 -19 10l-235 387
q-6 13 -16 13q-8 0 -17 -9l-29 -28q-10 -10 -10 -23v-330q0 -20 -20 -20z" />
    <glyph glyph-name="Lacute" unicode="&#x139;" horiz-adv-x="929" 
d="M881 0h-723q-21 0 -21 20v1250q0 20 21 20h194q21 0 21 -20v-1034q0 -21 20 -21h488q20 0 20 -20v-175q0 -20 -20 -20zM315 1423h-120q-19 0 -19 15q0 5 6 14l170 221q18 21 37 21h232q16 0 16 -19q0 -8 -6 -14l-273 -223q-17 -15 -43 -15z" />
    <glyph glyph-name="lacute" unicode="&#x13a;" horiz-adv-x="471" 
d="M332 0h-193q-20 0 -20 20v1250q0 20 20 20h193q20 0 20 -20v-1250q0 -20 -20 -20zM270 1423h-120q-19 0 -19 15q0 5 6 14l170 221q18 21 37 21h231q7 0 12 -5.5t5 -13.5t-6 -14l-273 -223q-18 -15 -43 -15z" />
    <glyph glyph-name="Lcommaaccent" unicode="&#x13b;" horiz-adv-x="929" 
d="M881 0h-723q-21 0 -21 20v1250q0 20 21 20h194q21 0 21 -20v-1034q0 -21 20 -21h488q20 0 20 -20v-175q0 -20 -20 -20zM422 -506l-57 94q-5 5 -5 15q0 9 7 16l16 19q57 72 57 200v43q0 19 19 19h170q18 0 18 -19v-45q0 -115 -47 -205.5t-147 -142.5q-4 -2 -13 -2
q-13 0 -18 8z" />
    <glyph glyph-name="lcommaaccent" unicode="&#x13c;" horiz-adv-x="471" 
d="M332 0h-193q-20 0 -20 20v1250q0 20 20 20h193q20 0 20 -20v-1250q0 -20 -20 -20zM131 -506l-57 94q-4 4 -4 15q0 10 6 16l16 19q58 73 58 200v43q0 19 18 19h170q18 0 18 -19v-45q0 -115 -47 -205.5t-147 -142.5q-4 -2 -12 -2q-14 0 -19 8z" />
    <glyph glyph-name="Lcaron" unicode="&#x13d;" horiz-adv-x="929" 
d="M881 0h-723q-21 0 -21 20v1250q0 20 21 20h194q21 0 21 -20v-1034q0 -21 20 -21h488q20 0 20 -20v-175q0 -20 -20 -20zM487 1036l-47 70q-4 8 -4 14q0 11 6 17l15 18q45 71 45 213v43q0 19 14 19h137q15 0 15 -19v-45q0 -235 -156 -336q-4 -2 -10 -2q-12 0 -15 8z" />
    <glyph glyph-name="lcaron" unicode="&#x13e;" horiz-adv-x="532" 
d="M332 0h-193q-20 0 -20 20v1250q0 20 20 20h193q20 0 20 -20v-1250q0 -20 -20 -20zM463 1036l-47 70q-4 8 -4 14q0 11 6 17l14 18q45 71 45 213v43q0 19 15 19h137q14 0 14 -19v-45q0 -235 -156 -336q-4 -2 -10 -2q-11 0 -14 8z" />
    <glyph glyph-name="Ldot" unicode="&#x13f;" horiz-adv-x="929" 
d="M881 0h-723q-21 0 -21 20v1250q0 20 21 20h194q21 0 21 -20v-1034q0 -21 20 -21h488q20 0 20 -20v-175q0 -20 -20 -20zM729 643q0 -54 -36.5 -90.5t-90.5 -36.5t-90.5 36.5t-36.5 90.5t36.5 90.5t90.5 36.5t90.5 -36.5t36.5 -90.5z" />
    <glyph glyph-name="ldot" unicode="&#x140;" horiz-adv-x="602" 
d="M668 643q0 -54 -36.5 -90.5t-90.5 -36.5t-90.5 36.5t-36.5 90.5t36.5 90.5t90.5 36.5t90.5 -36.5t36.5 -90.5zM332 0h-193q-20 0 -20 20v1250q0 20 20 20h193q20 0 20 -20v-1250q0 -20 -20 -20z" />
    <glyph glyph-name="Lslash" unicode="&#x141;" horiz-adv-x="929" 
d="M881 0h-723q-21 0 -21 20v381q0 21 -10 21q-4 0 -12 -8l-13 -13q-8 -8 -16 -8t-14 6l-103 95q-8 5 -8 14q0 6 8 14l146 144q22 22 22 51v553q0 20 21 20h194q21 0 21 -20v-322q0 -14 8 -14q4 0 10 6l12 12q9 9 15 9q5 0 14 -9l100 -94q9 -6 9 -14q0 -6 -9 -15l-141 -141
q-18 -18 -18 -43v-409q0 -21 20 -21h488q20 0 20 -20v-175q0 -20 -20 -20z" />
    <glyph glyph-name="lslash" unicode="&#x142;" horiz-adv-x="471" 
d="M332 0h-193q-20 0 -20 20v381q0 21 -10 21q-5 0 -13 -8l-12 -13q-8 -8 -16 -8q-9 0 -15 6l-102 95q-8 5 -8 14q0 6 8 14l145 144q23 23 23 51v553q0 20 20 20h193q20 0 20 -20v-322q0 -14 8 -14q5 0 11 6l12 12q9 9 14 9q6 0 15 -9l100 -94q8 -5 8 -14q0 -7 -8 -15
l-141 -141q-19 -19 -19 -43v-625q0 -20 -20 -20z" />
    <glyph glyph-name="Nacute" unicode="&#x143;" horiz-adv-x="1126" 
d="M352 0h-194q-21 0 -21 20v1250q0 20 21 20h172q11 0 18 -10l367 -672q12 -20 43 -104l8 2q-3 40 -7.5 215.5t-4.5 290.5v258q0 20 20 20h193q20 0 20 -20v-1250q0 -20 -20 -20h-170q-12 0 -19 10l-366 668q-12 20 -43 104l-9 -2q3 -41 8 -217t5 -289v-254q0 -20 -21 -20z
M537 1423h-121q-19 0 -19 15q0 5 6 14l170 221q17 21 37 21h232q16 0 16 -19q0 -8 -6 -14l-272 -223q-18 -15 -43 -15z" />
    <glyph glyph-name="nacute" unicode="&#x144;" horiz-adv-x="999" 
d="M332 0h-193q-20 0 -20 20v898q0 20 20 20h174q21 0 21 -18q0 -23 16 -23q3 0 15 4q69 37 135 37q172 0 276.5 -99.5t104.5 -260.5v-558q0 -20 -21 -20h-194q-21 0 -21 20v558q0 62 -41.5 103.5t-103.5 41.5t-105 -42t-43 -103v-558q0 -20 -20 -20zM498 1071h-140
q-20 0 -20 16q0 7 12 27l185 283q10 16 28 16h250q23 0 23 -16q0 -10 -15 -25l-291 -287q-18 -14 -32 -14z" />
    <glyph glyph-name="Ncommaaccent" unicode="&#x145;" horiz-adv-x="1126" 
d="M352 0h-194q-21 0 -21 20v1250q0 20 21 20h172q11 0 18 -10l367 -672q12 -20 43 -104l8 2q-3 40 -7.5 215.5t-4.5 290.5v258q0 20 20 20h193q20 0 20 -20v-1250q0 -20 -20 -20h-170q-12 0 -19 10l-366 668q-12 20 -43 104l-9 -2q3 -41 8 -217t5 -289v-254q0 -20 -21 -20z
M459 -506l-58 94q-4 4 -4 15q0 10 6 16l17 19q57 72 57 200v43q0 19 19 19h170q18 0 18 -19v-45q0 -115 -47.5 -205.5t-147.5 -142.5q-4 -2 -12 -2q-13 0 -18 8z" />
    <glyph glyph-name="ncommaaccent" unicode="&#x146;" horiz-adv-x="999" 
d="M332 0h-193q-20 0 -20 20v898q0 20 20 20h174q21 0 21 -18q0 -23 16 -23q3 0 15 4q69 37 135 37q172 0 276.5 -99.5t104.5 -260.5v-558q0 -20 -21 -20h-194q-21 0 -21 20v558q0 62 -41.5 103.5t-103.5 41.5t-105 -42t-43 -103v-558q0 -20 -20 -20zM395 -506l-57 94
q-4 4 -4 15q0 10 6 16l16 19q58 73 58 200v43q0 19 18 19h170q19 0 19 -19v-45q0 -115 -47.5 -205.5t-147.5 -142.5q-4 -2 -12 -2q-14 0 -19 8z" />
    <glyph glyph-name="Ncaron" unicode="&#x147;" horiz-adv-x="1126" 
d="M352 0h-194q-21 0 -21 20v1250q0 20 21 20h172q11 0 18 -10l367 -672q12 -20 43 -104l8 2q-3 40 -7.5 215.5t-4.5 290.5v258q0 20 20 20h193q20 0 20 -20v-1250q0 -20 -20 -20h-170q-12 0 -19 10l-366 668q-12 20 -43 104l-9 -2q3 -41 8 -217t5 -289v-254q0 -20 -21 -20z
M598 1417h-72q-14 0 -24 13l-189 260q-6 6 -6 12q0 14 19 14h135q16 0 28 -18l62 -103q3 -8 10 -8t12 8l62 103q12 18 29 18h135q16 0 16 -14q0 -8 -4 -12l-188 -260q-10 -13 -25 -13z" />
    <glyph glyph-name="ncaron" unicode="&#x148;" horiz-adv-x="999" 
d="M332 0h-193q-20 0 -20 20v898q0 20 20 20h174q21 0 21 -18q0 -23 16 -23q3 0 15 4q69 37 135 37q172 0 276.5 -99.5t104.5 -260.5v-558q0 -20 -21 -20h-194q-21 0 -21 20v558q0 62 -41.5 103.5t-103.5 41.5t-105 -42t-43 -103v-558q0 -20 -20 -20zM549 1071h-100
q-9 0 -17 8l-199 281q-20 30 -20 37q0 16 23 16h165q10 0 17 -10l65 -105q6 -12 15 -12q10 0 16 12l68 105q7 10 16 10h166q22 0 22 -16q0 -9 -20 -37l-201 -281q-8 -8 -16 -8z" />
    <glyph glyph-name="Eng" unicode="&#x14a;" horiz-adv-x="1126" 
d="M578 -340v174q0 21 18 21q76 6 117 46.5t41 98.5v55l-342 623q-12 20 -43 104l-9 -2q3 -41 8 -217t5 -289v-254q0 -20 -21 -20h-194q-21 0 -21 20v1250q0 20 21 20h172q11 0 18 -10l367 -672q12 -20 43 -104l8 2q-3 40 -7.5 215.5t-4.5 290.5v258q0 20 20 20h193
q20 0 20 -20v-1252q0 -114 -62 -205t-171 -137q-88 -36 -156 -36q-20 0 -20 20z" />
    <glyph glyph-name="eng" unicode="&#x14b;" horiz-adv-x="999" 
d="M471 -461v174q0 21 18 21q76 6 116 46t40 99v699q0 62 -41.5 103.5t-103.5 41.5t-105 -42t-43 -103v-558q0 -20 -20 -20h-193q-20 0 -20 20v898q0 20 20 20h174q11 0 16 -6.5t5 -14t3.5 -14t12.5 -6.5q3 0 15 4q69 37 135 37q172 0 276.5 -99.5t104.5 -260.5v-680
q0 -114 -62.5 -205t-171.5 -137q-91 -37 -155 -37q-21 0 -21 20z" />
    <glyph glyph-name="Omacron" unicode="&#x14c;" horiz-adv-x="1079" 
d="M590 -20h-101q-173 0 -276.5 100.5t-103.5 261.5v606q0 161 103.5 262t276.5 101h101q172 0 276.5 -101t104.5 -262v-606q0 -161 -104.5 -261.5t-276.5 -100.5zM489 195h101q61 0 103 42.5t42 104.5v606q0 62 -42 105t-103 43h-101q-60 0 -103.5 -44t-43.5 -104v-606
q0 -60 43.5 -103.5t103.5 -43.5zM772 1444h-467q-20 0 -20 18v156q0 18 20 18h467q21 0 21 -18v-156q0 -18 -21 -18z" />
    <glyph glyph-name="omacron" unicode="&#x14d;" horiz-adv-x="940" 
d="M88 342v254q0 161 105 261.5t278 100.5q172 0 276.5 -100.5t104.5 -261.5v-254q0 -161 -104.5 -261.5t-276.5 -100.5q-173 0 -278 100.5t-105 261.5zM616 342v254q0 62 -42 104.5t-103 42.5q-62 0 -104.5 -43t-42.5 -104v-254q0 -61 42.5 -104t104.5 -43q61 0 103 42.5
t42 104.5zM702 1104h-466q-21 0 -21 20v174q0 21 21 21h466q21 0 21 -21v-174q0 -20 -21 -20z" />
    <glyph glyph-name="Obreve" unicode="&#x14e;" horiz-adv-x="1079" 
d="M590 -20h-101q-173 0 -276.5 100.5t-103.5 261.5v606q0 161 103.5 262t276.5 101h101q172 0 276.5 -101t104.5 -262v-606q0 -161 -104.5 -261.5t-276.5 -100.5zM489 195h101q61 0 103 42.5t42 104.5v606q0 62 -42 105t-103 43h-101q-60 0 -103.5 -44t-43.5 -104v-606
q0 -60 43.5 -103.5t103.5 -43.5zM551 1417h-27q-93 0 -149 47t-56 123v111q0 18 21 18h104q21 0 21 -18v-62q0 -17 18 -30t41 -13h27q24 0 40.5 12.5t16.5 30.5v62q0 18 21 18h106q21 0 21 -18v-111q0 -76 -56 -123t-149 -47z" />
    <glyph glyph-name="obreve" unicode="&#x14f;" horiz-adv-x="940" 
d="M88 342v254q0 161 105 261.5t278 100.5q172 0 276.5 -100.5t104.5 -261.5v-254q0 -161 -104.5 -261.5t-276.5 -100.5q-173 0 -278 100.5t-105 261.5zM616 342v254q0 62 -42 104.5t-103 42.5q-62 0 -104.5 -43t-42.5 -104v-254q0 -61 42.5 -104t104.5 -43q61 0 103 42.5
t42 104.5zM512 1071h-88q-93 0 -149 54t-56 141v127q0 20 21 20h104q21 0 21 -20v-88q0 -23 18 -40.5t41 -17.5h88q25 0 41 16.5t16 41.5v88q0 20 21 20h106q21 0 21 -20v-127q0 -87 -56 -141t-149 -54z" />
    <glyph glyph-name="Ohungarumlaut" unicode="&#x150;" horiz-adv-x="1079" 
d="M590 -20h-101q-173 0 -276.5 100.5t-103.5 261.5v606q0 161 103.5 262t276.5 101h101q172 0 276.5 -101t104.5 -262v-606q0 -161 -104.5 -261.5t-276.5 -100.5zM489 195h101q61 0 103 42.5t42 104.5v606q0 62 -42 105t-103 43h-101q-60 0 -103.5 -44t-43.5 -104v-606
q0 -60 43.5 -103.5t103.5 -43.5zM676 1423h-82q-21 0 -21 13q0 5 17 43l88 202q3 13 18 13h170q23 0 23 -13q0 -11 -19 -30l-176 -219q-6 -9 -18 -9zM434 1423h-98q-21 0 -21 13q0 5 17 43l88 202q3 13 18 13h170q23 0 23 -13q0 -6 -19 -30l-159 -219q-6 -9 -19 -9z" />
    <glyph glyph-name="ohungarumlaut" unicode="&#x151;" horiz-adv-x="940" 
d="M88 342v254q0 161 105 261.5t278 100.5q172 0 276.5 -100.5t104.5 -261.5v-254q0 -161 -104.5 -261.5t-276.5 -100.5q-173 0 -278 100.5t-105 261.5zM616 342v254q0 62 -42 104.5t-103 42.5q-62 0 -104.5 -43t-42.5 -104v-254q0 -61 42.5 -104t104.5 -43q61 0 103 42.5
t42 104.5zM606 1071h-82q-20 0 -20 16q0 10 16 54l88 258q4 14 19 14h170q22 0 22 -16q0 -14 -18 -39l-176 -277q-7 -10 -19 -10zM365 1071h-99q-20 0 -20 16q0 10 16 54l88 258q4 14 19 14h170q22 0 22 -16q0 -7 -18 -39l-160 -277q-7 -10 -18 -10z" />
    <glyph glyph-name="OE" unicode="&#x152;" horiz-adv-x="1536" 
d="M549 -20h-60q-173 0 -276.5 100.5t-103.5 261.5v606q0 161 103.5 262t276.5 101h60q66 0 131 -21h758q20 0 20 -20v-174q0 -21 -20 -21h-500q-23 0 -23 -16q0 -3 3.5 -15.5t7.5 -37.5t4 -58v-166q0 -20 20 -20h400q20 0 20 -21v-174q0 -20 -20 -20h-400q-20 0 -20 -21
v-184q0 -32 -4 -56.5t-7.5 -38t-3.5 -16.5q0 -16 23 -16h500q20 0 20 -20v-175q0 -20 -20 -20h-762q-62 -20 -127 -20zM489 195h60q61 0 103 42.5t42 104.5v606q0 62 -42 105t-103 43h-60q-60 0 -103.5 -44t-43.5 -104v-606q0 -60 43.5 -103.5t103.5 -43.5z" />
    <glyph glyph-name="oe" unicode="&#x153;" horiz-adv-x="1466" 
d="M1194 313l154 -75q12 -6 12 -17q0 -9 -31 -61q-52 -86 -129.5 -133t-202.5 -47q-141 0 -235 65q-21 16 -29 16q-7 0 -28 -16q-94 -65 -234 -65q-173 0 -278 100.5t-105 261.5v254q0 161 105 261.5t278 100.5q145 0 246 -75q2 -1 7 -6t8.5 -7t8.5 -2t27 15q105 75 229 75
q110 0 199.5 -55.5t135.5 -137.5t46 -169v-166q0 -20 -20 -20h-488q-20 0 -20 -21v-47q0 -61 42.5 -104t104.5 -43q96 0 146 120q7 13 16 13q5 0 35 -15zM874 606h244q10 0 16.5 5.5t6.5 13.5q0 11 -8.5 29.5t-24.5 39t-45.5 35t-65.5 14.5q-46 0 -81 -24.5t-49.5 -50.5
t-14.5 -43q0 -19 22 -19zM616 342v254q0 62 -42 104.5t-103 42.5q-62 0 -104.5 -43t-42.5 -104v-254q0 -61 42.5 -104t104.5 -43q61 0 103 42.5t42 104.5z" />
    <glyph glyph-name="Racute" unicode="&#x154;" horiz-adv-x="1079" 
d="M352 0h-194q-21 0 -21 20v1250q0 20 21 20h460q174 0 277.5 -103.5t103.5 -277.5v-20q0 -74 -51 -155t-114 -124q-9 -6 -9 -16q0 -4 11 -33l176 -512q2 -5 4.5 -12.5t4 -12.5t1.5 -8q0 -16 -21 -16h-210q-15 0 -19 14l-180 521q-3 12 -17 12h-182q-20 0 -20 -21v-506
q0 -20 -21 -20zM393 762h225q60 0 104 43.5t44 103.5v19q0 60 -44 103.5t-104 43.5h-225q-20 0 -20 -20v-273q0 -20 20 -20zM512 1423h-121q-18 0 -18 15q0 5 6 14l170 221q17 21 37 21h231q7 0 12 -5.5t5 -13.5q0 -7 -7 -14l-272 -223q-17 -15 -43 -15z" />
    <glyph glyph-name="racute" unicode="&#x155;" horiz-adv-x="622" 
d="M332 0h-193q-20 0 -20 20v898q0 20 20 20h174q12 0 16.5 -3.5t4.5 -14.5v-29q0 -9 5 -15t11 -6q8 0 15 7q18 20 64 40.5t91 20.5q34 0 58 -6q16 -3 16 -21v-206q0 -10 -6.5 -16.5t-14.5 -6.5q-2 0 -25 9t-48 9q-63 0 -105.5 -41t-42.5 -102v-537q0 -20 -20 -20zM350 1071
h-139q-21 0 -21 16q0 5 13 27l184 283q10 16 29 16h250q22 0 22 -16q0 -11 -14 -25l-291 -287q-17 -14 -33 -14z" />
    <glyph glyph-name="Rcommaaccent" unicode="&#x156;" horiz-adv-x="1079" 
d="M352 0h-194q-21 0 -21 20v1250q0 20 21 20h460q174 0 277.5 -103.5t103.5 -277.5v-20q0 -74 -51 -155t-114 -124q-9 -6 -9 -16q0 -4 11 -33l176 -512q2 -5 4.5 -12.5t4 -12.5t1.5 -8q0 -16 -21 -16h-210q-15 0 -19 14l-180 521q-3 12 -17 12h-182q-20 0 -20 -21v-506
q0 -20 -21 -20zM393 762h225q60 0 104 43.5t44 103.5v19q0 60 -44 103.5t-104 43.5h-225q-20 0 -20 -20v-273q0 -20 20 -20zM455 -506l-58 94q-4 4 -4 15q0 10 6 16l17 19q57 72 57 200v43q0 19 19 19h170q18 0 18 -19v-45q0 -115 -47.5 -205.5t-147.5 -142.5q-4 -2 -12 -2
q-13 0 -18 8z" />
    <glyph glyph-name="rcommaaccent" unicode="&#x157;" horiz-adv-x="622" 
d="M332 0h-193q-20 0 -20 20v898q0 20 20 20h174q12 0 16.5 -3.5t4.5 -14.5v-29q0 -9 5 -15t11 -6q8 0 15 7q18 20 64 40.5t91 20.5q34 0 58 -6q16 -3 16 -21v-206q0 -10 -6.5 -16.5t-14.5 -6.5q-2 0 -25 9t-48 9q-63 0 -105.5 -41t-42.5 -102v-537q0 -20 -20 -20zM129 -506
l-57 94q-4 4 -4 15q0 10 6 16l16 19q57 72 57 200v43q0 19 19 19h170q18 0 18 -19v-45q0 -115 -47 -205.5t-147 -142.5q-4 -2 -13 -2q-13 0 -18 8z" />
    <glyph glyph-name="Rcaron" unicode="&#x158;" horiz-adv-x="1079" 
d="M352 0h-194q-21 0 -21 20v1250q0 20 21 20h460q174 0 277.5 -103.5t103.5 -277.5v-20q0 -74 -51 -155t-114 -124q-9 -6 -9 -16q0 -4 11 -33l176 -512q2 -5 4.5 -12.5t4 -12.5t1.5 -8q0 -16 -21 -16h-210q-15 0 -19 14l-180 521q-3 12 -17 12h-182q-20 0 -20 -21v-506
q0 -20 -21 -20zM393 762h225q60 0 104 43.5t44 103.5v19q0 60 -44 103.5t-104 43.5h-225q-20 0 -20 -20v-273q0 -20 20 -20zM553 1417h-72q-14 0 -24 13l-189 260q-6 6 -6 12q0 14 19 14h135q16 0 28 -18l62 -103q3 -8 10 -8t12 8l62 103q12 18 28 18h136q16 0 16 -14
q0 -8 -4 -12l-188 -260q-10 -13 -25 -13z" />
    <glyph glyph-name="rcaron" unicode="&#x159;" horiz-adv-x="622" 
d="M332 0h-193q-20 0 -20 20v898q0 20 20 20h174q12 0 16.5 -3.5t4.5 -14.5v-29q0 -9 5 -15t11 -6q8 0 15 7q18 20 64 40.5t91 20.5q34 0 58 -6q16 -3 16 -21v-206q0 -10 -6.5 -16.5t-14.5 -6.5q-2 0 -25 9t-48 9q-63 0 -105.5 -41t-42.5 -102v-537q0 -20 -20 -20zM401 1071
h-100q-8 0 -16 8l-199 281q-20 30 -20 37q0 16 22 16h166q9 0 16 -10l66 -105q6 -12 14 -12q11 0 17 12l67 105q7 10 17 10h165q23 0 23 -16q0 -8 -21 -37l-200 -281q-8 -8 -17 -8z" />
    <glyph glyph-name="Sacute" unicode="&#x15a;" horiz-adv-x="966" 
d="M514 -20h-82q-120 0 -196.5 43t-126.5 122q-39 67 -39 76t12 15l164 83q22 11 24 11q11 0 17 -15q50 -120 145 -120h82q60 0 104 43.5t44 103.5q0 37 -13 65t-50 54t-56 36t-78 37q-5 3 -7.5 4t-7 3t-8.5 4q-38 18 -55 26.5t-52.5 27.5t-53 31.5t-47 34.5t-44.5 41
t-35 47t-29.5 56t-16.5 64t-7 75q0 161 104 262t277 101h33q219 0 324 -166q39 -67 39 -76q0 -7 -13 -14l-164 -84q-20 -10 -24 -10q-10 0 -16 14q-51 121 -146 121h-33q-60 0 -103.5 -44t-43.5 -104q0 -25 10.5 -46.5t23.5 -36t41 -31t46.5 -25.5t57.5 -25.5t58 -25.5
q55 -26 94 -47.5t85.5 -58.5t75 -77.5t48 -100.5t19.5 -132q0 -161 -104 -261.5t-277 -100.5zM457 1423h-121q-19 0 -19 15q0 4 7 14l170 221q18 21 36 21h232q16 0 16 -19q0 -8 -6 -14l-272 -223q-18 -15 -43 -15z" />
    <glyph glyph-name="sacute" unicode="&#x15b;" horiz-adv-x="923" 
d="M479 -20h-59q-216 0 -318 161q-36 59 -36 78q0 11 12 17l147 71q24 12 31 12q10 0 16 -14q23 -57 62.5 -87t85.5 -30h59q56 0 87.5 26t31.5 62q0 22 -11.5 37t-36.5 23.5t-48 13t-63.5 10.5t-65.5 11q-51 10 -88.5 21t-79 32t-68 48.5t-44 70.5t-17.5 98q0 145 100 231
t244 86h59q214 0 314 -151q43 -67 43 -86q0 -9 -13 -16l-155 -76q-16 -8 -23 -8q-10 0 -16 12q-22 57 -63 87t-87 30h-59q-113 0 -113 -78q0 -22 11.5 -37.5t36.5 -24.5t47.5 -13.5t63 -11.5t64.5 -12q51 -11 88.5 -22t80 -32t69.5 -48t45 -69.5t18 -96.5q0 -138 -93 -231.5
t-259 -93.5zM459 1071h-140q-20 0 -20 16q0 7 12 27l185 283q10 16 28 16h250q23 0 23 -16q0 -10 -15 -25l-290 -287q-18 -14 -33 -14z" />
    <glyph glyph-name="Scircumflex" unicode="&#x15c;" horiz-adv-x="966" 
d="M514 -20h-82q-120 0 -196.5 43t-126.5 122q-39 67 -39 76t12 15l164 83q22 11 24 11q11 0 17 -15q50 -120 145 -120h82q60 0 104 43.5t44 103.5q0 37 -13 65t-50 54t-56 36t-78 37q-5 3 -7.5 4t-7 3t-8.5 4q-38 18 -55 26.5t-52.5 27.5t-53 31.5t-47 34.5t-44.5 41
t-35 47t-29.5 56t-16.5 64t-7 75q0 161 104 262t277 101h33q219 0 324 -166q39 -67 39 -76q0 -7 -13 -14l-164 -84q-20 -10 -24 -10q-10 0 -16 14q-51 121 -146 121h-33q-60 0 -103.5 -44t-43.5 -104q0 -25 10.5 -46.5t23.5 -36t41 -31t46.5 -25.5t57.5 -25.5t58 -25.5
q55 -26 94 -47.5t85.5 -58.5t75 -77.5t48 -100.5t19.5 -132q0 -161 -104 -261.5t-277 -100.5zM381 1417h-135q-7 0 -13 4t-6 9q0 8 6 14l189 260q9 12 24 12h72q16 0 25 -12l188 -260q4 -4 4 -14q0 -13 -16 -13h-135q-16 0 -29 19l-61 102q-8 8 -13 8q-6 0 -10 -8l-61 -102
q-13 -19 -29 -19z" />
    <glyph glyph-name="scircumflex" unicode="&#x15d;" horiz-adv-x="923" 
d="M479 -20h-59q-216 0 -318 161q-36 59 -36 78q0 11 12 17l147 71q24 12 31 12q10 0 16 -14q23 -57 62.5 -87t85.5 -30h59q56 0 87.5 26t31.5 62q0 22 -11.5 37t-36.5 23.5t-48 13t-63.5 10.5t-65.5 11q-51 10 -88.5 21t-79 32t-68 48.5t-44 70.5t-17.5 98q0 145 100 231
t244 86h59q214 0 314 -151q43 -67 43 -86q0 -9 -13 -16l-155 -76q-16 -8 -23 -8q-10 0 -16 12q-22 57 -63 87t-87 30h-59q-113 0 -113 -78q0 -22 11.5 -37.5t36.5 -24.5t47.5 -13.5t63 -11.5t64.5 -12q51 -11 88.5 -22t80 -32t69.5 -48t45 -69.5t18 -96.5q0 -138 -93 -231.5
t-259 -93.5zM362 1071h-165q-23 0 -23 16q0 8 6 17l213 301q8 8 17 8h100q8 0 16 -8l215 -301q7 -10 7 -17q0 -16 -23 -16h-166q-9 0 -16 10l-68 105q-6 12 -16 12q-9 0 -15 -12l-65 -105q-7 -10 -17 -10z" />
    <glyph glyph-name="Scedilla" unicode="&#x15e;" horiz-adv-x="966" 
d="M440 -440h-121q-20 0 -20 20v135q0 21 20 21h121q14 0 25.5 11t11.5 24v16q0 13 -11.5 25t-25.5 12h-82q-20 0 -20 16q0 9 16 41l47 101q-107 6 -176.5 48t-115.5 115q-39 67 -39 76t12 15l164 83q22 11 24 11q11 0 17 -15q50 -120 145 -120h82q60 0 104 43.5t44 103.5
q0 49 -31 87t-80.5 65t-109 54t-119 60.5t-109 76t-80.5 110t-31 153.5q0 161 104 262t277 101h33q219 0 324 -166q39 -67 39 -76q0 -7 -13 -14l-164 -84q-20 -10 -24 -10q-10 0 -16 14q-51 121 -146 121h-33q-60 0 -103.5 -44t-43.5 -104q0 -43 31 -77t80 -58.5t109 -49.5
t119.5 -59.5t108.5 -79.5t80 -117.5t31 -164.5q0 -143 -82.5 -239.5t-224.5 -116.5l-4 -11q-1 -4 -4 -9.5t-5 -9.5t-2 -7q0 -9 9 -15q86 -47 86 -147v-16q0 -94 -65.5 -152.5t-162.5 -58.5z" />
    <glyph glyph-name="scedilla" unicode="&#x15f;" horiz-adv-x="923" 
d="M418 -440h-121q-21 0 -21 20v135q0 21 21 21h121q14 0 25.5 11t11.5 24v16q0 13 -11.5 25t-25.5 12h-82q-21 0 -21 16q0 7 17 41l47 101q-188 13 -277 159q-36 59 -36 78q0 11 12 17l147 71q24 12 31 12q10 0 16 -14q23 -57 62.5 -87t85.5 -30h59q56 0 87.5 26t31.5 62
q0 29 -29 47t-75 27.5t-101.5 18.5t-111 26t-101.5 43.5t-75 78.5t-29 124q0 145 100 231t244 86h59q214 0 314 -151q43 -67 43 -86q0 -9 -13 -16l-155 -76q-16 -8 -23 -8q-10 0 -16 12q-22 57 -63 87t-87 30h-59q-113 0 -113 -78q0 -26 22.5 -44t59.5 -26.5t84 -19
t96 -19.5t96 -28.5t84 -46.5t59.5 -74t22.5 -109q0 -118 -69 -205.5t-195 -111.5l-6 -13q-10 -25 -10 -26q0 -10 8 -15q86 -47 86 -147v-16q0 -94 -65 -152.5t-162 -58.5z" />
    <glyph glyph-name="Scaron" unicode="&#x160;" horiz-adv-x="966" 
d="M514 -20h-82q-120 0 -196.5 43t-126.5 122q-39 67 -39 76t12 15l164 83q22 11 24 11q11 0 17 -15q50 -120 145 -120h82q60 0 104 43.5t44 103.5q0 37 -13 65t-50 54t-56 36t-78 37q-5 3 -7.5 4t-7 3t-8.5 4q-38 18 -55 26.5t-52.5 27.5t-53 31.5t-47 34.5t-44.5 41
t-35 47t-29.5 56t-16.5 64t-7 75q0 161 104 262t277 101h33q219 0 324 -166q39 -67 39 -76q0 -7 -13 -14l-164 -84q-20 -10 -24 -10q-10 0 -16 14q-51 121 -146 121h-33q-60 0 -103.5 -44t-43.5 -104q0 -25 10.5 -46.5t23.5 -36t41 -31t46.5 -25.5t57.5 -25.5t58 -25.5
q55 -26 94 -47.5t85.5 -58.5t75 -77.5t48 -100.5t19.5 -132q0 -161 -104 -261.5t-277 -100.5zM518 1417h-72q-14 0 -24 13l-189 260q-6 6 -6 12q0 14 19 14h135q17 0 29 -18l61 -103q3 -8 10 -8q8 0 13 8l61 103q12 18 29 18h135q16 0 16 -14q0 -8 -4 -12l-188 -260
q-10 -13 -25 -13z" />
    <glyph glyph-name="scaron" unicode="&#x161;" horiz-adv-x="923" 
d="M479 -20h-59q-216 0 -318 161q-36 59 -36 78q0 11 12 17l147 71q24 12 31 12q10 0 16 -14q23 -57 62.5 -87t85.5 -30h59q56 0 87.5 26t31.5 62q0 22 -11.5 37t-36.5 23.5t-48 13t-63.5 10.5t-65.5 11q-51 10 -88.5 21t-79 32t-68 48.5t-44 70.5t-17.5 98q0 145 100 231
t244 86h59q214 0 314 -151q43 -67 43 -86q0 -9 -13 -16l-155 -76q-16 -8 -23 -8q-10 0 -16 12q-22 57 -63 87t-87 30h-59q-113 0 -113 -78q0 -22 11.5 -37.5t36.5 -24.5t47.5 -13.5t63 -11.5t64.5 -12q51 -11 88.5 -22t80 -32t69.5 -48t45 -69.5t18 -96.5q0 -138 -93 -231.5
t-259 -93.5zM510 1071h-100q-9 0 -17 8l-198 281q-21 31 -21 37q0 16 23 16h165q10 0 17 -10l65 -105q6 -12 15 -12q10 0 16 12l68 105q7 10 16 10h166q23 0 23 -16q0 -8 -21 -37l-201 -281q-8 -8 -16 -8z" />
    <glyph glyph-name="Tcedilla" unicode="&#x162;" horiz-adv-x="823" 
d="M508 0h-193q-20 0 -20 20v1035q0 20 -21 20h-223q-20 0 -20 21v174q0 20 20 20h721q21 0 21 -20v-174q0 -21 -21 -21h-223q-21 0 -21 -20v-1035q0 -20 -20 -20zM307 -506l-57 94q-4 4 -4 15q0 10 6 16l16 19q58 73 58 200v43q0 19 18 19h170q18 0 18 -19v-45
q0 -115 -47 -205.5t-147 -142.5q-4 -2 -12 -2q-14 0 -19 8z" />
    <glyph glyph-name="tcedilla" unicode="&#x163;" horiz-adv-x="657" 
d="M567 176v-176q0 -20 -20 -20q-86 0 -174 36q-105 42 -160 127t-55 199v360q0 21 -21 21h-106q-21 0 -21 18q0 1 4 111l236 250q12 12 24 12h97q20 0 20 -20v-136q0 -20 21 -20h135q20 0 20 -20v-175q0 -20 -20 -20h-135q-21 0 -21 -21v-360q0 -58 41 -98.5t117 -46.5
q18 0 18 -21zM223 -506l-57 94q-4 4 -4 15q0 10 6 16l16 19q58 73 58 200v43q0 19 18 19h170q19 0 19 -19v-45q0 -115 -47.5 -205.5t-147.5 -142.5q-4 -2 -12 -2q-14 0 -19 8z" />
    <glyph glyph-name="Tcaron" unicode="&#x164;" horiz-adv-x="823" 
d="M508 0h-193q-20 0 -20 20v1035q0 20 -21 20h-223q-20 0 -20 21v174q0 20 20 20h721q21 0 21 -20v-174q0 -21 -21 -21h-223q-21 0 -21 -20v-1035q0 -20 -20 -20zM446 1417h-71q-15 0 -25 13l-188 260q-6 6 -6 12q0 14 18 14h135q17 0 29 -18l61 -103q3 -8 11 -8q7 0 12 8
l61 103q12 18 29 18h135q17 0 17 -14q0 -7 -5 -12l-188 -260q-10 -13 -25 -13z" />
    <glyph glyph-name="tcaron" unicode="&#x165;" horiz-adv-x="657" 
d="M567 176v-176q0 -20 -20 -20q-86 0 -174 36q-105 42 -160 127t-55 199v360q0 21 -21 21h-106q-21 0 -21 18q0 1 4 111l236 250q12 12 24 12h97q20 0 20 -20v-136q0 -20 21 -20h135q20 0 20 -20v-175q0 -20 -20 -20h-135q-21 0 -21 -21v-360q0 -58 41 -98.5t117 -46.5
q18 0 18 -21zM502 1036l-47 70q-4 8 -4 14q0 11 6 17l14 18q45 71 45 213v43q0 19 14 19h138q14 0 14 -19v-45q0 -235 -156 -336q-4 -2 -10 -2q-11 0 -14 8z" />
    <glyph glyph-name="Tbar" unicode="&#x166;" horiz-adv-x="823" 
d="M508 0h-193q-20 0 -20 20v582q-3 16 -23 16h-110q-21 0 -21 21v174q0 21 21 21h110q20 0 23 18v203q0 20 -21 20h-223q-20 0 -20 21v174q0 20 20 20h721q21 0 21 -20v-174q0 -21 -21 -21h-223q-21 0 -21 -20v-205q3 -16 23 -16h111q20 0 20 -21v-174q0 -21 -20 -21h-111
q-23 0 -23 -22v-576q0 -20 -20 -20z" />
    <glyph glyph-name="tbar" unicode="&#x167;" horiz-adv-x="657" 
d="M567 176v-176q0 -20 -20 -20q-86 0 -174 36q-105 42 -160 127t-55 199v86q0 21 -21 21h-86q-20 0 -20 20v100q0 19 20 19h86q9 0 15 7t6 17v90q0 21 -21 21h-106q-21 0 -21 18q0 1 4 111l236 250q12 12 24 12h97q20 0 20 -20v-136q0 -20 21 -20h135q20 0 20 -20v-175
q0 -20 -20 -20h-135q-21 0 -21 -21v-100q3 -14 23 -14h90q18 0 18 -19v-100q0 -20 -18 -20h-90q-19 0 -23 -15v-92q0 -58 41 -98.5t117 -46.5q18 0 18 -21z" />
    <glyph glyph-name="Utilde" unicode="&#x168;" horiz-adv-x="1079" 
d="M590 -20h-101q-173 0 -276.5 100.5t-103.5 261.5v928q0 20 20 20h193q20 0 20 -20v-928q0 -60 43.5 -103.5t103.5 -43.5h101q61 0 103 42.5t42 104.5v928q0 20 21 20h194q21 0 21 -20v-928q0 -161 -104.5 -261.5t-276.5 -100.5zM315 1444l-63 45q-10 7 -10 16q0 3 4 11
q43 78 89.5 106.5t106.5 28.5q44 0 103 -31t84 -31q27 0 49 12.5t49 45.5q9 12 16 12q9 0 13 -4l67 -49q8 -5 8 -19q0 -6 -2 -10q-76 -135 -202 -135q-38 0 -99 31.5t-88 31.5q-59 0 -94 -55q-6 -12 -16 -12q-9 0 -15 6z" />
    <glyph glyph-name="utilde" unicode="&#x169;" horiz-adv-x="978" 
d="M840 0h-174q-21 0 -21 18q0 23 -16 23q-3 0 -15 -4q-69 -37 -135 -37q-172 0 -276.5 100.5t-104.5 261.5v556q0 20 21 20h194q21 0 21 -20v-556q0 -63 41.5 -105t103.5 -42q61 0 104.5 42.5t43.5 104.5v556q0 20 20 20h193q20 0 20 -20v-898q0 -20 -20 -20zM244 1128
l-70 52q-8 5 -8 16q0 10 29 57q76 119 178 119q65 0 139 -53l35 -25q29 -22 57 -22q46 0 88 69q6 13 17 13q5 0 22 -13l74 -59q8 -5 8 -16q0 -14 -37 -70q-77 -113 -172 -113q-21 0 -46.5 9.5t-42.5 19t-52 31.5l-37 22q-34 21 -53 21q-41 0 -84 -64q-6 -12 -17 -12
q-6 0 -28 18z" />
    <glyph glyph-name="Umacron" unicode="&#x16a;" horiz-adv-x="1079" 
d="M590 -20h-101q-173 0 -276.5 100.5t-103.5 261.5v928q0 20 20 20h193q20 0 20 -20v-928q0 -60 43.5 -103.5t103.5 -43.5h101q61 0 103 42.5t42 104.5v928q0 20 21 20h194q21 0 21 -20v-928q0 -161 -104.5 -261.5t-276.5 -100.5zM772 1444h-467q-20 0 -20 18v156
q0 18 20 18h467q21 0 21 -18v-156q0 -18 -21 -18z" />
    <glyph glyph-name="umacron" unicode="&#x16b;" horiz-adv-x="978" 
d="M840 0h-174q-21 0 -21 18q0 23 -16 23q-3 0 -15 -4q-69 -37 -135 -37q-172 0 -276.5 100.5t-104.5 261.5v556q0 20 21 20h194q21 0 21 -20v-556q0 -63 41.5 -105t103.5 -42q61 0 104.5 42.5t43.5 104.5v556q0 20 20 20h193q20 0 20 -20v-898q0 -20 -20 -20zM723 1104
h-467q-20 0 -20 20v174q0 21 20 21h467q20 0 20 -21v-174q0 -20 -20 -20z" />
    <glyph glyph-name="Ubreve" unicode="&#x16c;" horiz-adv-x="1079" 
d="M590 -20h-101q-173 0 -276.5 100.5t-103.5 261.5v928q0 20 20 20h193q20 0 20 -20v-928q0 -60 43.5 -103.5t103.5 -43.5h101q61 0 103 42.5t42 104.5v928q0 20 21 20h194q21 0 21 -20v-928q0 -161 -104.5 -261.5t-276.5 -100.5zM551 1417h-27q-93 0 -149 47t-56 123v111
q0 18 21 18h104q21 0 21 -18v-62q0 -17 18 -30t41 -13h27q24 0 40.5 12.5t16.5 30.5v62q0 18 21 18h106q21 0 21 -18v-111q0 -76 -56 -123t-149 -47z" />
    <glyph glyph-name="ubreve" unicode="&#x16d;" horiz-adv-x="978" 
d="M840 0h-174q-21 0 -21 18q0 23 -16 23q-3 0 -15 -4q-69 -37 -135 -37q-172 0 -276.5 100.5t-104.5 261.5v556q0 20 21 20h194q21 0 21 -20v-556q0 -63 41.5 -105t103.5 -42q61 0 104.5 42.5t43.5 104.5v556q0 20 20 20h193q20 0 20 -20v-898q0 -20 -20 -20zM532 1071h-88
q-93 0 -148.5 54t-55.5 141v127q0 20 20 20h105q20 0 20 -20v-88q0 -23 18 -40.5t41 -17.5h88q25 0 41.5 16.5t16.5 41.5v88q0 20 20 20h107q20 0 20 -20v-127q0 -87 -56 -141t-149 -54z" />
    <glyph glyph-name="Uring" unicode="&#x16e;" horiz-adv-x="1079" 
d="M590 -20h-101q-173 0 -276.5 100.5t-103.5 261.5v928q0 20 20 20h193q20 0 20 -20v-928q0 -60 43.5 -103.5t103.5 -43.5h101q61 0 103 42.5t42 104.5v928q0 20 21 20h194q21 0 21 -20v-928q0 -161 -104.5 -261.5t-276.5 -100.5zM334 1573v59q0 87 56 141t149 54
t148.5 -54t55.5 -141v-59q0 -87 -55.5 -141t-148.5 -54t-149 54t-56 141zM598 1573v59q0 23 -18 41.5t-41 18.5t-41.5 -18.5t-18.5 -41.5v-59q0 -23 18 -40t42 -17q23 0 41 17t18 40z" />
    <glyph glyph-name="uring" unicode="&#x16f;" horiz-adv-x="978" 
d="M840 0h-174q-21 0 -21 18q0 23 -16 23q-3 0 -15 -4q-69 -37 -135 -37q-172 0 -276.5 100.5t-104.5 261.5v556q0 20 21 20h194q21 0 21 -20v-556q0 -63 41.5 -105t103.5 -42q61 0 104.5 42.5t43.5 104.5v556q0 20 20 20h193q20 0 20 -20v-898q0 -20 -20 -20zM285 1239v59
q0 87 55.5 141t148.5 54t149 -54t56 -141v-59q0 -87 -56 -141t-149 -54t-148.5 54t-55.5 141zM549 1239v59q0 23 -18.5 41.5t-41.5 18.5t-41 -18.5t-18 -41.5v-59q0 -23 18 -40t41 -17q24 0 42 17t18 40z" />
    <glyph glyph-name="Uhungarumlaut" unicode="&#x170;" horiz-adv-x="1079" 
d="M590 -20h-101q-173 0 -276.5 100.5t-103.5 261.5v928q0 20 20 20h193q20 0 20 -20v-928q0 -60 43.5 -103.5t103.5 -43.5h101q61 0 103 42.5t42 104.5v928q0 20 21 20h194q21 0 21 -20v-928q0 -161 -104.5 -261.5t-276.5 -100.5zM676 1423h-82q-21 0 -21 13q0 5 17 43
l88 202q3 13 18 13h170q23 0 23 -13q0 -11 -19 -30l-176 -219q-6 -9 -18 -9zM434 1423h-98q-21 0 -21 13q0 5 17 43l88 202q3 13 18 13h170q23 0 23 -13q0 -6 -19 -30l-159 -219q-6 -9 -19 -9z" />
    <glyph glyph-name="uhungarumlaut" unicode="&#x171;" horiz-adv-x="978" 
d="M840 0h-174q-21 0 -21 18q0 23 -16 23q-3 0 -15 -4q-69 -37 -135 -37q-172 0 -276.5 100.5t-104.5 261.5v556q0 20 21 20h194q21 0 21 -20v-556q0 -63 41.5 -105t103.5 -42q61 0 104.5 42.5t43.5 104.5v556q0 20 20 20h193q20 0 20 -20v-898q0 -20 -20 -20zM627 1071h-82
q-21 0 -21 16q0 7 17 54l88 258q3 14 18 14h170q23 0 23 -16q0 -12 -19 -39l-176 -277q-7 -10 -18 -10zM385 1071h-98q-21 0 -21 16q0 7 17 54l88 258q3 14 18 14h170q23 0 23 -16q0 -6 -19 -39l-160 -277q-7 -10 -18 -10z" />
    <glyph glyph-name="Uogonek" unicode="&#x172;" horiz-adv-x="1079" 
d="M809 -283v-135q0 -20 -18 -20q-124 0 -214 89t-90 202v127q-173 1 -275.5 101t-102.5 261v928q0 20 20 20h193q20 0 20 -20v-928q0 -60 43.5 -103.5t103.5 -43.5h101q61 0 103 42.5t42 104.5v928q0 20 21 20h194q21 0 21 -20v-928q0 -138 -79 -233.5t-214 -120.5v-148
q0 -39 28 -67t85 -35q18 -3 18 -21z" />
    <glyph glyph-name="uogonek" unicode="&#x173;" horiz-adv-x="978" 
d="M967 -283v-135q0 -20 -19 -20q-124 0 -213.5 89t-89.5 202v165q0 23 -16 23q-3 0 -15 -4q-69 -37 -135 -37q-172 0 -276.5 100.5t-104.5 261.5v556q0 20 21 20h194q21 0 21 -20v-556q0 -63 41.5 -105t103.5 -42q61 0 104.5 42.5t43.5 104.5v556q0 20 20 20h193
q20 0 20 -20v-898q0 -20 -20 -20h-4v-160q0 -39 27.5 -67t84.5 -35q19 -3 19 -21z" />
    <glyph glyph-name="Wcircumflex" unicode="&#x174;" horiz-adv-x="1345" 
d="M446 0h-149q-18 0 -21 16l-260 1203q-2 9 -4.5 21.5t-4 21t-1.5 12.5q0 16 21 16h209q17 0 20 -16l119 -633q16 -110 20 -127h11q2 8 13 63.5t13 63.5l168 639q3 14 21 14h102q17 0 20 -14l168 -639q2 -8 13.5 -63.5t13.5 -63.5h10q2 8 10.5 63.5t10.5 63.5l121 633
q3 16 20 16h209q20 0 20 -16q0 -5 -10 -55l-260 -1203q-3 -16 -20 -16h-150q-17 0 -20 14l-179 619q-2 8 -12 56.5t-12 55.5h-6q-2 -8 -12.5 -56t-12.5 -56l-178 -619q-3 -14 -21 -14zM569 1417h-135q-7 0 -12.5 4t-5.5 9q0 8 6 14l188 260q9 12 25 12h72q15 0 24 -12
l189 -260q4 -4 4 -14q0 -5 -5 -9t-12 -4h-135q-16 0 -29 19l-61 102q-8 8 -12 8q-7 0 -11 -8l-61 -102q-13 -19 -29 -19z" />
    <glyph glyph-name="wcircumflex" unicode="&#x175;" horiz-adv-x="1226" 
d="M442 0h-143q-17 0 -20 14l-261 856q-14 44 -14 52q0 16 23 16h200q18 0 21 -14l100 -389q11 -40 21 -127h8q12 60 29 124l104 392q3 14 20 14h172q18 0 21 -14l102 -392q17 -63 29 -126h8q8 70 23 129l98 389q3 14 21 14h198q23 0 23 -16q0 -7 -15 -52l-262 -856
q-3 -14 -20 -14h-142q-17 0 -20 14l-123 432q-15 54 -25 111h-8q-6 -35 -26 -111l-121 -432q-3 -14 -21 -14zM514 1071h-166q-22 0 -22 16q0 8 6 17l213 301q8 8 16 8h101q8 0 16 -8l215 -301q6 -9 6 -17q0 -16 -22 -16h-166q-10 0 -17 10l-67 105q-6 12 -17 12
q-8 0 -14 -12l-66 -105q-7 -10 -16 -10z" />
    <glyph glyph-name="Ycircumflex" unicode="&#x176;" horiz-adv-x="921" 
d="M557 0h-195q-20 0 -20 20v541q0 26 -14 55l-334 625q-14 25 -14 33q0 16 22 16h227q11 0 19 -12l194 -401q7 -17 19 -17q11 0 18 17l195 401q8 12 18 12h226q22 0 22 -16q0 -5 -14 -33l-334 -625q-14 -28 -14 -57v-539q0 -20 -21 -20zM358 1417h-135q-7 0 -12.5 4t-5.5 9
q0 8 6 14l188 260q9 12 25 12h72q15 0 24 -12l189 -260q4 -4 4 -14q0 -5 -5 -9t-12 -4h-135q-16 0 -29 19l-61 102q-8 8 -12 8q-6 0 -10 -8l-62 -102q-13 -19 -29 -19z" />
    <glyph glyph-name="ycircumflex" unicode="&#x177;" horiz-adv-x="978" 
d="M131 -225l164 82q13 8 22 8q11 0 17 -12q48 -119 145 -119q60 0 104 43.5t44 103.5v127q0 23 -15 23q-6 0 -14 -4q-58 -27 -119 -27q-172 0 -276.5 100.5t-104.5 261.5v556q0 20 21 20h194q21 0 21 -20v-556q0 -63 41.5 -105t103.5 -42q61 0 104.5 42.5t43.5 104.5v556
q0 20 20 20h193q20 0 20 -20v-1018q0 -170 -99 -275.5t-282 -105.5q-210 0 -313 149q-47 64 -47 90q0 11 12 17zM391 1071h-166q-22 0 -22 16q0 8 6 17l213 301q8 8 16 8h101q8 0 16 -8l215 -301q6 -9 6 -17q0 -16 -22 -16h-166q-10 0 -17 10l-67 105q-6 12 -17 12
q-8 0 -14 -12l-65 -105q-7 -10 -17 -10z" />
    <glyph glyph-name="Ydieresis" unicode="&#x178;" horiz-adv-x="921" 
d="M557 0h-195q-20 0 -20 20v541q0 26 -14 55l-334 625q-14 25 -14 33q0 16 22 16h227q11 0 19 -12l194 -401q7 -17 19 -17q11 0 18 17l195 401q8 12 18 12h226q22 0 22 -16q0 -5 -14 -33l-334 -625q-14 -28 -14 -57v-539q0 -20 -21 -20zM737 1548q0 -47 -32.5 -79.5
t-79.5 -32.5q-48 0 -81.5 32.5t-33.5 79.5t34 80t81 33t79.5 -33t32.5 -80zM412 1548q0 -47 -33 -79.5t-80 -32.5q-48 0 -81.5 32.5t-33.5 79.5t34 80t81 33t80 -33t33 -80z" />
    <glyph glyph-name="Zacute" unicode="&#x179;" horiz-adv-x="933" 
d="M811 0h-768q-20 0 -20 16q0 7 14 39l432 965q14 28 14 39q0 16 -20 16h-373q-20 0 -20 21v174q0 20 20 20h727q21 0 21 -16q0 -2 -15 -39l-436 -969q-12 -24 -12 -35q0 -16 20 -16h416q20 0 20 -20v-175q0 -20 -20 -20zM440 1423h-121q-18 0 -18 15q0 5 6 14l170 221
q18 21 37 21h231q7 0 12 -5.5t5 -13.5t-6 -14l-273 -223q-17 -15 -43 -15z" />
    <glyph glyph-name="zacute" unicode="&#x17a;" horiz-adv-x="880" 
d="M799 0h-762q-23 0 -23 16q0 4 23 45l356 594q25 41 25 50q0 16 -23 16h-315q-21 0 -21 20v174q0 21 21 21h727q22 0 22 -16q0 -11 -24 -50l-359 -594q-22 -36 -22 -45q0 -16 22 -16h353q20 0 20 -20v-175q0 -20 -20 -20zM479 1071h-139q-21 0 -21 16q0 5 13 27l184 283
q10 16 29 16h250q22 0 22 -16q0 -11 -14 -25l-291 -287q-18 -14 -33 -14z" />
    <glyph glyph-name="Zdotaccent" unicode="&#x17b;" horiz-adv-x="933" 
d="M811 0h-768q-20 0 -20 16q0 7 14 39l432 965q14 28 14 39q0 16 -20 16h-373q-20 0 -20 21v174q0 20 20 20h727q21 0 21 -16q0 -2 -15 -39l-436 -969q-12 -24 -12 -35q0 -16 20 -16h416q20 0 20 -20v-175q0 -20 -20 -20zM580 1548q0 -47 -33 -79.5t-80 -32.5
q-48 0 -81.5 32.5t-33.5 79.5t34 80t81 33t80 -33t33 -80z" />
    <glyph glyph-name="zdotaccent" unicode="&#x17c;" horiz-adv-x="880" 
d="M799 0h-762q-23 0 -23 16q0 4 23 45l356 594q25 41 25 50q0 16 -23 16h-315q-21 0 -21 20v174q0 21 21 21h727q22 0 22 -16q0 -11 -24 -50l-359 -594q-22 -36 -22 -45q0 -16 22 -16h353q20 0 20 -20v-175q0 -20 -20 -20zM567 1219q0 -54 -36.5 -90.5t-90.5 -36.5
t-90.5 36.5t-36.5 90.5t36.5 90.5t90.5 36.5t90.5 -36.5t36.5 -90.5z" />
    <glyph glyph-name="Zcaron" unicode="&#x17d;" horiz-adv-x="933" 
d="M811 0h-768q-20 0 -20 16q0 7 14 39l432 965q14 28 14 39q0 16 -20 16h-373q-20 0 -20 21v174q0 20 20 20h727q21 0 21 -16q0 -2 -15 -39l-436 -969q-12 -24 -12 -35q0 -16 20 -16h416q20 0 20 -20v-175q0 -20 -20 -20zM481 1417h-71q-15 0 -25 13l-188 260q-7 7 -7 12
q0 14 19 14h135q17 0 29 -18l61 -103q3 -8 10 -8q8 0 13 8l61 103q12 18 29 18h135q16 0 16 -14q0 -8 -4 -12l-188 -260q-10 -13 -25 -13z" />
    <glyph glyph-name="zcaron" unicode="&#x17e;" horiz-adv-x="880" 
d="M799 0h-762q-23 0 -23 16q0 4 23 45l356 594q25 41 25 50q0 16 -23 16h-315q-21 0 -21 20v174q0 21 21 21h727q22 0 22 -16q0 -11 -24 -50l-359 -594q-22 -36 -22 -45q0 -16 22 -16h353q20 0 20 -20v-175q0 -20 -20 -20zM489 1071h-100q-8 0 -16 8l-199 281
q-20 30 -20 37q0 16 22 16h166q9 0 16 -10l66 -105q6 -12 14 -12q11 0 17 12l67 105q7 10 17 10h166q22 0 22 -16q0 -9 -20 -37l-201 -281q-8 -8 -17 -8z" />
    <glyph glyph-name="florin" unicode="&#x192;" 
d="M82 -420l55 152q4 16 17 16l22 -7q23 -7 45 -7q63 0 104.5 42t41.5 105v645q0 21 -21 21h-47q-20 0 -20 20v174q0 21 20 21h47q21 0 21 20v146q0 157 112 270t269 113q65 0 131 -15q16 -3 16 -16q0 -11 -8 -31l-56 -151q-4 -17 -16 -17l-23 7q-22 8 -44 8
q-63 0 -105.5 -42.5t-42.5 -105.5v-166q0 -20 21 -20h135q20 0 20 -21v-174q0 -20 -20 -20h-135q-21 0 -21 -21v-624q0 -157 -112 -270t-269 -113q-68 0 -129 14q-16 3 -16 16q0 11 8 31z" />
    <glyph glyph-name="AEacute" unicode="&#x1fc;" horiz-adv-x="1404" 
d="M84 0h-209q-22 0 -22 16q0 8 22 45l719 1219q7 10 18 10h695q20 0 20 -20v-174q0 -21 -20 -21h-488q-20 0 -20 -20v-273q0 -20 20 -20h400q20 0 20 -21v-174q0 -20 -20 -20h-400q-20 0 -20 -21v-290q0 -21 20 -21h488q20 0 20 -20v-175q0 -20 -20 -20h-723q-21 0 -21 20
v242q0 21 -20 21h-273q-14 0 -20 -9l-148 -264q-7 -10 -18 -10zM418 498h125q20 0 20 20v82q0 105 12 252l-8 2q-24 -63 -47 -104l-112 -207q-13 -26 -13 -29q0 -16 23 -16zM795 1423h-121q-19 0 -19 15q0 4 7 14l169 221q17 21 37 21h232q16 0 16 -19q0 -8 -6 -14
l-272 -223q-18 -15 -43 -15z" />
    <glyph glyph-name="aeacute" unicode="&#x1fd;" horiz-adv-x="1472" 
d="M485 -20h-96q-126 0 -210.5 76.5t-84.5 197.5v39q0 121 84.5 197.5t210.5 76.5h213q21 0 21 21v4q0 62 -42.5 104.5t-103.5 42.5q-97 0 -145 -118q-6 -13 -17 -13q-9 0 -26 10l-160 80q-12 6 -12 17q0 14 33 67q107 172 327 172q146 0 244 -73q2 -1 7 -5.5t9 -7t8 -2.5
q10 0 25 15q99 77 234 77q83 0 156 -32.5t121 -84.5t75.5 -116.5t27.5 -128.5v-166q0 -20 -20 -20h-487q-21 0 -21 -21v-47q0 -61 43 -104t105 -43q95 0 145 120q7 13 16 13q5 0 35 -15l154 -75q12 -6 12 -17q0 -9 -31 -61q-52 -86 -129 -133t-202 -47q-175 0 -275 100
q-8 8 -14 8q-10 0 -15 -8q-42 -45 -105.5 -72.5t-109.5 -27.5zM881 606h243q10 0 16.5 5.5t6.5 13.5q0 30 -38.5 74t-104.5 44t-106 -44t-40 -74q0 -8 6.5 -13.5t16.5 -5.5zM389 195h96q43 0 81 34.5t57 79.5v47q0 17 -21 17h-213q-25 0 -42 -18t-17 -42v-59
q0 -24 16.5 -41.5t42.5 -17.5zM774 1071h-139q-21 0 -21 16q0 5 13 27l184 283q10 16 29 16h250q22 0 22 -16q0 -11 -14 -25l-291 -287q-17 -14 -33 -14z" />
    <glyph glyph-name="Oslashacute" unicode="&#x1fe;" horiz-adv-x="1079" 
d="M590 -20h-101q-173 0 -276.5 100.5t-103.5 261.5v606q0 161 103.5 262t276.5 101h101q172 0 276.5 -101t104.5 -262v-606q0 -161 -104.5 -261.5t-276.5 -100.5zM371 506l272 547q4 12 4 14q0 17 -14 20q-31 9 -43 9h-101q-60 0 -103.5 -44t-43.5 -104v-434q0 -18 14 -18
q10 0 15 10zM489 195h101q61 0 103 42.5t42 104.5v535q0 16 -12 16q-9 0 -14 -10l-306 -613q-8 -20 -8 -26q0 -13 13 -23q41 -26 81 -26zM512 1423h-121q-18 0 -18 15q0 5 6 14l170 221q17 21 37 21h231q7 0 12 -5.5t5 -13.5q0 -7 -7 -14l-272 -223q-17 -15 -43 -15z" />
    <glyph glyph-name="oslashacute" unicode="&#x1ff;" horiz-adv-x="940" 
d="M88 342v254q0 161 105 261.5t278 100.5q172 0 276.5 -100.5t104.5 -261.5v-254q0 -161 -104.5 -261.5t-276.5 -100.5q-173 0 -278 100.5t-105 261.5zM344 393l141 316q4 12 4 16q0 18 -18 18q-62 0 -104.5 -43t-42.5 -104v-199q0 -16 8 -16q6 0 12 12zM616 342v246
q0 18 -12 18q-8 0 -14 -14l-160 -356q-4 -6 -4 -19q0 -17 18 -20q8 -2 27 -2q61 0 103 42.5t42 104.5zM467 1071h-139q-21 0 -21 16q0 7 12 27l185 283q10 16 28 16h250q23 0 23 -16q0 -11 -14 -25l-291 -287q-18 -14 -33 -14z" />
    <glyph glyph-name="Scommaaccent" unicode="&#x218;" horiz-adv-x="966" 
d="M514 -20h-82q-120 0 -196.5 43t-126.5 122q-39 67 -39 76t12 15l164 83q22 11 24 11q11 0 17 -15q50 -120 145 -120h82q60 0 104 43.5t44 103.5q0 37 -13 65t-50 54t-56 36t-78 37q-5 3 -7.5 4t-7 3t-8.5 4q-38 18 -55 26.5t-52.5 27.5t-53 31.5t-47 34.5t-44.5 41
t-35 47t-29.5 56t-16.5 64t-7 75q0 161 104 262t277 101h33q219 0 324 -166q39 -67 39 -76q0 -7 -13 -14l-164 -84q-20 -10 -24 -10q-10 0 -16 14q-51 121 -146 121h-33q-60 0 -103.5 -44t-43.5 -104q0 -25 10.5 -46.5t23.5 -36t41 -31t46.5 -25.5t57.5 -25.5t58 -25.5
q55 -26 94 -47.5t85.5 -58.5t75 -77.5t48 -100.5t19.5 -132q0 -161 -104 -261.5t-277 -100.5zM379 -506l-57 94q-5 5 -5 15q0 9 7 16l16 19q57 72 57 200v43q0 19 19 19h170q18 0 18 -19v-45q0 -115 -47 -205.5t-147 -142.5q-4 -2 -13 -2q-13 0 -18 8z" />
    <glyph glyph-name="scommaaccent" unicode="&#x219;" horiz-adv-x="923" 
d="M479 -20h-59q-216 0 -318 161q-36 59 -36 78q0 11 12 17l147 71q24 12 31 12q10 0 16 -14q23 -57 62.5 -87t85.5 -30h59q56 0 87.5 26t31.5 62q0 22 -11.5 37t-36.5 23.5t-48 13t-63.5 10.5t-65.5 11q-51 10 -88.5 21t-79 32t-68 48.5t-44 70.5t-17.5 98q0 145 100 231
t244 86h59q214 0 314 -151q43 -67 43 -86q0 -9 -13 -16l-155 -76q-16 -8 -23 -8q-10 0 -16 12q-22 57 -63 87t-87 30h-59q-113 0 -113 -78q0 -22 11.5 -37.5t36.5 -24.5t47.5 -13.5t63 -11.5t64.5 -12q51 -11 88.5 -22t80 -32t69.5 -48t45 -69.5t18 -96.5q0 -138 -93 -231.5
t-259 -93.5zM356 -506l-57 94q-4 4 -4 15q0 10 6 16l16 19q58 73 58 200v43q0 19 18 19h170q19 0 19 -19v-45q0 -115 -47.5 -205.5t-147.5 -142.5q-4 -2 -12 -2q-14 0 -19 8z" />
    <glyph glyph-name="Tcommaaccent" unicode="&#x21a;" horiz-adv-x="823" 
d="M508 0h-193q-20 0 -20 20v1035q0 20 -21 20h-223q-20 0 -20 21v174q0 20 20 20h721q21 0 21 -20v-174q0 -21 -21 -21h-223q-21 0 -21 -20v-1035q0 -20 -20 -20zM307 -506l-57 94q-4 4 -4 15q0 10 6 16l16 19q58 73 58 200v43q0 19 18 19h170q18 0 18 -19v-45
q0 -115 -47 -205.5t-147 -142.5q-4 -2 -12 -2q-14 0 -19 8z" />
    <glyph glyph-name="tcommaaccent" unicode="&#x21b;" horiz-adv-x="657" 
d="M567 176v-176q0 -20 -20 -20q-86 0 -174 36q-105 42 -160 127t-55 199v360q0 21 -21 21h-106q-21 0 -21 18q0 1 4 111l236 250q12 12 24 12h97q20 0 20 -20v-136q0 -20 21 -20h135q20 0 20 -20v-175q0 -20 -20 -20h-135q-21 0 -21 -21v-360q0 -58 41 -98.5t117 -46.5
q18 0 18 -21zM223 -506l-57 94q-4 4 -4 15q0 10 6 16l16 19q58 73 58 200v43q0 19 18 19h170q19 0 19 -19v-45q0 -115 -47.5 -205.5t-147.5 -142.5q-4 -2 -12 -2q-14 0 -19 8z" />
    <glyph glyph-name="circumflex" unicode="&#x2c6;" horiz-adv-x="1024" 
d="M414 1071h-166q-23 0 -23 16q0 8 6 17l213 301q8 8 17 8h100q9 0 17 -8l215 -301q6 -9 6 -17q0 -16 -23 -16h-166q-9 0 -16 10l-68 105q-6 12 -16 12q-8 0 -14 -12l-66 -105q-7 -10 -16 -10z" />
    <glyph glyph-name="caron" unicode="&#x2c7;" horiz-adv-x="1024" 
d="M561 1071h-100q-9 0 -17 8l-198 281q-21 31 -21 37q0 16 23 16h166q9 0 16 -10l66 -105q6 -12 14 -12q10 0 16 12l68 105q7 10 16 10h166q23 0 23 -16q0 -8 -21 -37l-200 -281q-8 -8 -17 -8z" />
    <glyph glyph-name="uni02C9" unicode="&#x2c9;" horiz-adv-x="1024" 
d="M750 1116h-467q-21 0 -21 21v174q0 20 21 20h467q20 0 20 -20v-174q0 -21 -20 -21z" />
    <glyph glyph-name="breve" unicode="&#x2d8;" horiz-adv-x="1024" 
d="M555 1071h-88q-93 0 -149 54t-56 141v127q0 20 21 20h104q21 0 21 -20v-88q0 -23 18 -40.5t41 -17.5h88q25 0 41 16.5t16 41.5v88q0 20 21 20h106q21 0 21 -20v-127q0 -87 -56 -141t-149 -54z" />
    <glyph glyph-name="dotaccent" unicode="&#x2d9;" horiz-adv-x="1024" 
d="M639 1219q0 -54 -36.5 -90.5t-90.5 -36.5t-90.5 36.5t-36.5 90.5t36.5 90.5t90.5 36.5t90.5 -36.5t36.5 -90.5z" />
    <glyph glyph-name="ring" unicode="&#x2da;" horiz-adv-x="1024" 
d="M307 1239v59q0 87 56 141t149 54t149 -54t56 -141v-59q0 -87 -56 -141t-149 -54t-149 54t-56 141zM571 1239v59q0 23 -18 41.5t-41 18.5t-41 -18.5t-18 -41.5v-59q0 -23 18 -40t41 -17t41 17t18 40z" />
    <glyph glyph-name="ogonek" unicode="&#x2db;" horiz-adv-x="1024" 
d="M739 -283v-135q0 -20 -18 -20q-23 0 -64.5 10.5t-70.5 24.5q-78 38 -123 106.5t-45 149.5v243q0 21 20 21h150q20 0 20 -21v-256q0 -39 28 -67t85 -35q18 -3 18 -21z" />
    <glyph glyph-name="tilde" unicode="&#x2dc;" horiz-adv-x="1024" 
d="M266 1128l-69 52q-9 6 -9 16t29 57q76 119 178 119q66 0 140 -53l34 -25q29 -22 58 -22q46 0 88 69q7 13 16 13q6 0 23 -13l73 -59q9 -6 9 -16q0 -14 -37 -70q-77 -113 -172 -113q-21 0 -46.5 9t-43.5 19.5t-52 31.5l-36 22q-34 21 -54 21q-41 0 -84 -64q-6 -12 -16 -12
q-7 0 -29 18z" />
    <glyph glyph-name="hungarumlaut" unicode="&#x2dd;" horiz-adv-x="1024" 
d="M649 1071h-82q-20 0 -20 16q0 10 16 54l88 258q3 14 19 14h170q22 0 22 -16q0 -14 -18 -39l-176 -277q-7 -10 -19 -10zM408 1071h-99q-20 0 -20 16q0 10 16 54l88 258q3 14 19 14h170q22 0 22 -16q0 -7 -18 -39l-160 -277q-7 -10 -18 -10z" />
    <glyph glyph-name="uni03A9" unicode="&#x3a9;" horiz-adv-x="1462" 
d="M90 0v193h303q-307 243 -307 616q0 185 80 333t227 232t334 84q197 0 339.5 -84.5t213 -228.5t70.5 -330q0 -109 -25.5 -206.5t-71.5 -174t-98 -134.5t-115 -107h308v-193h-504v193q49 47 87 93.5t79.5 117.5t64.5 163.5t23 198.5q0 217 -98.5 352t-276.5 135
q-173 0 -279 -136.5t-106 -356.5q0 -340 256 -567v-193h-504z" />
    <glyph glyph-name="uni03BC" unicode="&#x3bc;" horiz-adv-x="978" 
d="M313 -328h-194q-21 0 -21 21v1225q0 20 21 20h194q21 0 21 -20v-556q0 -63 41.5 -105t103.5 -42q61 0 104.5 42.5t43.5 104.5v556q0 20 20 20h193q20 0 20 -20v-898q0 -20 -20 -20h-174q-21 0 -21 18q0 23 -16 23q-3 0 -15 -4q-69 -37 -135 -37q-63 0 -125 16
q-20 6 -20 -16v-307q0 -21 -21 -21z" />
    <glyph glyph-name="pi" unicode="&#x3c0;" horiz-adv-x="1349" 
d="M522 0h-239q39 124 39 317v533q-44 0 -101.5 -13.5t-93.5 -33.5q-33 71 -66 151q49 29 134.5 49.5t185.5 20.5h874v-174h-206v-531q0 -163 108 -163q36 0 68 18l41 -151q-67 -41 -176 -41q-144 0 -211.5 86t-67.5 221v561h-254v-551q0 -189 -35 -299z" />
    <glyph glyph-name="Wgrave" unicode="&#x1e80;" horiz-adv-x="1345" 
d="M446 0h-149q-18 0 -21 16l-260 1203q-2 9 -4.5 21.5t-4 21t-1.5 12.5q0 16 21 16h209q17 0 20 -16l119 -633q16 -110 20 -127h11q2 8 13 63.5t13 63.5l168 639q3 14 21 14h102q17 0 20 -14l168 -639q2 -8 13.5 -63.5t13.5 -63.5h10q2 8 10.5 63.5t10.5 63.5l121 633
q3 16 20 16h209q20 0 20 -16q0 -5 -10 -55l-260 -1203q-3 -16 -20 -16h-150q-17 0 -20 14l-179 619q-2 8 -12 56.5t-12 55.5h-6q-2 -8 -12.5 -56t-12.5 -56l-178 -619q-3 -14 -21 -14zM758 1423h-121q-25 0 -43 15l-272 223q-9 9 -9 14q0 19 19 19h231q19 0 37 -21l170 -221
q6 -9 6 -14q0 -15 -18 -15z" />
    <glyph glyph-name="wgrave" unicode="&#x1e81;" horiz-adv-x="1226" 
d="M442 0h-143q-17 0 -20 14l-261 856q-14 44 -14 52q0 16 23 16h200q18 0 21 -14l100 -389q11 -40 21 -127h8q12 60 29 124l104 392q3 14 20 14h172q18 0 21 -14l102 -392q17 -63 29 -126h8q8 70 23 129l98 389q3 14 21 14h198q23 0 23 -16q0 -7 -15 -52l-262 -856
q-3 -14 -20 -14h-142q-17 0 -20 14l-123 432q-15 54 -25 111h-8q-6 -35 -26 -111l-121 -432q-3 -14 -21 -14zM713 1071h-140q-15 0 -32 14l-291 287q-14 14 -14 25q0 16 22 16h250q19 0 29 -16l184 -283q12 -20 12 -27q0 -16 -20 -16z" />
    <glyph glyph-name="Wacute" unicode="&#x1e82;" horiz-adv-x="1345" 
d="M446 0h-149q-18 0 -21 16l-260 1203q-2 9 -4.5 21.5t-4 21t-1.5 12.5q0 16 21 16h209q17 0 20 -16l119 -633q16 -110 20 -127h11q2 8 13 63.5t13 63.5l168 639q3 14 21 14h102q17 0 20 -14l168 -639q2 -8 13.5 -63.5t13.5 -63.5h10q2 8 10.5 63.5t10.5 63.5l121 633
q3 16 20 16h209q20 0 20 -16q0 -5 -10 -55l-260 -1203q-3 -16 -20 -16h-150q-17 0 -20 14l-179 619q-2 8 -12 56.5t-12 55.5h-6q-2 -8 -12.5 -56t-12.5 -56l-178 -619q-3 -14 -21 -14zM707 1423h-121q-19 0 -19 15q0 5 6 14l170 221q17 21 37 21h232q16 0 16 -19
q0 -8 -6 -14l-272 -223q-18 -15 -43 -15z" />
    <glyph glyph-name="wacute" unicode="&#x1e83;" horiz-adv-x="1226" 
d="M442 0h-143q-17 0 -20 14l-261 856q-14 44 -14 52q0 16 23 16h200q18 0 21 -14l100 -389q11 -40 21 -127h8q12 60 29 124l104 392q3 14 20 14h172q18 0 21 -14l102 -392q17 -63 29 -126h8q8 70 23 129l98 389q3 14 21 14h198q23 0 23 -16q0 -7 -15 -52l-262 -856
q-3 -14 -20 -14h-142q-17 0 -20 14l-123 432q-15 54 -25 111h-8q-6 -35 -26 -111l-121 -432q-3 -14 -21 -14zM651 1071h-139q-20 0 -20 16q0 7 12 27l184 283q10 16 29 16h250q22 0 22 -16q0 -11 -14 -25l-291 -287q-18 -14 -33 -14z" />
    <glyph glyph-name="Wdieresis" unicode="&#x1e84;" horiz-adv-x="1345" 
d="M446 0h-149q-18 0 -21 16l-260 1203q-2 9 -4.5 21.5t-4 21t-1.5 12.5q0 16 21 16h209q17 0 20 -16l119 -633q16 -110 20 -127h11q2 8 13 63.5t13 63.5l168 639q3 14 21 14h102q17 0 20 -14l168 -639q2 -8 13.5 -63.5t13.5 -63.5h10q2 8 10.5 63.5t10.5 63.5l121 633
q3 16 20 16h209q20 0 20 -16q0 -5 -10 -55l-260 -1203q-3 -16 -20 -16h-150q-17 0 -20 14l-179 619q-2 8 -12 56.5t-12 55.5h-6q-2 -8 -12.5 -56t-12.5 -56l-178 -619q-3 -14 -21 -14zM948 1548q0 -47 -32.5 -79.5t-79.5 -32.5q-48 0 -81.5 32.5t-33.5 79.5t34 80t81 33
t79.5 -33t32.5 -80zM623 1548q0 -47 -33 -79.5t-80 -32.5q-48 0 -81.5 32.5t-33.5 79.5t34 80t81 33t80 -33t33 -80z" />
    <glyph glyph-name="wdieresis" unicode="&#x1e85;" horiz-adv-x="1226" 
d="M442 0h-143q-17 0 -20 14l-261 856q-14 44 -14 52q0 16 23 16h200q18 0 21 -14l100 -389q11 -40 21 -127h8q12 60 29 124l104 392q3 14 20 14h172q18 0 21 -14l102 -392q17 -63 29 -126h8q8 70 23 129l98 389q3 14 21 14h198q23 0 23 -16q0 -7 -15 -52l-262 -856
q-3 -14 -20 -14h-142q-17 0 -20 14l-123 432q-15 54 -25 111h-8q-6 -35 -26 -111l-121 -432q-3 -14 -21 -14zM911 1219q0 -54 -36.5 -90.5t-90.5 -36.5t-90.5 36.5t-36.5 90.5t36.5 90.5t90.5 36.5t90.5 -36.5t36.5 -90.5zM565 1219q0 -54 -36.5 -90.5t-90.5 -36.5
t-90.5 36.5t-36.5 90.5t36.5 90.5t90.5 36.5t90.5 -36.5t36.5 -90.5z" />
    <glyph glyph-name="Ygrave" unicode="&#x1ef2;" horiz-adv-x="921" 
d="M557 0h-195q-20 0 -20 20v541q0 26 -14 55l-334 625q-14 25 -14 33q0 16 22 16h227q11 0 19 -12l194 -401q7 -17 19 -17q11 0 18 17l195 401q8 12 18 12h226q22 0 22 -16q0 -5 -14 -33l-334 -625q-14 -28 -14 -57v-539q0 -20 -21 -20zM547 1423h-121q-26 0 -43 15
l-272 223q-9 9 -9 14q0 19 19 19h231q20 0 37 -21l170 -221q6 -9 6 -14q0 -15 -18 -15z" />
    <glyph glyph-name="ygrave" unicode="&#x1ef3;" horiz-adv-x="978" 
d="M131 -225l164 82q13 8 22 8q11 0 17 -12q48 -119 145 -119q60 0 104 43.5t44 103.5v127q0 23 -15 23q-6 0 -14 -4q-58 -27 -119 -27q-172 0 -276.5 100.5t-104.5 261.5v556q0 20 21 20h194q21 0 21 -20v-556q0 -63 41.5 -105t103.5 -42q61 0 104.5 42.5t43.5 104.5v556
q0 20 20 20h193q20 0 20 -20v-1018q0 -170 -99 -275.5t-282 -105.5q-210 0 -313 149q-47 64 -47 90q0 11 12 17zM590 1071h-139q-15 0 -33 14l-291 287q-14 14 -14 25q0 16 22 16h250q19 0 29 -16l184 -283q12 -20 12 -27q0 -16 -20 -16z" />
    <glyph glyph-name="endash" unicode="&#x2013;" horiz-adv-x="1136" 
d="M1036 410h-936q-20 0 -20 20v135q0 21 20 21h936q21 0 21 -21v-135q0 -20 -21 -20z" />
    <glyph glyph-name="emdash" unicode="&#x2014;" horiz-adv-x="1665" 
d="M1565 410h-1465q-20 0 -20 20v135q0 21 20 21h1465q20 0 20 -21v-135q0 -20 -20 -20z" />
    <glyph glyph-name="quoteleft" unicode="&#x2018;" horiz-adv-x="387" 
d="M293 872h-203q-20 0 -20 21v141q0 114 32 186.5t95 118.5q22 16 46.5 29.5t30.5 13.5q11 0 17 -12l45 -88q12 -20 12 -29q0 -10 -12 -16q-37 -16 -58.5 -50.5t-21.5 -66.5q0 -20 20 -20h17q20 0 20 -21v-186q0 -21 -20 -21z" />
    <glyph glyph-name="quoteright" unicode="&#x2019;" horiz-adv-x="387" 
d="M96 793l-45 88q-12 20 -12 28q0 11 12 17q37 16 58.5 50t21.5 66q0 21 -20 21h-17q-20 0 -20 20v187q0 20 20 20h203q20 0 20 -20v-142q0 -114 -32 -186.5t-95 -118.5q-22 -16 -46.5 -29.5t-30.5 -13.5q-11 0 -17 13z" />
    <glyph glyph-name="quotesinglbase" unicode="&#x201a;" horiz-adv-x="387" 
d="M96 -223l-45 88q-12 20 -12 29q0 10 12 16q37 16 58.5 50.5t21.5 66.5q0 20 -20 20h-17q-20 0 -20 21v186q0 20 20 20h203q20 0 20 -20v-141q0 -114 -32 -187t-95 -119q-22 -16 -46.5 -29.5t-30.5 -13.5q-11 0 -17 13z" />
    <glyph glyph-name="quotedblleft" unicode="&#x201c;" horiz-adv-x="708" 
d="M614 872h-202q-21 0 -21 21v141q0 114 32 186.5t95 118.5q22 16 47 29.5t31 13.5q10 0 16 -12l45 -88q13 -22 13 -29q0 -9 -13 -16q-37 -16 -58 -50.5t-21 -66.5q0 -20 20 -20h16q21 0 21 -21v-186q0 -21 -21 -21zM293 872h-203q-20 0 -20 21v141q0 114 32 186.5
t95 118.5q22 16 46.5 29.5t30.5 13.5q11 0 17 -12l45 -88q12 -20 12 -29q0 -10 -12 -16q-37 -16 -58.5 -50.5t-21.5 -66.5q0 -20 20 -20h17q20 0 20 -21v-186q0 -21 -20 -21z" />
    <glyph glyph-name="quotedblright" unicode="&#x201d;" horiz-adv-x="708" 
d="M418 793l-45 88q-13 22 -13 28q0 11 13 17q37 16 58.5 50t21.5 66q0 9 -6 15t-15 6h-16q-21 0 -21 20v187q0 20 21 20h202q21 0 21 -20v-142q0 -114 -32 -186.5t-95 -118.5q-22 -16 -47 -29.5t-31 -13.5q-10 0 -16 13zM96 793l-45 88q-12 20 -12 28q0 11 12 17
q37 16 58.5 50t21.5 66q0 21 -20 21h-17q-20 0 -20 20v187q0 20 20 20h203q20 0 20 -20v-142q0 -114 -32 -186.5t-95 -118.5q-22 -16 -46.5 -29.5t-30.5 -13.5q-11 0 -17 13z" />
    <glyph glyph-name="quotedblbase" unicode="&#x201e;" horiz-adv-x="708" 
d="M418 -223l-45 88q-13 22 -13 29q0 10 13 16q37 16 58.5 50.5t21.5 66.5q0 20 -21 20h-16q-21 0 -21 21v186q0 20 21 20h202q21 0 21 -20v-141q0 -114 -32 -187t-95 -119q-22 -16 -47 -29.5t-31 -13.5q-10 0 -16 13zM96 -223l-45 88q-12 20 -12 29q0 10 12 16
q37 16 58.5 50.5t21.5 66.5q0 20 -20 20h-17q-20 0 -20 21v186q0 20 20 20h203q20 0 20 -20v-141q0 -114 -32 -187t-95 -119q-22 -16 -46.5 -29.5t-30.5 -13.5q-11 0 -17 13z" />
    <glyph glyph-name="dagger" unicode="&#x2020;" horiz-adv-x="821" 
d="M451 -461h-78q-21 0 -21 21l-39 1087q17 107 17 115q0 16 -19 16q-6 0 -146 -13t-147 -13q-18 0 -18 20v172q0 21 20 21q5 0 148 -12.5t149 -12.5q19 0 19 18q0 8 -12.5 158.5t-12.5 153.5q0 20 21 20h160q20 0 20 -20q0 -5 -12.5 -155.5t-12.5 -156.5q0 -18 19 -18
q5 0 148 12.5t147 12.5q20 0 20 -21v-172q0 -20 -18 -20q-6 0 -145.5 13t-145.5 13q-18 0 -18 -16q0 -5 16 -115l-39 -1087q0 -21 -20 -21z" />
    <glyph glyph-name="daggerdbl" unicode="&#x2021;" horiz-adv-x="821" 
d="M451 -461h-78q-21 0 -21 21l-24 772q0 20 -21 20q-5 0 -143.5 -12t-143.5 -12q-20 0 -20 20v172q0 21 18 21q8 0 143 -12.5t140 -12.5q18 0 18 21q0 1 -6 112q17 107 17 113q0 16 -19 16q-6 0 -146 -13t-147 -13q-18 0 -18 20v172q0 21 20 21q4 0 147 -12.5t150 -12.5
q19 0 19 18q0 7 -12.5 156.5t-12.5 155.5q0 20 21 20h160q20 0 20 -20q0 -7 -12.5 -156t-12.5 -156q0 -18 19 -18q6 0 147.5 12.5t147.5 12.5q20 0 20 -21v-172q0 -20 -18 -20q-7 0 -147 13t-144 13q-18 0 -18 -16q0 -13 16 -111q-2 -30 -3.5 -59t-2 -40t-0.5 -15
q0 -21 18 -21q8 0 142 12.5t139 12.5q18 0 18 -21v-172q0 -20 -20 -20q-4 0 -142.5 12t-142.5 12q-20 0 -20 -20l-25 -772q0 -21 -20 -21z" />
    <glyph glyph-name="bullet" unicode="&#x2022;" horiz-adv-x="1024" 
d="M516 322h-8q-145 0 -233.5 84.5t-88.5 218.5v41q0 134 88.5 217.5t233.5 83.5h8q145 0 233.5 -83.5t88.5 -217.5v-41q0 -134 -88.5 -218.5t-233.5 -84.5z" />
    <glyph glyph-name="ellipsis" unicode="&#x2026;" horiz-adv-x="2048" 
d="M1769 117q0 -55 -40.5 -96t-96.5 -41t-96.5 41t-40.5 96t40.5 96t96.5 41t96.5 -41t40.5 -96zM1159 117q0 -55 -40.5 -96t-96.5 -41t-96.5 41t-40.5 96t40.5 96t96.5 41t96.5 -41t40.5 -96zM549 117q0 -55 -40.5 -96t-96.5 -41t-97 41t-41 96t41 96t97 41t96.5 -41
t40.5 -96z" />
    <glyph glyph-name="perthousand" unicode="&#x2030;" horiz-adv-x="1613" 
d="M1112 195v196q0 87 56 141t149 54t149 -54t56 -141v-196q0 -87 -56 -141t-149 -54t-149 54t-56 141zM94 899v191q0 88 56 144t149 56q94 0 150.5 -53.5t56.5 -140.5v-197q0 -87 -56.5 -140.5t-150.5 -53.5q-93 0 -149 53.5t-56 140.5zM348 0h-108q-21 0 -21 16q0 9 27 70
l510 1192q6 12 18 12h109q20 0 20 -16q0 -5 -26 -70l-510 -1192q-6 -12 -19 -12zM616 195v196q0 87 56 141t149 54t149 -54t56 -141v-196q0 -87 -56 -141t-149 -54t-149 54t-56 141zM1356 195v196q0 17 -11 28t-28 11t-28 -11t-11 -28v-196q0 -17 11 -28t28 -11t28 11t11 28
zM340 899v197q0 15 -13 27t-28 12q-17 0 -28 -11t-11 -28v-197q0 -17 11 -28t28 -11q15 0 28 12t13 27zM860 195v196q0 17 -11 28t-28 11t-28 -11t-11 -28v-196q0 -17 11 -28t28 -11t28 11t11 28z" />
    <glyph glyph-name="guilsinglleft" unicode="&#x2039;" horiz-adv-x="702" 
d="M549 172l-443 313q-8 8 -8 17v145q0 9 8 17l443 315q9 6 16 6q17 0 17 -22v-183q0 -7 -9 -16l-241 -172q-10 -7 -10 -17q0 -6 10 -16l241 -174q9 -9 9 -16v-181q0 -22 -17 -22q-7 0 -16 6z" />
    <glyph glyph-name="guilsinglright" unicode="&#x203a;" horiz-adv-x="702" 
d="M121 188v181q0 8 8 16l240 174q10 10 10 16q0 7 -10 17l-240 172q-8 8 -8 16v183q0 22 16 22q8 0 17 -6l442 -315q8 -8 8 -17v-145q0 -9 -8 -17l-442 -313q-9 -6 -17 -6q-16 0 -16 22z" />
    <glyph glyph-name="fraction" unicode="&#x2044;" horiz-adv-x="395" 
d="M-2 0h-111q-20 0 -20 16q0 5 12 37l524 1225q6 12 19 12h110q21 0 21 -16q0 -13 -10 -33l-527 -1229q-6 -12 -18 -12z" />
    <glyph glyph-name="zero.superior" unicode="&#x2070;" horiz-adv-x="686" 
d="M362 702h-40q-122 0 -195.5 57.5t-73.5 149.5v301q0 92 73.5 149.5t195.5 57.5h40q122 0 195.5 -57.5t73.5 -149.5v-301q0 -92 -73.5 -149.5t-195.5 -57.5zM322 864h40q47 0 68 27t21 59v219q0 32 -21 59t-68 27h-40q-46 0 -68.5 -27.5t-22.5 -58.5v-219q0 -32 22.5 -59
t68.5 -27z" />
    <glyph glyph-name="four.superior" unicode="&#x2074;" horiz-adv-x="686" 
d="M508 713h-133q-23 0 -23 39v79q0 21 -18 21h-275q-22 0 -22 29v112l323 400q14 14 19 14h129q24 0 24 -21v-358q0 -12 13 -12h82q22 0 22 -39v-86q0 -39 -22 -39h-82q-8 0 -10.5 -2.5t-2.5 -11.5v-86q0 -23 -5 -31t-19 -8zM264 1016h76q8 0 10 3t2 13v98q0 11 -4 11
q-3 0 -14 -15l-70 -90q-10 -13 -10 -16q0 -4 10 -4z" />
    <glyph glyph-name="five.superior" unicode="&#x2075;" horiz-adv-x="686" 
d="M365 702h-39q-144 0 -228 95q-9 9 -24 30.5t-15 30.5q0 12 25 25q11 4 41.5 16.5t56 22.5t31.5 10q4 0 7 -3t9.5 -11.5t8.5 -10.5q35 -43 88 -43h39q88 0 88 45v35q0 27 -18.5 36t-69.5 9h-234q-13 0 -19 4.5t-6 20.5v368q0 16 6 20.5t19 4.5h463q24 0 24 -16v-121
q0 -25 -24 -25h-291q-8 0 -11 -3t-3 -13v-64q0 -9 2.5 -11.5t11.5 -2.5h62q123 0 195.5 -57.5t72.5 -157.5v-18q0 -99 -73 -157.5t-195 -58.5z" />
    <glyph glyph-name="six.superior" unicode="&#x2076;" horiz-adv-x="686" 
d="M365 702h-43q-121 0 -195 58t-74 149v301q0 91 74 149t195 58h43q149 0 229 -90q10 -10 24.5 -33.5t14.5 -33.5q0 -11 -12 -17l-129 -49q-8 -4 -17 -4q-7 0 -18 20q-27 45 -92 45h-43q-37 0 -63 -13t-26 -30v-65q0 -14 13 -14q4 0 38.5 11t57.5 11h35q109 0 183.5 -58
t74.5 -149v-39q0 -92 -74 -149.5t-196 -57.5zM322 864h43q90 0 90 43v41q0 45 -90 45h-43q-89 0 -89 -45v-41q0 -43 89 -43z" />
    <glyph glyph-name="seven.superior" unicode="&#x2077;" horiz-adv-x="686" 
d="M268 713h-131q-14 0 -19 4.5t-5 21.5v127q0 50 16 91.5t45.5 71.5t59 50t69.5 41q137 62 137 90v19q0 14 -22 14h-307q-14 0 -19.5 6t-5.5 23v106q0 29 25 29h489q14 0 19.5 -5.5t5.5 -23.5v-127q0 -37 -8 -68t-26.5 -56t-35.5 -43t-47.5 -36.5t-48 -28t-51.5 -26.5
q-33 -16 -46.5 -23.5t-33.5 -22t-27.5 -31t-7.5 -37.5v-138q0 -17 -5.5 -22.5t-19.5 -5.5z" />
    <glyph glyph-name="eight.superior" unicode="&#x2078;" horiz-adv-x="686" 
d="M362 702h-40q-123 0 -196 58t-73 158v24q0 45 43 98q15 19 15 23q0 5 -15 20q-43 43 -43 97v20q0 100 73 158.5t196 58.5h40q123 0 196 -58.5t73 -158.5v-20q0 -52 -47 -99q-13 -13 -13 -18q0 -6 15 -21q45 -45 45 -100v-24q0 -100 -73 -158t-196 -58zM322 1147h40
q89 0 89 43v22q0 43 -89 43h-40q-91 0 -91 -43v-22q0 -43 91 -43zM322 864h40q89 0 89 43v35q0 43 -89 43h-40q-91 0 -91 -43v-35q0 -21 26.5 -32t64.5 -11z" />
    <glyph glyph-name="nine.superior" unicode="&#x2079;" horiz-adv-x="686" 
d="M365 702h-39q-80 0 -130.5 25.5t-91.5 71.5q-41 41 -41 63q0 10 21 21q10 4 40.5 16.5t56 22.5t32.5 10q4 0 7 -2.5t8.5 -10t7.5 -10.5q39 -45 90 -45h39q35 0 62.5 13t27.5 30v29q0 14 -11 14q-1 0 -15 -4.5t-35.5 -9t-41.5 -4.5h-43q-108 0 -182 58t-74 147v73
q0 91 74 149t195 58h43q122 0 196 -57.5t74 -149.5v-301q0 -92 -74 -149.5t-196 -57.5zM322 1094h43q37 0 63.5 12.5t26.5 30.5v75q0 17 -27.5 30t-62.5 13h-43q-37 0 -63 -13t-26 -30v-75q0 -19 26 -31t63 -12z" />
    <glyph glyph-name="zero.inferior" unicode="&#x2080;" horiz-adv-x="686" 
d="M362 -209h-40q-122 0 -195.5 57.5t-73.5 149.5v301q0 92 73.5 149.5t195.5 57.5h40q122 0 195.5 -57.5t73.5 -149.5v-301q0 -92 -73.5 -149.5t-195.5 -57.5zM322 -47h40q47 0 68 27t21 59v219q0 32 -21 59t-68 27h-40q-46 0 -68.5 -27.5t-22.5 -58.5v-219q0 -32 22.5 -59
t68.5 -27z" />
    <glyph glyph-name="one.inferior" unicode="&#x2081;" horiz-adv-x="686" 
d="M606 -199h-479q-12 0 -12 13v137q0 12 12 12h131q16 0 16 14v213q0 9 -8 9q-4 0 -8 -2l-33 -27q-12 -12 -18 -12q-8 0 -12 4l-89 80q-14 14 -14 18q0 6 4 10l246 230q12 6 18 6h86q13 0 13 -14v-515q0 -14 18 -14h129q12 0 12 -12v-137q0 -13 -12 -13z" />
    <glyph glyph-name="two.inferior" unicode="&#x2082;" horiz-adv-x="686" 
d="M600 -199h-508q-14 0 -14 13v106q0 43 8 79t19 61t31.5 45.5t37 32.5t44 22.5t44.5 15.5t45 12q28 6 36.5 8t30 8t29 10.5t18.5 12.5t15 18t4 23q0 35 -22 55.5t-62 20.5h-49q-50 0 -98 -76q-10 -10 -14 -10q-7 0 -31 12l-113 52q-6 6 -6 12t2 10q43 80 102.5 121
t153.5 41h53q122 0 194.5 -69t72.5 -179q0 -42 -15 -75t-38 -53t-55.5 -35.5t-62 -24t-63.5 -16.5q-9 -2 -14 -3q-27 -7 -40 -11t-31 -11.5t-25 -17.5t-7 -23v-13q0 -12 17 -12h311q12 0 12 -12v-137q0 -13 -12 -13z" />
    <glyph glyph-name="three.inferior" unicode="&#x2083;" horiz-adv-x="686" 
d="M342 -209h-31q-80 0 -128.5 25.5t-88.5 72.5q-10 12 -24.5 36t-14.5 32q0 12 25 23q10 4 39.5 15t52.5 19.5t27 8.5q2 0 4 -0.5t3.5 -1.5t3.5 -3.5t3 -4.5t3.5 -6t4.5 -7q26 -47 90 -47h31q90 0 90 45v35q0 26 -21 34.5t-69 8.5h-117q-14 0 -19 4.5t-5 21.5v115
q0 13 5 17t19 4h117q47 0 68.5 10.5t21.5 36.5v14q0 25 -22.5 35t-67.5 10h-31q-63 0 -98 -61q-7 -7 -12 -7l-21 7l-112 51q-13 4 -13 16q0 21 37 64q84 92 219 92h31q123 0 196.5 -58.5t73.5 -158.5v-15q0 -58 -61 -116q61 -64 61 -121v-31q0 -99 -73 -157t-197 -58z" />
    <glyph glyph-name="four.inferior" unicode="&#x2084;" horiz-adv-x="686" 
d="M508 -199h-133q-23 0 -23 39v80q0 21 -18 21h-275q-22 0 -22 28v113l323 399q15 15 19 15h129q24 0 24 -21v-358q0 -13 13 -13h82q22 0 22 -38v-86q0 -39 -22 -39h-82q-13 0 -13 -15v-86q0 -23 -5 -31t-19 -8zM264 104h76q8 0 10 3.5t2 13.5v98q0 10 -4 10t-14 -14
l-70 -90q-10 -13 -10 -16q0 -5 10 -5z" />
    <glyph glyph-name="five.inferior" unicode="&#x2085;" horiz-adv-x="686" 
d="M365 -209h-39q-145 0 -228 94q-9 9 -24 31t-15 31q0 3 1.5 6t3 5.5t5 4.5t5.5 3t5.5 3t4.5 2q11 4 41.5 16.5t56 22.5t31.5 10q2 0 4.5 -1t5 -4t4.5 -5.5t5.5 -6.5t5.5 -7q35 -43 88 -43h39q88 0 88 45v35q0 27 -18.5 36t-69.5 9h-234q-13 0 -19 4t-6 20v369q0 16 6 20.5
t19 4.5h463q24 0 24 -17v-121q0 -24 -24 -24h-291q-14 0 -14 -17v-63q0 -9 2.5 -11.5t11.5 -2.5h62q123 0 195.5 -57.5t72.5 -157.5v-19q0 -99 -73 -157t-195 -58z" />
    <glyph glyph-name="six.inferior" unicode="&#x2086;" horiz-adv-x="686" 
d="M365 -209h-43q-121 0 -195 58t-74 149v301q0 91 74 149t195 58h43q149 0 229 -90q10 -10 24.5 -34t14.5 -34t-12 -16l-129 -49q-8 -4 -17 -4q-7 0 -18 20q-27 45 -92 45h-43q-37 0 -63 -13t-26 -30v-65q0 -15 13 -15q4 0 38.5 11.5t57.5 11.5h35q109 0 183.5 -58
t74.5 -149v-39q0 -92 -74 -149.5t-196 -57.5zM322 -47h43q90 0 90 43v41q0 45 -90 45h-43q-89 0 -89 -45v-41q0 -43 89 -43z" />
    <glyph glyph-name="seven.inferior" unicode="&#x2087;" horiz-adv-x="686" 
d="M268 -199h-131q-14 0 -19 5t-5 22v127q0 50 16 91.5t45.5 71.5t59 50t69.5 41q137 62 137 90v18q0 15 -22 15h-307q-14 0 -19.5 5.5t-5.5 22.5v107q0 29 25 29h489q14 0 19.5 -5.5t5.5 -23.5v-127q0 -37 -8 -68t-26.5 -56t-35.5 -43t-47.5 -36.5t-48 -28t-51.5 -26.5
q-31 -15 -45.5 -23.5t-34 -23t-27.5 -31t-8 -37.5v-137q0 -17 -5.5 -23t-19.5 -6z" />
    <glyph glyph-name="eight.inferior" unicode="&#x2088;" horiz-adv-x="686" 
d="M362 -209h-40q-123 0 -196 58t-73 157v25q0 45 43 98q15 19 15 23q0 5 -15 20q-43 43 -43 96v21q0 100 73 158.5t196 58.5h40q123 0 196 -58.5t73 -158.5v-21q0 -51 -47 -98q-13 -13 -13 -18q0 -6 15 -21q45 -45 45 -100v-25q0 -99 -73 -157t-196 -58zM322 236h40
q89 0 89 43v22q0 43 -89 43h-40q-91 0 -91 -43v-22q0 -43 91 -43zM322 -47h40q89 0 89 43v35q0 43 -89 43h-40q-91 0 -91 -43v-35q0 -21 26.5 -32t64.5 -11z" />
    <glyph glyph-name="nine.inferior" unicode="&#x2089;" horiz-adv-x="686" 
d="M365 -209h-39q-81 0 -131 25t-91 71q-41 41 -41 64q0 3 1 5.5t2.5 4t4 3.5t4.5 3t5 2t4 2q10 4 40.5 16.5t56 22.5t32.5 10q3 0 6 -2t4.5 -4t6 -7.5t6.5 -8.5q39 -45 90 -45h39q35 0 62.5 13t27.5 30v29q0 14 -11 14q-1 0 -15 -4.5t-35.5 -9.5t-41.5 -5h-43
q-108 0 -182 58t-74 147v74q0 91 74 149t195 58h43q122 0 196 -57.5t74 -149.5v-301q0 -92 -74 -149.5t-196 -57.5zM322 182h43q37 0 63.5 12.5t26.5 30.5v76q0 17 -27.5 30t-62.5 13h-43q-37 0 -63 -13t-26 -30v-76q0 -19 26 -31t63 -12z" />
    <glyph glyph-name="Euro" unicode="&#x20ac;" 
d="M641 -20h-100q-173 0 -277 100.5t-104 261.5v20q0 9 -6 15t-15 6h-119q-20 0 -20 20v156q0 21 20 21h119q21 0 21 20v94q0 9 -6 15t-15 6h-119q-20 0 -20 20v156q0 20 20 20h119q9 0 15 6t6 15v16q0 161 104 262t277 101h100q92 0 160.5 -28.5t108.5 -70t79 -108.5
q1 -2 5.5 -9t7 -13t2.5 -11q0 -11 -13 -18l-157 -78q-28 -14 -31 -14q-10 0 -17 14q-51 121 -145 121h-100q-60 0 -104 -44t-44 -104v-16q0 -9 6 -15t15 -6h239q21 0 21 -20v-156q0 -20 -21 -20h-239q-9 0 -15 -6t-6 -15v-94q0 -20 21 -20h239q21 0 21 -21v-156
q0 -20 -21 -20h-239q-9 0 -15 -6t-6 -15v-20q0 -60 44 -103.5t104 -43.5h100q94 0 145 124q6 13 17 13q6 0 22 -8l166 -82q13 -6 13 -17q0 -4 -3 -10q-27 -55 -56 -94.5t-71 -73t-100.5 -50.5t-132.5 -17z" />
    <glyph glyph-name="litre" unicode="&#x2113;" horiz-adv-x="1015" 
d="M283 307v168l-111 -117q-31 44 -74 107q93 93 185 188v439q0 194 78 296.5t212 102.5q61 0 107 -22.5t71.5 -59t37.5 -76.5t12 -82q0 -138 -61 -263t-177 -267q-8 -10 -33 -39t-34 -39v-315q0 -193 122 -193q74 0 158 88q11 -23 34 -66t32 -61q-131 -127 -281 -127
q-120 0 -194 74q-41 41 -62.5 112.5t-21.5 151.5zM496 1124v-290q23 23 34 45q61 83 97.5 176t36.5 168q0 43 -17.5 72.5t-52.5 29.5q-98 0 -98 -201z" />
    <glyph glyph-name="trademark" unicode="&#x2122;" horiz-adv-x="876" 
d="M463 737h-25q-20 0 -20 21v344q0 20 20 20h25q11 0 18 -10l97 -166q10 -14 18 -14t18 14l97 166q7 10 18 10h25q20 0 20 -20v-344q0 -21 -20 -21h-25q-20 0 -20 21v147q0 25 -19 25q-9 0 -20 -15l-52 -84q-7 -10 -18 -10h-8q-10 0 -17 10l-55 84q-11 15 -20 15
q-7 0 -12 -7t-5 -18v-147q0 -21 -20 -21zM223 737h-24q-21 0 -21 21v280q0 21 -20 21h-56q-20 0 -20 20v23q0 20 20 20h217q21 0 21 -20v-23q0 -20 -21 -20h-55q-20 0 -20 -21v-280q0 -21 -21 -21z" />
    <glyph glyph-name="Omega" unicode="&#x2126;" horiz-adv-x="1462" 
d="M90 0v193h303q-307 243 -307 616q0 185 80 333t227 232t334 84q197 0 339.5 -84.5t213 -228.5t70.5 -330q0 -109 -25.5 -206.5t-71.5 -174t-98 -134.5t-115 -107h308v-193h-504v193q49 47 87 93.5t79.5 117.5t64.5 163.5t23 198.5q0 217 -98.5 352t-276.5 135
q-173 0 -279 -136.5t-106 -356.5q0 -340 256 -567v-193h-504z" />
    <glyph glyph-name="estimated" unicode="&#x212e;" horiz-adv-x="1357" 
d="M332 586v-404q137 -131 321 -131q276 0 432 268q11 -6 35.5 -21.5t38.5 -23.5q-98 -148 -215.5 -223.5t-290.5 -75.5q-171 0 -302.5 83t-200 221.5t-68.5 308.5q0 171 67.5 308.5t199.5 219.5t306 82q134 0 243 -47.5t181.5 -130.5t113 -194t44.5 -240h-905zM332 664h647
v325q-65 65 -149.5 100t-176.5 35q-191 0 -321 -133v-327z" />
    <glyph glyph-name="onethird" unicode="&#x2153;" horiz-adv-x="1767" 
d="M606 514h-479q-12 0 -12 12v138q0 12 12 12h131q16 0 16 14v213q0 8 -8 8q-4 0 -8 -2l-33 -26q-13 -13 -18 -13q-8 0 -12 4l-89 80q-14 14 -14 19q0 6 4 10l246 229q14 7 18 7h86q13 0 13 -15v-514q0 -14 18 -14h129q12 0 12 -12v-138q0 -12 -12 -12zM1423 -10h-30
q-80 0 -128.5 25.5t-88.5 72.5q-10 12 -24.5 36t-14.5 32q0 12 24 22q10 4 39.5 15t52.5 19.5t27 8.5q7 0 10.5 -4t12.5 -18q26 -47 90 -47h30q90 0 90 45v34q0 26 -21 34.5t-69 8.5h-116q-14 0 -19.5 5t-5.5 22v115q0 13 5 16.5t20 3.5h116q47 0 68.5 10.5t21.5 36.5v15
q0 25 -22.5 35t-67.5 10h-30q-63 0 -99 -62q-6 -6 -12 -6q-2 0 -20 6l-113 51q-12 4 -12 17q0 20 37 63q39 43 89.5 68t129.5 25h30q123 0 197 -59t74 -159v-14q0 -59 -62 -117q62 -66 62 -120v-31q0 -99 -73.5 -157t-197.5 -58zM684 0h-111q-20 0 -20 16q0 5 12 37
l525 1225q6 12 18 12h111q20 0 20 -16q0 -13 -10 -33l-527 -1229q-6 -12 -18 -12z" />
    <glyph glyph-name="twothirds" unicode="&#x2154;" horiz-adv-x="1767" 
d="M600 514h-508q-14 0 -14 12v107q0 43 8 79t19 61t31.5 45.5t37 32.5t44 22.5t44.5 15.5t45 12q28 6 36.5 8t30 8t29 10.5t18.5 12.5t15 18t4 23q0 35 -22 55.5t-62 20.5h-49q-50 0 -98 -76q-10 -10 -14 -10q-7 0 -31 12l-113 51q-6 6 -6 13q0 6 2 10q43 80 102.5 121
t153.5 41h53q122 0 194.5 -69t72.5 -179q0 -42 -15 -75t-38 -53t-55.5 -35.5t-62 -24t-63.5 -16.5q-9 -2 -14 -3q-35 -9 -53 -15t-34 -19t-16 -30v-12q0 -12 17 -12h311q12 0 12 -12v-138q0 -12 -12 -12zM1423 -10h-30q-80 0 -128.5 25.5t-88.5 72.5q-10 12 -24.5 36
t-14.5 32q0 12 24 22q10 4 39.5 15t52.5 19.5t27 8.5q7 0 10.5 -4t12.5 -18q26 -47 90 -47h30q90 0 90 45v34q0 26 -21 34.5t-69 8.5h-116q-14 0 -19.5 5t-5.5 22v115q0 13 5 16.5t20 3.5h116q47 0 68.5 10.5t21.5 36.5v15q0 25 -22.5 35t-67.5 10h-30q-63 0 -99 -62
q-6 -6 -12 -6q-2 0 -20 6l-113 51q-12 4 -12 17q0 20 37 63q39 43 89.5 68t129.5 25h30q123 0 197 -59t74 -159v-14q0 -59 -62 -117q62 -66 62 -120v-31q0 -99 -73.5 -157t-197.5 -58zM684 0h-111q-20 0 -20 16q0 5 12 37l525 1225q6 12 18 12h111q20 0 20 -16
q0 -13 -10 -33l-527 -1229q-6 -12 -18 -12z" />
    <glyph glyph-name="oneeighth" unicode="&#x215b;" horiz-adv-x="1767" 
d="M606 514h-479q-12 0 -12 12v138q0 12 12 12h131q16 0 16 14v213q0 8 -8 8q-4 0 -8 -2l-33 -26q-13 -13 -18 -13q-8 0 -12 4l-89 80q-14 14 -14 19q0 6 4 10l246 229q14 7 18 7h86q13 0 13 -15v-514q0 -14 18 -14h129q12 0 12 -12v-138q0 -12 -12 -12zM1444 -10h-41
q-123 0 -195.5 58t-72.5 157v24q0 46 43 99q14 18 14 22q0 7 -14 21q-43 43 -43 96v20q0 100 72.5 159t195.5 59h41q123 0 195.5 -59t72.5 -159v-20q0 -51 -47 -98q-12 -12 -12 -19q0 -6 14 -20q45 -45 45 -101v-24q0 -99 -72.5 -157t-195.5 -58zM1403 434h41q88 0 88 43v23
q0 43 -88 43h-41q-90 0 -90 -43v-23q0 -43 90 -43zM1403 152h41q88 0 88 43v34q0 43 -88 43h-41q-90 0 -90 -43v-34q0 -21 26 -32t64 -11zM684 0h-111q-20 0 -20 16q0 5 12 37l525 1225q6 12 18 12h111q20 0 20 -16q0 -13 -10 -33l-527 -1229q-6 -12 -18 -12z" />
    <glyph glyph-name="threeeighths" unicode="&#x215c;" horiz-adv-x="1767" 
d="M342 504h-31q-80 0 -128.5 25.5t-88.5 72.5q-10 12 -24.5 36t-14.5 32q0 11 25 22q10 4 39.5 15t52.5 19.5t27 8.5q2 0 3.5 -0.5t3.5 -1.5l3 -1.5t2.5 -3t2.5 -4t3.5 -5.5t3.5 -6q26 -47 90 -47h31q90 0 90 45v34q0 26 -21 34.5t-69 8.5h-117q-14 0 -19 5t-5 22v115
q0 13 5 16.5t19 3.5h117q47 0 68.5 10.5t21.5 36.5v15q0 25 -22.5 35t-67.5 10h-31q-62 0 -98 -62q-6 -6 -12 -6q-3 0 -21 6l-112 52q-13 4 -13 16q0 20 37 63q39 43 89.5 68t129.5 25h31q123 0 196.5 -59t73.5 -159v-14q0 -59 -61 -117q61 -64 61 -120v-31q0 -99 -73 -157
t-197 -58zM1444 -10h-41q-123 0 -195.5 58t-72.5 157v24q0 46 43 99q14 18 14 22q0 7 -14 21q-43 43 -43 96v20q0 100 72.5 159t195.5 59h41q123 0 195.5 -59t72.5 -159v-20q0 -51 -47 -98q-12 -12 -12 -19q0 -6 14 -20q45 -45 45 -101v-24q0 -99 -72.5 -157t-195.5 -58z
M1403 434h41q88 0 88 43v23q0 43 -88 43h-41q-90 0 -90 -43v-23q0 -43 90 -43zM1403 152h41q88 0 88 43v34q0 43 -88 43h-41q-90 0 -90 -43v-34q0 -21 26 -32t64 -11zM664 0h-111q-21 0 -21 16q0 2 13 37l524 1225q6 12 18 12h111q21 0 21 -16q0 -11 -11 -33l-526 -1229
q-6 -12 -18 -12z" />
    <glyph glyph-name="fiveeighths" unicode="&#x215d;" horiz-adv-x="1767" 
d="M365 504h-39q-145 0 -228 94q-9 9 -24 30.5t-15 30.5q0 13 25 25q11 4 41.5 16.5t56 22.5t31.5 10q2 0 4.5 -1t5 -4t4.5 -5.5t5.5 -6.5t5.5 -7q35 -43 88 -43h39q88 0 88 45v34q0 27 -18.5 36.5t-69.5 9.5h-234q-13 0 -19 4t-6 20v369q0 16 6 20t19 4h463q24 0 24 -16
v-121q0 -24 -24 -24h-291q-14 0 -14 -17v-63q0 -9 2.5 -12t11.5 -3h62q123 0 195.5 -57.5t72.5 -157.5v-18q0 -99 -73 -157t-195 -58zM1444 -10h-41q-123 0 -195.5 58t-72.5 157v24q0 46 43 99q14 18 14 22q0 7 -14 21q-43 43 -43 96v20q0 100 72.5 159t195.5 59h41
q123 0 195.5 -59t72.5 -159v-20q0 -51 -47 -98q-12 -12 -12 -19q0 -6 14 -20q45 -45 45 -101v-24q0 -99 -72.5 -157t-195.5 -58zM1403 434h41q88 0 88 43v23q0 43 -88 43h-41q-90 0 -90 -43v-23q0 -43 90 -43zM1403 152h41q88 0 88 43v34q0 43 -88 43h-41q-90 0 -90 -43v-34
q0 -21 26 -32t64 -11zM684 0h-111q-20 0 -20 16q0 5 12 37l525 1225q6 12 18 12h111q20 0 20 -16q0 -13 -10 -33l-527 -1229q-6 -12 -18 -12z" />
    <glyph glyph-name="seveneighths" unicode="&#x215e;" horiz-adv-x="1767" 
d="M268 514h-131q-14 0 -19 5t-5 22v127q0 50 16 91.5t45.5 71.5t59 50t69.5 41q137 62 137 90v18q0 14 -22 14h-307q-14 0 -19.5 6t-5.5 23v107q0 28 25 28h489q14 0 19.5 -5t5.5 -23v-127q0 -37 -8 -68t-26.5 -56t-35.5 -43t-47.5 -36.5t-48 -28t-51.5 -26.5
q-31 -15 -45.5 -23.5t-34 -23t-27.5 -31t-8 -37.5v-137q0 -17 -5.5 -23t-19.5 -6zM1444 -10h-41q-123 0 -195.5 58t-72.5 157v24q0 46 43 99q14 18 14 22q0 7 -14 21q-43 43 -43 96v20q0 100 72.5 159t195.5 59h41q123 0 195.5 -59t72.5 -159v-20q0 -51 -47 -98
q-12 -12 -12 -19q0 -6 14 -20q45 -45 45 -101v-24q0 -99 -72.5 -157t-195.5 -58zM1403 434h41q88 0 88 43v23q0 43 -88 43h-41q-90 0 -90 -43v-23q0 -43 90 -43zM1403 152h41q88 0 88 43v34q0 43 -88 43h-41q-90 0 -90 -43v-34q0 -21 26 -32t64 -11zM623 0h-111
q-20 0 -20 16q0 5 12 37l524 1225q6 12 19 12h110q21 0 21 -16q0 -11 -11 -33l-526 -1229q-6 -12 -18 -12z" />
    <glyph glyph-name="partialdiff" unicode="&#x2202;" horiz-adv-x="1187" 
d="M877 883h4q8 78 8 123q0 151 -70 232t-194 81q-107 0 -195 -55q-23 67 -51 157q48 31 123 52.5t155 21.5q212 0 335.5 -139.5t123.5 -392.5q0 -196 -49 -388q-25 -96 -62.5 -182.5t-90 -163t-115.5 -132t-142.5 -88t-167.5 -32.5q-180 0 -291.5 112.5t-111.5 291.5
q0 148 47 270.5t123 199.5t169.5 119t190.5 42q91 0 161 -37.5t100 -91.5zM854 698q-23 68 -74 109t-127 41q-85 0 -161 -62.5t-123 -174t-47 -242.5q0 -96 46 -153.5t124 -57.5q86 0 161 74.5t125 194.5t76 271z" />
    <glyph glyph-name="Delta" unicode="&#x2206;" horiz-adv-x="1255" 
d="M49 0v104q81 234 233.5 679t223.5 651h319q37 -109 199 -590.5t250 -739.5v-104h-1225zM317 193h676q-137 422 -303 917q-14 47 -31 125h-8q-24 -100 -30 -121q-50 -153 -152 -460t-152 -461z" />
    <glyph glyph-name="product" unicode="&#x220f;" horiz-adv-x="1480" 
d="M160 -471v1905h1163v-1905h-240v1700h-686v-1700h-237z" />
    <glyph glyph-name="summation" unicode="&#x2211;" horiz-adv-x="1300" 
d="M47 -471v121q102 140 304.5 419.5t305.5 419.5q-95 135 -285.5 405.5t-285.5 405.5v134h1063v-193h-770q56 -80 240 -341t284 -404q-93 -129 -279.5 -387.5t-279.5 -387.5h848v-192h-1145z" />
    <glyph glyph-name="minus" unicode="&#x2212;" 
d="M938 410h-838q-20 0 -20 20v135q0 21 20 21h838q20 0 20 -21v-135q0 -20 -20 -20z" />
    <glyph glyph-name="uni2215" unicode="&#x2215;" horiz-adv-x="395" 
d="M-2 0h-111q-20 0 -20 16q0 5 12 37l524 1225q6 12 19 12h110q21 0 21 -16q0 -13 -10 -33l-527 -1229q-6 -12 -18 -12z" />
    <glyph glyph-name="uni2219" unicode="&#x2219;" 
d="M657 498q0 -56 -41 -97t-96 -41q-56 0 -97.5 41.5t-41.5 96.5q0 56 40.5 96.5t96.5 40.5t97.5 -41t41.5 -96z" />
    <glyph glyph-name="radical" unicode="&#x221a;" horiz-adv-x="1062" 
d="M702 -25h-190q-44 107 -131 323.5t-131 324.5q-19 -12 -56 -35.5t-55 -36.5q-13 20 -37 60.5t-36 60.5q47 31 143 93t143 93l252 -633q178 737 309 1268h160q-125 -506 -371 -1518z" />
    <glyph glyph-name="infinity" unicode="&#x221e;" horiz-adv-x="1615" 
d="M799 459h-4q-69 -99 -162 -158t-203 -59q-96 0 -176 41t-129 123t-49 190q0 160 102.5 257t249.5 97q222 0 367 -217h4q58 88 151.5 152.5t212.5 64.5q154 0 255.5 -98t101.5 -250q0 -155 -99 -257.5t-252 -102.5q-112 0 -208.5 58.5t-161.5 158.5zM1337 600
q0 81 -48.5 134.5t-139.5 53.5q-80 0 -142 -48t-122 -142q53 -92 120.5 -143.5t143.5 -51.5q90 0 139 57.5t49 139.5zM709 598q-54 86 -123 138t-144 52q-87 0 -135.5 -55.5t-48.5 -136.5q0 -83 52 -138t134 -55q147 0 265 195z" />
    <glyph glyph-name="integral" unicode="&#x222b;" horiz-adv-x="1009" 
d="M371 -111v1256q0 180 89 285.5t265 105.5q45 0 94.5 -10t73.5 -21q-9 -34 -28 -97t-21 -71q-48 19 -88 19q-72 0 -111 -47.5t-39 -139.5v-1255q0 -180 -88.5 -284.5t-261.5 -104.5q-42 0 -92 8.5t-74 20.5q7 28 20.5 84t20.5 83q50 -16 90 -16q73 0 111.5 47.5
t38.5 136.5z" />
    <glyph glyph-name="approxequal" unicode="&#x2248;" horiz-adv-x="1140" 
d="M221 680l-115 133q54 83 118 129.5t153 46.5q110 0 207 -63q109 -64 176 -64q91 0 162 131l114 -131q-55 -86 -118.5 -131t-149.5 -45q-113 0 -211 64q-99 63 -174 63q-88 0 -162 -133zM221 219l-115 133q54 83 118 129.5t153 46.5q110 0 207 -63q109 -64 176 -64
q91 0 162 131l114 -131q-55 -86 -118.5 -131t-149.5 -45q-113 0 -211 64q-99 63 -174 63q-88 0 -162 -133z" />
    <glyph glyph-name="notequal" unicode="&#x2260;" horiz-adv-x="1140" 
d="M236 55l102 234h-180v176h256l125 287h-381v176h456l111 256h190l-112 -256h182v-176h-258l-125 -287h383v-176h-457l-102 -234h-190z" />
    <glyph glyph-name="lessequal" unicode="&#x2264;" horiz-adv-x="1140" 
d="M158 0v176h827v-176h-827zM985 285l-827 372v150l827 373v-187l-602 -260v-4l602 -260v-184z" />
    <glyph glyph-name="greaterequal" unicode="&#x2265;" horiz-adv-x="1140" 
d="M158 0v176h827v-176h-827zM158 285v186l602 260v4l-602 260v185l827 -371v-152z" />
    <glyph glyph-name="lozenge" unicode="&#x25ca;" horiz-adv-x="1155" 
d="M606 0h-112q-69 119 -206.5 357.5t-205.5 357.5q69 120 206 359.5t206 359.5h112q86 -151 414 -717q-328 -565 -414 -717zM842 717q-48 85 -145.5 255t-145.5 255q-48 -85 -145.5 -255t-145.5 -255q144 -255 291 -510q48 85 145.5 255t145.5 255z" />
    <glyph glyph-name="a.sc" unicode="&#xe000;" horiz-adv-x="909" 
d="M252 0h-207q-18 0 -18 12q0 6 2 8l336 996q5 10 16 10h149q10 0 15 -10l334 -996q2 -4 2 -10q0 -10 -17 -10h-211q-11 0 -14 12l-49 148q-5 10 -21 10h-231q-16 0 -19 -10l-51 -148q-3 -12 -16 -12zM385 336h137q17 0 17 16l-52 203q-8 32 -14.5 73t-9.5 66.5t-4 26.5h-4
q0 -4 -3.5 -27.5t-11 -64.5t-16.5 -74l-55 -203q0 -16 16 -16z" />
    <glyph glyph-name="ae.sc" unicode="&#xe001;" horiz-adv-x="1286" 
d="M139 0h-207q-20 0 -20 14q0 3 4 11l633 991q7 10 26 10h596q17 0 17 -16v-168q0 -15 -17 -15h-403q-20 0 -20 -18v-172q0 -16 20 -16h330q16 0 16 -15v-170q0 -16 -16 -16h-330q-20 0 -20 -17v-186q0 -16 20 -16h403q17 0 17 -17v-168q0 -16 -17 -16h-636q-17 0 -17 16
v183q0 18 -18 18h-195q-16 0 -24 -14l-117 -191q-6 -12 -25 -12zM401 391h103q14 0 14 17v104q0 29 2 71t4 73t2 34h-4q-1 -1 -7 -17t-14.5 -38t-13.5 -33l-96 -190q-4 -8 -4 -11q0 -10 14 -10z" />
    <glyph glyph-name="aacute.sc" unicode="&#xe002;" horiz-adv-x="909" 
d="M252 0h-207q-18 0 -18 12q0 6 2 8l336 996q5 10 16 10h149q10 0 15 -10l334 -996q2 -4 2 -10q0 -10 -17 -10h-211q-11 0 -14 12l-49 148q-5 10 -21 10h-231q-16 0 -19 -10l-51 -148q-3 -12 -16 -12zM385 336h137q17 0 17 16l-52 203q-8 32 -14.5 73t-9.5 66.5t-4 26.5h-4
q0 -4 -3.5 -27.5t-11 -64.5t-16.5 -74l-55 -203q0 -16 16 -16zM494 1161h-140q-20 0 -20 17q0 6 12 26l184 283q10 16 29 16h250q22 0 22 -16q0 -11 -14 -25l-291 -286q-19 -15 -32 -15z" />
    <glyph glyph-name="acircumflex.sc" unicode="&#xe003;" horiz-adv-x="909" 
d="M252 0h-207q-18 0 -18 12q0 6 2 8l336 996q5 10 16 10h149q10 0 15 -10l334 -996q2 -4 2 -10q0 -10 -17 -10h-211q-11 0 -14 12l-49 148q-5 10 -21 10h-231q-16 0 -19 -10l-51 -148q-3 -12 -16 -12zM385 336h137q17 0 17 16l-52 203q-8 32 -14.5 73t-9.5 66.5t-4 26.5h-4
q0 -4 -3.5 -27.5t-11 -64.5t-16.5 -74l-55 -203q0 -16 16 -16zM356 1161h-166q-22 0 -22 17q0 7 6 16l213 301q8 8 16 8h101q8 0 16 -8l215 -301q6 -9 6 -16q0 -17 -22 -17h-166q-9 0 -16 10l-68 105q-6 12 -16 12q-9 0 -15 -12l-65 -105q-7 -10 -17 -10z" />
    <glyph glyph-name="adieresis.sc" unicode="&#xe004;" horiz-adv-x="909" 
d="M252 0h-207q-18 0 -18 12q0 6 2 8l336 996q5 10 16 10h149q10 0 15 -10l334 -996q2 -4 2 -10q0 -10 -17 -10h-211q-11 0 -14 12l-49 148q-5 10 -21 10h-231q-16 0 -19 -10l-51 -148q-3 -12 -16 -12zM385 336h137q17 0 17 16l-52 203q-8 32 -14.5 73t-9.5 66.5t-4 26.5h-4
q0 -4 -3.5 -27.5t-11 -64.5t-16.5 -74l-55 -203q0 -16 16 -16zM754 1309q0 -54 -36.5 -90.5t-90.5 -36.5t-90.5 36.5t-36.5 90.5t36.5 90.5t90.5 36.5t90.5 -36.5t36.5 -90.5zM408 1309q0 -54 -36.5 -90.5t-90.5 -36.5t-90.5 36.5t-36.5 90.5t36.5 90.5t90.5 36.5
t90.5 -36.5t36.5 -90.5z" />
    <glyph glyph-name="agrave.sc" unicode="&#xe005;" horiz-adv-x="909" 
d="M252 0h-207q-18 0 -18 12q0 6 2 8l336 996q5 10 16 10h149q10 0 15 -10l334 -996q2 -4 2 -10q0 -10 -17 -10h-211q-11 0 -14 12l-49 148q-5 10 -21 10h-231q-16 0 -19 -10l-51 -148q-3 -12 -16 -12zM385 336h137q17 0 17 16l-52 203q-8 32 -14.5 73t-9.5 66.5t-4 26.5h-4
q0 -4 -3.5 -27.5t-11 -64.5t-16.5 -74l-55 -203q0 -16 16 -16zM575 1161h-139q-14 0 -33 15l-290 286q-15 15 -15 25q0 16 23 16h250q18 0 28 -16l185 -283q12 -20 12 -26q0 -17 -21 -17z" />
    <glyph glyph-name="aring.sc" unicode="&#xe006;" horiz-adv-x="909" 
d="M252 0h-207q-18 0 -18 12q0 2 2 8.5t5.5 17t4.5 15.5l307 908q-96 52 -96 169v60q0 87 56 140.5t149 53.5t148.5 -53.5t55.5 -140.5v-60q0 -117 -96 -169l311 -926q7 -14 7 -25q0 -10 -17 -10h-211q-11 0 -14 12l-49 148q-5 10 -21 10h-231q-16 0 -19 -10l-51 -148
q-3 -12 -16 -12zM514 1130v60q-2 23 -19.5 41t-39.5 18q-23 0 -41.5 -18t-18.5 -41v-60q0 -23 18 -40t42 -17q23 0 41 17t18 40zM385 336h137q17 0 17 16l-52 203q-8 32 -14.5 73t-9.5 66.5t-4 26.5h-4q0 -4 -3.5 -27.5t-11 -64.5t-16.5 -74l-55 -203q0 -16 16 -16z" />
    <glyph glyph-name="atilde.sc" unicode="&#xe007;" horiz-adv-x="909" 
d="M252 0h-207q-18 0 -18 12q0 6 2 8l336 996q5 10 16 10h149q10 0 15 -10l334 -996q2 -4 2 -10q0 -10 -17 -10h-211q-11 0 -14 12l-49 148q-5 10 -21 10h-231q-16 0 -19 -10l-51 -148q-3 -12 -16 -12zM385 336h137q17 0 17 16l-52 203q-8 32 -14.5 73t-9.5 66.5t-4 26.5h-4
q0 -4 -3.5 -27.5t-11 -64.5t-16.5 -74l-55 -203q0 -16 16 -16zM209 1219l-70 51q-8 5 -8 16q0 10 29 57q76 119 178 119q65 0 139 -53l35 -25q29 -22 57 -22q45 0 88 70q6 12 17 12q6 0 22 -12l74 -60q8 -5 8 -16q0 -14 -37 -70q-76 -112 -172 -112q-30 0 -61 14t-80 45
l-37 22q-34 21 -53 21q-41 0 -84 -64q-6 -12 -16 -12q-6 0 -29 19z" />
    <glyph glyph-name="b.sc" unicode="&#xe008;" horiz-adv-x="1048" 
d="M598 0h-428q-14 0 -14 16v994q0 16 14 16h428q158 0 245 -74.5t87 -214.5v-37q0 -53 -28 -100t-75 -70q-11 -6 -11 -13t11 -11q45 -24 74 -71t29 -101v-41q0 -133 -88 -213t-244 -80zM403 608h195q50 0 77 26t27 68v27q0 41 -28 69.5t-76 28.5h-195q-18 0 -18 -18v-184
q0 -17 18 -17zM403 201h195q42 0 73 28.5t31 65.5v43q0 39 -29 66.5t-75 27.5h-195q-18 0 -18 -16v-199q0 -16 18 -16z" />
    <glyph glyph-name="c.sc" unicode="&#xe009;" horiz-adv-x="966" 
d="M571 -23h-104q-155 0 -245.5 81.5t-90.5 213.5v480q0 135 90.5 216t245.5 81h104q114 0 187.5 -47.5t128.5 -149.5q4 -12 4 -16q0 -10 -6 -13l-170 -78q-2 -2 -6 -2q-12 0 -21 13q-55 92 -127 92h-94q-50 0 -80.5 -27t-30.5 -69v-480q0 -41 30.5 -68.5t80.5 -27.5h94
q71 0 127 94q8 15 21 15q1 0 3 -1t3 -1l170 -78q6 -6 6 -15q0 -8 -4 -16q-55 -102 -128.5 -149.5t-187.5 -47.5z" />
    <glyph glyph-name="ccedilla.sc" unicode="&#xe00a;" horiz-adv-x="966" 
d="M408 -440h-121q-21 0 -21 20v135q0 21 21 21h121q14 0 25 11t11 24v16q0 14 -11.5 25.5t-24.5 11.5h-82q-23 0 -23 16q0 5 4 13l55 112q3 6 3 12q0 13 -15 19q-46 17 -80 36t-68.5 50.5t-52.5 79.5t-18 110v480q0 135 90.5 216t245.5 81h104q114 0 187.5 -47.5
t128.5 -149.5q4 -12 4 -16q0 -10 -6 -13l-148 -67q-1 0 -12 -6.5t-16 -6.5q-12 0 -21 13q-55 92 -127 92h-94q-50 0 -80.5 -27t-30.5 -69v-480q0 -41 30.5 -68.5t80.5 -27.5h94q71 0 127 94q8 15 21 15q3 0 16.5 -7t15.5 -8l144 -65q6 -6 6 -15q0 -8 -4 -16
q-107 -197 -316 -197q-30 0 -30 -28q0 -12 8 -15q86 -47 86 -147v-16q0 -94 -65 -152.5t-162 -58.5z" />
    <glyph glyph-name="d.sc" unicode="&#xe00b;" horiz-adv-x="1060" 
d="M598 0h-428q-14 0 -14 16v994q0 16 14 16h428q152 0 242 -83.5t90 -227.5v-404q0 -144 -90 -227.5t-242 -83.5zM403 201h195q42 0 73 28.5t31 65.5v434q0 38 -31 68t-73 30h-195q-18 0 -18 -18v-592q0 -16 18 -16z" />
    <glyph glyph-name="eth.sc" unicode="&#xe00c;" horiz-adv-x="1060" 
d="M598 0h-428q-14 0 -14 16v375q0 23 -19 23h-82q-20 0 -20 20v166q0 21 20 21h80q9 0 15 7t6 17v365q0 16 14 16h428q152 0 242 -83.5t90 -227.5v-404q0 -144 -90 -227.5t-242 -83.5zM403 201h195q42 0 73 28.5t31 65.5v434q0 38 -31 68t-73 30h-195q-18 0 -18 -18v-166
q0 -22 23 -22h124q21 0 21 -21v-166q0 -20 -21 -20h-124q-23 0 -23 -23v-174q0 -16 18 -16z" />
    <glyph glyph-name="e.sc" unicode="&#xe00d;" horiz-adv-x="933" 
d="M819 0h-649q-14 0 -14 16v994q0 16 14 16h649q17 0 17 -16v-168q0 -15 -17 -15h-416q-18 0 -18 -18v-172q0 -16 18 -16h342q19 0 19 -15v-170q0 -16 -19 -16h-342q-18 0 -18 -17v-186q0 -16 18 -16h416q17 0 17 -17v-168q0 -16 -17 -16z" />
    <glyph glyph-name="eacute.sc" unicode="&#xe00e;" horiz-adv-x="933" 
d="M819 0h-649q-14 0 -14 16v994q0 16 14 16h649q17 0 17 -16v-168q0 -15 -17 -15h-416q-18 0 -18 -18v-172q0 -16 18 -16h342q19 0 19 -15v-170q0 -16 -19 -16h-342q-18 0 -18 -17v-186q0 -16 18 -16h416q17 0 17 -17v-168q0 -16 -17 -16zM496 1161h-140q-20 0 -20 17
q0 6 12 26l184 283q10 16 29 16h250q23 0 23 -16q0 -10 -15 -25l-291 -286q-19 -15 -32 -15z" />
    <glyph glyph-name="ecircumflex.sc" unicode="&#xe00f;" horiz-adv-x="933" 
d="M819 0h-649q-14 0 -14 16v994q0 16 14 16h649q17 0 17 -16v-168q0 -15 -17 -15h-416q-18 0 -18 -18v-172q0 -16 18 -16h342q19 0 19 -15v-170q0 -16 -19 -16h-342q-18 0 -18 -17v-186q0 -16 18 -16h416q17 0 17 -17v-168q0 -16 -17 -16zM399 1161h-166q-22 0 -22 17
q0 7 6 16l213 301q8 8 16 8h101q8 0 16 -8l215 -301q6 -9 6 -16q0 -17 -22 -17h-166q-9 0 -16 10l-68 105q-6 12 -16 12q-9 0 -15 -12l-65 -105q-7 -10 -17 -10z" />
    <glyph glyph-name="edieresis.sc" unicode="&#xe010;" horiz-adv-x="933" 
d="M819 0h-649q-14 0 -14 16v994q0 16 14 16h649q17 0 17 -16v-168q0 -15 -17 -15h-416q-18 0 -18 -18v-172q0 -16 18 -16h342q19 0 19 -15v-170q0 -16 -19 -16h-342q-18 0 -18 -17v-186q0 -16 18 -16h416q17 0 17 -17v-168q0 -16 -17 -16zM797 1309q0 -54 -36.5 -90.5
t-90.5 -36.5t-90.5 36.5t-36.5 90.5t36.5 90.5t90.5 36.5t90.5 -36.5t36.5 -90.5zM451 1309q0 -54 -36.5 -90.5t-90.5 -36.5t-90.5 36.5t-36.5 90.5t36.5 90.5t90.5 36.5t90.5 -36.5t36.5 -90.5z" />
    <glyph glyph-name="egrave.sc" unicode="&#xe011;" horiz-adv-x="933" 
d="M819 0h-649q-14 0 -14 16v994q0 16 14 16h649q17 0 17 -16v-168q0 -15 -17 -15h-416q-18 0 -18 -18v-172q0 -16 18 -16h342q19 0 19 -15v-170q0 -16 -19 -16h-342q-18 0 -18 -17v-186q0 -16 18 -16h416q17 0 17 -17v-168q0 -16 -17 -16zM639 1161h-139q-14 0 -33 15
l-291 286q-14 14 -14 25q0 16 22 16h250q19 0 29 -16l184 -283q12 -20 12 -26q0 -17 -20 -17z" />
    <glyph glyph-name="f.sc" unicode="&#xe012;" horiz-adv-x="899" 
d="M369 0h-199q-14 0 -14 16v994q0 16 14 16h649q17 0 17 -16v-168q0 -15 -17 -15h-416q-18 0 -18 -18v-172q0 -16 18 -16h342q19 0 19 -15v-170q0 -16 -19 -16h-342q-18 0 -18 -17v-387q0 -16 -16 -16z" />
    <glyph glyph-name="g.sc" unicode="&#xe013;" horiz-adv-x="1028" 
d="M571 -23h-104q-158 0 -247 79.5t-89 215.5v480q0 135 90.5 216t245.5 81h123q115 0 188.5 -47t130.5 -150q2 -4 2 -14t-8 -15l-168 -78q-2 -2 -6 -2q-11 0 -20 13q-55 92 -127 92h-115q-50 0 -80.5 -27t-30.5 -69v-480q0 -40 32.5 -67t78.5 -27h104q45 0 75 27t30 67v86
q0 17 -19 17h-143q-16 0 -16 16v144q0 16 16 16h377q9 0 11.5 -3t2.5 -13v-263q0 -136 -88.5 -215.5t-245.5 -79.5z" />
    <glyph glyph-name="h.sc" unicode="&#xe014;" horiz-adv-x="1110" 
d="M369 0h-199q-14 0 -14 16v994q0 16 14 16h199q16 0 16 -16v-373q0 -16 18 -16h306q18 0 18 16v373q0 16 16 16h195q16 0 16 -16v-994q0 -16 -16 -16h-195q-16 0 -16 16v387q0 17 -18 17h-306q-18 0 -18 -17v-387q0 -16 -16 -16z" />
    <glyph glyph-name="i.sc" unicode="&#xe015;" horiz-adv-x="540" 
d="M369 0h-199q-14 0 -14 16v994q0 16 14 16h199q16 0 16 -16v-994q0 -16 -16 -16z" />
    <glyph glyph-name="iacute.sc" unicode="&#xe016;" horiz-adv-x="540" 
d="M369 0h-199q-14 0 -14 16v994q0 16 14 16h199q16 0 16 -16v-994q0 -16 -16 -16zM309 1161h-139q-20 0 -20 17q0 6 12 26l184 283q10 16 29 16h250q22 0 22 -16q0 -11 -14 -25l-291 -286q-19 -15 -33 -15z" />
    <glyph glyph-name="icircumflex.sc" unicode="&#xe017;" horiz-adv-x="540" 
d="M369 0h-199q-14 0 -14 16v994q0 16 14 16h199q16 0 16 -16v-994q0 -16 -16 -16zM172 1161h-166q-22 0 -22 17q0 7 6 16l213 301q8 8 16 8h100q9 0 17 -8l215 -301q6 -9 6 -16q0 -17 -22 -17h-166q-10 0 -17 10l-67 105q-6 12 -17 12q-8 0 -14 -12l-66 -105
q-7 -10 -16 -10z" />
    <glyph glyph-name="idieresis.sc" unicode="&#xe018;" horiz-adv-x="540" 
d="M369 0h-199q-14 0 -14 16v994q0 16 14 16h199q16 0 16 -16v-994q0 -16 -16 -16zM569 1309q0 -54 -36.5 -90.5t-90.5 -36.5t-90.5 36.5t-36.5 90.5t36.5 90.5t90.5 36.5t90.5 -36.5t36.5 -90.5zM223 1309q0 -54 -36.5 -90.5t-90.5 -36.5t-90.5 36.5t-36.5 90.5t36.5 90.5
t90.5 36.5t90.5 -36.5t36.5 -90.5z" />
    <glyph glyph-name="igrave.sc" unicode="&#xe019;" horiz-adv-x="540" 
d="M369 0h-199q-14 0 -14 16v994q0 16 14 16h199q16 0 16 -16v-994q0 -16 -16 -16zM371 1161h-140q-13 0 -32 15l-291 286q-14 14 -14 25q0 16 22 16h250q19 0 29 -16l184 -283q12 -20 12 -26q0 -17 -20 -17z" />
    <glyph glyph-name="j.sc" unicode="&#xe01a;" horiz-adv-x="821" 
d="M37 211l178 78q4 2 10 2q8 0 15 -10q44 -99 120 -99q44 0 72.5 27.5t28.5 69.5v731q0 16 14 16h199q16 0 16 -16v-711q0 -147 -90.5 -232t-249.5 -85q-113 0 -194.5 53t-124.5 151q-4 8 -4 11q0 7 10 14z" />
    </font>
</defs>
</svg>
