<?xml version="1.0" encoding="UTF-8" standalone="no"?><!DOCTYPE svg PUBLIC "-//W3C//DTD SVG 1.1//EN" "http://www.w3.org/Graphics/SVG/1.1/DTD/svg11.dtd"><svg width="100%" height="100%" viewBox="0 0 206 205" version="1.1" xmlns="http://www.w3.org/2000/svg" xmlns:xlink="http://www.w3.org/1999/xlink" xml:space="preserve" xmlns:serif="http://www.serif.com/" style="fill-rule:evenodd;clip-rule:evenodd;stroke-linejoin:round;stroke-miterlimit:2;"><rect id="ArtBoard1" x="0" y="0" width="205.378" height="204.711" style="fill:none;"/><path id="Pfad_7461" d="M101.88,2.25c-55.153,0.011 -100.53,45.397 -100.53,100.55c0,55.16 45.39,100.55 100.55,100.55c55.16,-0 100.55,-45.39 100.55,-100.55l0,-0c0,-55.16 -45.39,-100.55 -100.55,-100.55c-0.007,-0 -0.013,-0 -0.02,0Zm0,183.48c-45.494,-0.008 -82.926,-37.446 -82.926,-82.94c0,-45.5 37.441,-82.94 82.94,-82.94c43.721,0 80.318,34.57 82.806,78.22c0.1,1.704 0.064,3.412 -0.11,5.11c-1,8.59 -5.13,14.78 -12.13,17.93c-9.48,4.24 -21.94,1.54 -27.78,-6c-3.129,-4.546 -5.891,-9.335 -8.26,-14.32c-0.26,-0.58 -0.52,-1.15 -0.77,-1.72l-0.8,-1.79l16.41,-14l8.2,0l0,-12l-34.46,0l0,11.72l8.18,0l-18.12,15.46l0,-0.14c0,-21.86 -8.29,-28.52 -25.26,-28.52c-4,0 -13.44,2.12 -19.36,9.79l-0.62,0.74l0,-9.16l-25.27,0l0,12.07l9.68,0l0,52.4l16.09,0l0,-40.64c0.022,-0.552 0.147,-1.095 0.37,-1.6c-0.003,-0.04 -0.003,-0.08 0,-0.12c3.011,-6.46 9.684,-10.46 16.8,-10.07c5.91,0 11.31,2.14 11.31,15.21l0,37.2l16.23,0l0,-21.51l9.09,-7.76l0.11,0.21c2.353,5.665 5.18,11.121 8.45,16.31c6.47,9.37 18.27,14.8 30.14,14.8c4.514,0.014 8.992,-0.803 13.21,-2.41c1.17,-0.46 2.48,-1 3.6,-1.62c-12.07,32.52 -43.1,52.1 -77.8,52.1l0.05,-0.01Z" style="fill:url(#_Linear1);fill-rule:nonzero;"/><defs><linearGradient id="_Linear1" x1="0" y1="0" x2="1" y2="0" gradientUnits="userSpaceOnUse" gradientTransform="matrix(-174.528,-180.998,180.998,-174.528,197.02,194.248)"><stop offset="0" style="stop-color:#090f15;stop-opacity:1"/><stop offset="0.29" style="stop-color:#2a1732;stop-opacity:1"/><stop offset="0.4" style="stop-color:#72296f;stop-opacity:1"/><stop offset="0.5" style="stop-color:#b73bab;stop-opacity:1"/><stop offset="1" style="stop-color:#b1ffb9;stop-opacity:1"/></linearGradient></defs></svg>