<?xml version="1.0" encoding="UTF-8" standalone="no"?><!DOCTYPE svg PUBLIC "-//W3C//DTD SVG 1.1//EN" "http://www.w3.org/Graphics/SVG/1.1/DTD/svg11.dtd"><svg width="100%" height="100%" viewBox="0 0 34 34" version="1.1" xmlns="http://www.w3.org/2000/svg" xmlns:xlink="http://www.w3.org/1999/xlink" xml:space="preserve" xmlns:serif="http://www.serif.com/" style="fill-rule:evenodd;clip-rule:evenodd;stroke-linejoin:round;stroke-miterlimit:2;"><rect id="ArtBoard2" x="-0" y="0" width="34" height="34" style="fill:none;"/><path id="Pfad_7461" d="M16.994,0.376c-9.057,0.001 -16.509,7.455 -16.509,16.512c0,9.059 7.454,16.513 16.513,16.513c9.058,-0 16.512,-7.454 16.512,-16.513l0,0c0,-9.058 -7.454,-16.512 -16.512,-16.512c-0.001,-0 -0.002,-0 -0.004,-0Zm0,30.131c-7.471,-0.001 -13.618,-6.149 -13.618,-13.62c0,-7.472 6.149,-13.621 13.621,-13.621c7.18,-0 13.19,5.677 13.598,12.846c0.017,0.279 0.011,0.56 -0.018,0.839c-0.164,1.41 -0.842,2.427 -1.992,2.944c-1.557,0.697 -3.603,0.253 -4.562,-0.985c-0.514,-0.747 -0.967,-1.533 -1.356,-2.352c-0.043,-0.095 -0.086,-0.189 -0.127,-0.282l-0.131,-0.294l2.695,-2.299l1.346,-0l0,-1.971l-5.659,-0l0,1.925l1.344,-0l-2.976,2.539l-0,-0.023c-0,-3.59 -1.362,-4.684 -4.148,-4.684c-0.657,-0 -2.208,0.348 -3.18,1.608l-0.102,0.121l0,-1.504l-4.149,-0l-0,1.982l1.589,0l0,8.605l2.643,0l-0,-6.674c0.003,-0.09 0.024,-0.179 0.06,-0.262c-0,-0.007 -0,-0.014 0,-0.02c0.495,-1.061 1.591,-1.718 2.759,-1.654c0.971,0 1.858,0.352 1.858,2.498l-0,6.109l2.665,0l-0,-3.532l1.493,-1.275l0.018,0.035c0.386,0.93 0.85,1.826 1.388,2.678c1.062,1.539 3,2.431 4.949,2.431c0.741,0.002 1.477,-0.132 2.17,-0.396c0.192,-0.076 0.407,-0.164 0.591,-0.266c-1.982,5.34 -7.078,8.556 -12.777,8.556l0.008,-0.002Z" style="fill:url(#_Linear1);fill-rule:nonzero;"/><defs><linearGradient id="_Linear1" x1="0" y1="0" x2="1" y2="0" gradientUnits="userSpaceOnUse" gradientTransform="matrix(-28.6616,-29.724,29.724,-28.6616,32.6187,31.9061)"><stop offset="0" style="stop-color:#090f15;stop-opacity:1"/><stop offset="0.02" style="stop-color:#2e1835;stop-opacity:1"/><stop offset="0.03" style="stop-color:#512153;stop-opacity:1"/><stop offset="0.09" style="stop-color:#602560;stop-opacity:1"/><stop offset="0.5" style="stop-color:#b73bab;stop-opacity:1"/><stop offset="0.76" style="stop-color:#b3cab5;stop-opacity:1"/><stop offset="1" style="stop-color:#b1ffb9;stop-opacity:1"/></linearGradient></defs></svg>